<?xml version="1.0" encoding="utf-8"?>
<!-- Generator: Adobe Illustrator 19.2.1, SVG Export Plug-In . SVG Version: 6.00 Build 0)  -->
<!DOCTYPE svg PUBLIC "-//W3C//DTD SVG 1.1//EN" "http://www.w3.org/Graphics/SVG/1.1/DTD/svg11.dtd">
<svg version="1.1" id="Layer_1" xmlns="http://www.w3.org/2000/svg" xmlns:xlink="http://www.w3.org/1999/xlink" x="0px" y="0px"
	 viewBox="0 0 612 564" enable-background="new 0 0 612 564" xml:space="preserve">
<g>
	<g>
		<rect x="196.2" y="383" fill="none" width="202" height="127.8"/>
		<text transform="matrix(0.9763 0 0 1 214.2344 403.4907)"><tspan x="0" y="0" fill="#010101" font-family="'ProximaNovaSoft-Bold'" font-size="30.4559px">Serving Size</tspan><tspan x="28.7" y="42.9" fill="#010101" font-family="'ProximaNovaSoft-Bold'" font-size="30.4559px">Calories</tspan><tspan x="32.6" y="85.8" fill="#010101" font-family="'ProximaNovaSoft-Bold'" font-size="30.4559px">Sodium</tspan></text>
	</g>
	<rect x="132.5" y="380.1" fill="none" width="86.4" height="58.3"/>
	
		<text transform="matrix(0.9763 0 0 1 167.5674 407.4009)" fill="#010101" font-family="'ProximaNovaSoft-Bold'" font-size="40.6079px">1</text>
	<rect x="418.2" y="379.1" fill="none" width="86.4" height="45.1"/>
	
		<text transform="matrix(0.9763 0 0 1 453.2569 406.3872)" fill="#010101" font-family="'ProximaNovaSoft-Bold'" font-size="40.6079px">1</text>
	<rect x="120.9" y="424.5" fill="none" width="88.4" height="52.3"/>
	
		<text transform="matrix(0.9763 0 0 1 142.0128 451.8677)" fill="#010101" font-family="'ProximaNovaSoft-Bold'" font-size="40.6079px">70</text>
	<rect x="408.6" y="421" fill="none" width="88.4" height="52.3"/>
	
		<text transform="matrix(0.9763 0 0 1 429.6983 448.3052)" fill="#010101" font-family="'ProximaNovaSoft-Bold'" font-size="40.6079px">70</text>
	<rect x="107.4" y="465.3" fill="none" width="91.6" height="37.9"/>
	<text transform="matrix(1 0 0 1 119.9903 492.6763)" fill="#EE2D2F" font-family="'ProximaNovaSoft-Bold'" font-size="40.6079px">810</text>
	<rect x="399.6" y="461.3" fill="none" width="86.3" height="53.8"/>
	<text transform="matrix(1 0 0 1 406.0596 488.6489)" fill="#24B574" font-family="'ProximaNovaSoft-Bold'" font-size="40.6079px">230</text>
</g>
<ellipse fill="#E6E7E8" cx="306.4" cy="257.9" rx="41.2" ry="42.2"/>
<g>
	<ellipse fill="none" stroke="#010101" stroke-width="1.5048" stroke-miterlimit="10" cx="439.3" cy="183.1" rx="43" ry="6.7"/>
	<g>
		<polygon fill="#FFFFFF" stroke="#010101" stroke-width="1.5048" stroke-miterlimit="10" points="437.2,219.6 411.4,126.6 
			374,141.1 369.9,131.6 386.4,125.2 418.7,112.7 447.6,217 		"/>
	</g>
	<path fill="#ED2224" stroke="#010101" stroke-width="1.5048" stroke-miterlimit="10" d="M420.1,164.4c0,0-26.6,2.2-21.7,22.1
		c4.3,17.4,17.6,21,19.7,21.6c2.2,0.6,20.3,0.9,24-25.1C442.2,182.9,446.2,162.8,420.1,164.4z"/>
	<path fill="#046937" stroke="#010101" stroke-width="1.5048" stroke-miterlimit="10" d="M424.5,175.2c-0.6,0-1.2-0.2-1.7-0.7
		l-7.1-7.3c-0.7-0.7-0.8-1.7-0.4-2.5c0.4-0.8,1.3-1.3,2.3-1.2l13.6,1.3c1.3,0.1,2.2,1.2,2.1,2.4s-1.3,2.1-2.5,2l-7.5-0.7l3,3
		c0.9,0.9,0.8,2.3-0.1,3.1C425.6,175,425,175.2,424.5,175.2z"/>
	<path fill="#046937" stroke="#010101" stroke-width="1.5048" stroke-miterlimit="10" d="M404,172.2c-1,0-1.9-0.6-2.2-1.5
		c-0.4-1.1,0.2-2.4,1.4-2.8l13.4-4.3c1.2-0.4,2.5,0.2,2.9,1.4c0.4,1.1-0.2,2.4-1.4,2.8l-13.4,4.3C404.5,172.2,404.3,172.2,404,172.2
		z"/>
	<path fill="#046937" stroke="#010101" stroke-width="1.5048" stroke-miterlimit="10" d="M410.3,176.5c-0.5,0-1-0.2-1.4-0.5
		c-1-0.7-1.2-2.1-0.4-3.1l6.5-7.8l-1.8-10.1c-0.2-1.2,0.6-2.3,1.9-2.5c1.3-0.2,2.5,0.6,2.7,1.8l2,11.1c0.1,0.6-0.1,1.2-0.5,1.7
		l-7.1,8.6C411.7,176.2,411,176.5,410.3,176.5z"/>
	<ellipse fill="none" cx="200.5" cy="186" rx="1.8" ry="1.8"/>
	
		<ellipse fill="#EC2227" stroke="#010101" stroke-width="1.5048" stroke-miterlimit="10" cx="440.5" cy="188.8" rx="14.5" ry="13.7"/>
	<path fill="none" d="M209.4,192.5c2.2,2.8,3.1,5.7,1.9,6.6s-4-0.7-6.2-3.4c-2.2-2.8-3.1-5.7-1.9-6.6
		C204.4,188.2,207.2,189.7,209.4,192.5z"/>
	<ellipse fill="#EC2227" stroke="#010101" stroke-width="1.5048" stroke-miterlimit="10" cx="464.1" cy="187" rx="16.9" ry="16"/>
	<g>
		<path fill="#754D25" stroke="#010101" stroke-width="1.5048" stroke-miterlimit="10" d="M440.5,182.5c-1.2,0-2.3-0.8-2.4-2
			c-1.3-8.5,1.7-17.4,8.7-25.9c5.2-6.3,10.7-10.1,11-10.2c0.9-0.6,2.1-0.6,2.9,0c0.9,0.6,1.2,1.7,0.8,2.7
			c-0.1,0.2-7.2,19.1,2.4,28.2c1,0.9,1,2.4,0,3.3c-1,0.9-2.5,0.9-3.5,0c-7.5-7.1-7-18.1-5.6-25.5c-5.8,5.6-13.6,15.5-11.9,26.7
			c0.2,1.3-0.7,2.5-2.1,2.6C440.7,182.5,440.6,182.5,440.5,182.5z"/>
	</g>
	<polygon fill="#ED2224" stroke="#010101" stroke-width="1.5048" stroke-miterlimit="10" points="369.9,131.6 374,141.1 
		389.1,135.3 392.1,123 	"/>
	<polyline fill="#ED2224" stroke="#010101" stroke-width="1.5048" stroke-miterlimit="10" points="399.3,131.3 401.7,119.3 
		412.5,115.1 411.4,126.6 400.2,131.3 	"/>
	<polygon fill="#ED2224" stroke="#010101" stroke-width="1.5048" stroke-miterlimit="10" points="422,124.6 414,136.1 416.2,143.9 
		424.3,132.9 	"/>
	<polygon fill="#ED2224" stroke="#010101" stroke-width="1.5048" stroke-miterlimit="10" points="426.7,142.2 418.7,153.7 
		420.8,161.5 429,150.5 	"/>
	<path fill="#E6E6E5" stroke="#010101" stroke-width="1.5048" stroke-miterlimit="10" d="M396.3,183.1c0,0,41.7,12.6,86,0
		c0,0-8.9,108.7-28.4,123.7c0,0,20.9,12,20.8,24.3c0,0-29,20.4-70.7,0c0,0,1.7-20.3,20.9-24.3C424.9,306.8,405.8,287.5,396.3,183.1z
		"/>
	<path fill="#B357A1" stroke="#010101" stroke-width="1.5048" stroke-miterlimit="10" d="M431,300.6c-1.8-2.4-13.7-24.5-22.1-102.5
		c8.2,1.4,19.1,2.6,31.5,2.6c10.2,0,20-0.8,29.5-2.5c-5.6,54.3-14.6,97.4-21.6,102.9l-8.9,10.5L431,300.6z"/>
	<g>
		<ellipse fill="none" stroke="#010101" stroke-width="1.5829" stroke-miterlimit="10" cx="165.9" cy="192.4" rx="43.9" ry="10.4"/>
		<path fill="#E6E6E5" stroke="#010101" stroke-width="1.5829" stroke-miterlimit="10" d="M121.7,192.8c0,0,10.4,128.4,13.6,131.6
			c0,0,33,18.4,67.1,0l9-131.6C211.3,192.8,164.9,206.9,121.7,192.8z"/>
		<path fill="#F3F3F3" stroke="#010101" stroke-width="1.342" stroke-miterlimit="10" d="M129.3,202.6c0,0,8.6,111.4,11.2,114.2
			c0,0,27.4,16,55.6,0l7.5-114.2C203.7,202.6,165.2,214.9,129.3,202.6z"/>
		<g>
			<polygon fill="#FFFFFF" stroke="#010101" stroke-width="1.3526" stroke-miterlimit="10" points="169.9,192.5 161.9,192.4 
				162.5,142.1 208.4,125.4 211.1,133.1 170.4,147.9 			"/>
		</g>
	</g>
</g>
<rect x="280.2" y="239.2" fill="none" width="51.7" height="45.9"/>
<text transform="matrix(0.9763 0 0 1 280.1844 267.7788)" fill="#010101" font-family="'ProximaNovaSoft-Bold'" font-size="42.4457px">vs.</text>
<path fill="#E6E7E8" d="M537.3,278.9H345.4c-6.2,0-11.2-5.1-11.2-11.2v-28.9c0-6.2,5.1-11.2,11.2-11.2h191.8
	c6.2,0,11.2,5.1,11.2,11.2v28.9C548.5,273.8,543.5,278.9,537.3,278.9z"/>
<path fill="#E6E7E8" d="M266.6,278.9H74.7c-6.2,0-11.2-5.1-11.2-11.2v-28.9c0-6.2,5.1-11.2,11.2-11.2h191.8
	c6.2,0,11.2,5.1,11.2,11.2v28.9C277.8,273.8,272.7,278.9,266.6,278.9z"/>
<g>
	<rect x="381.7" y="241.4" fill="none" width="149.8" height="37.5"/>
	
		<text transform="matrix(0.9763 0 0 1 381.6834 258.9648)" fill="#010101" font-family="'ProximaNovaSoft-Bold'" font-size="26.1314px">Home Made</text>
</g>
<rect x="88.9" y="240.2" fill="none" width="163.4" height="43"/>
<text transform="matrix(0.9763 0 0 1 88.9265 257.835)" fill="#010101" font-family="'ProximaNovaSoft-Bold'" font-size="26.1314px">Store Bought</text>
<g>
	<rect x="-33.5" y="40.4" fill="none" width="679" height="40.4"/>
	<text transform="matrix(0.9763 0 0 1 94.7246 61.9836)" fill="#ED1C24" font-family="'ProximaNovaSoft-Bold'" font-size="32px">BENEFITS OF HOME JUICING</text>
</g>
</svg>
