<?xml version="1.0" encoding="utf-8"?>
<!-- Generator: Adobe Illustrator 19.2.1, SVG Export Plug-In . SVG Version: 6.00 Build 0)  -->
<!DOCTYPE svg PUBLIC "-//W3C//DTD SVG 1.1//EN" "http://www.w3.org/Graphics/SVG/1.1/DTD/svg11.dtd">
<svg version="1.1" id="Layer_1" xmlns="http://www.w3.org/2000/svg" xmlns:xlink="http://www.w3.org/1999/xlink" x="0px" y="0px"
	 viewBox="0 0 421 221" enable-background="new 0 0 421 221" xml:space="preserve">
<ellipse fill="#F79421" cx="238.8" cy="84.1" rx="36.4" ry="36.1"/>
<path fill="#046937" d="M231.7,48.6c0,0,7.1-20.2,16.2-13.2C256.3,41.9,237,48.6,231.7,48.6z"/>
<ellipse transform="matrix(0.8033 -0.5955 0.5955 0.8033 11.0559 158.4063)" fill="#FFFFFF" cx="245.4" cy="62.5" rx="4.6" ry="8.1"/>
<path fill="#8D633A" d="M229.7,52.6c-1.9,1-5,1.1-5.7-0.3l-4.9-9.9c-0.7-1.4,1.3-3.7,3.3-4.7s5-1.1,5.7,0.3l4.9,9.9
	C233.6,49.3,231.6,51.7,229.7,52.6z"/>
<g>
	<path fill="#ED2224" d="M190.8,82.7c0,0-17.7,10.3-7.4,23.2c9,11.3,19.4,9.6,21.1,9.4s14.4-6,8-26.2
		C212.4,89.1,208.3,73.1,190.8,82.7z"/>
	<path fill="#046937" d="M197.5,89.2c-0.4,0.2-0.9,0.2-1.4,0l-7.4-3c-0.7-0.3-1.1-0.9-1.1-1.7c0-0.7,0.5-1.4,1.2-1.6l9.8-3.5
		c0.9-0.3,1.9,0.2,2.3,1.1c0.3,0.9-0.2,1.9-1.1,2.3l-5.4,1.9l3.1,1.3c0.9,0.4,1.3,1.4,1,2.3C198.2,88.7,197.9,89,197.5,89.2z"/>
	<path fill="#046937" d="M182.3,93.7c-0.7,0.3-1.5,0.2-2-0.4c-0.7-0.7-0.7-1.8,0-2.5l7.8-7.5c0.7-0.7,1.8-0.7,2.5,0
		c0.7,0.7,0.7,1.8,0,2.5l-7.8,7.5C182.7,93.5,182.5,93.6,182.3,93.7z"/>
	<path fill="#046937" d="M188.1,94.8c-0.3,0.2-0.7,0.2-1.1,0.1c-1-0.2-1.5-1.2-1.3-2.1l1.8-7.8l-4.8-6.8c-0.6-0.8-0.4-1.9,0.4-2.5
		c0.8-0.6,1.9-0.4,2.5,0.4l5.2,7.5c0.3,0.4,0.4,0.9,0.3,1.4l-1.9,8.6C189,94.1,188.6,94.6,188.1,94.8z"/>
	
		<ellipse transform="matrix(0.9048 -0.4258 0.4258 0.9048 -21.8808 95.3358)" fill="#FFFFFF" cx="202.3" cy="96.6" rx="1.4" ry="1.4"/>
	
		<ellipse transform="matrix(0.9048 -0.4258 0.4258 0.9048 -21.2335 97.1769)" fill="#FFFFFF" cx="206.7" cy="96.1" rx="1.4" ry="1.4"/>
	
		<ellipse transform="matrix(0.9048 -0.4258 0.4258 0.9048 -22.9653 96.9583)" fill="#FFFFFF" cx="205.4" cy="99.8" rx="1.4" ry="1.4"/>
	
		<ellipse transform="matrix(0.9048 -0.4258 0.4258 0.9048 -19.9052 95.3653)" fill="#FFFFFF" cx="203.3" cy="92.2" rx="1.4" ry="1.4"/>
</g>
<g>
	<path fill="#ED2224" d="M164.1,79.7c0,0-20.4,1.5-16.8,17.6c3.1,14.1,13.2,17.1,14.9,17.6c1.6,0.5,15.5,0.9,18.6-20
		C180.8,94.9,184.1,78.7,164.1,79.7z"/>
	<path fill="#046937" d="M167.3,88.5c-0.5,0-1-0.2-1.3-0.6l-5.3-6c-0.5-0.5-0.6-1.3-0.3-2c0.3-0.7,1-1,1.8-0.9l10.4,1.2
		c1,0.1,1.7,1,1.6,2s-1,1.7-2,1.6l-5.7-0.7l2.2,2.5c0.7,0.7,0.6,1.8-0.1,2.5C168.2,88.3,167.8,88.5,167.3,88.5z"/>
	<path fill="#046937" d="M151.7,85.9c-0.7,0-1.4-0.5-1.7-1.2c-0.3-0.9,0.2-1.9,1.1-2.2l10.3-3.4c0.9-0.3,1.9,0.2,2.2,1.1
		c0.3,0.9-0.2,1.9-1.1,2.2l-10.3,3.4C152.1,85.9,151.9,85.9,151.7,85.9z"/>
	<path fill="#046937" d="M156.5,89.4c-0.4,0-0.8-0.1-1.1-0.4c-0.8-0.6-0.9-1.7-0.3-2.5l5-6.3l-1.3-8.2c-0.2-1,0.5-1.9,1.5-2
		c1-0.2,1.9,0.5,2,1.5l1.4,9c0.1,0.5-0.1,1-0.4,1.4l-5.5,6.9C157.5,89.2,157,89.4,156.5,89.4z"/>
	
		<ellipse transform="matrix(1.257464e-02 -0.9999 0.9999 1.257464e-02 69.0652 264.3893)" fill="#FFFFFF" cx="168.4" cy="97.2" rx="1.4" ry="1.4"/>
	
		<ellipse transform="matrix(1.257464e-02 -0.9999 0.9999 1.257464e-02 71.7695 270.0629)" fill="#FFFFFF" cx="172.6" cy="98.7" rx="1.4" ry="1.4"/>
	
		<ellipse transform="matrix(1.257464e-02 -0.9999 0.9999 1.257464e-02 66.1489 269.9569)" fill="#FFFFFF" cx="169.8" cy="101.5" rx="1.4" ry="1.4"/>
	
		<ellipse transform="matrix(1.257464e-02 -0.9999 0.9999 1.257464e-02 75.4016 263.806)" fill="#FFFFFF" cx="171.3" cy="93.7" rx="1.4" ry="1.4"/>
</g>
<g>
	<path fill="#ED2224" d="M139.3,95.9c0,0-20.4,1.2-16.8,14.1c3.2,11.3,13.3,13.8,14.9,14.2c1.6,0.4,15.5,0.8,18.6-16
		C156,108.2,159.3,95.2,139.3,95.9z"/>
	<path fill="#046937" d="M142.6,103c-0.5,0-1-0.2-1.3-0.5l-5.4-4.8c-0.5-0.4-0.6-1.1-0.3-1.6c0.3-0.5,1-0.8,1.8-0.8l10.4,1
		c1,0.1,1.7,0.8,1.6,1.6c-0.1,0.8-1,1.3-2,1.2l-5.7-0.5l2.2,2c0.7,0.6,0.6,1.5-0.1,2C143.4,102.9,143,103,142.6,103z"/>
	<path fill="#046937" d="M126.9,100.9c-0.7,0-1.4-0.4-1.7-1c-0.3-0.7,0.2-1.5,1.1-1.8l10.3-2.7c0.9-0.2,1.9,0.2,2.2,0.9
		c0.3,0.7-0.2,1.5-1.1,1.8l-10.3,2.7C127.3,100.9,127.1,100.9,126.9,100.9z"/>
	<path fill="#046937" d="M131.7,103.7c-0.4,0-0.8-0.1-1.1-0.3c-0.8-0.5-0.9-1.4-0.3-2l5-5l-1.3-6.6c-0.2-0.8,0.5-1.5,1.5-1.6
		c1-0.1,1.9,0.4,2,1.2l1.4,7.2c0.1,0.4-0.1,0.8-0.4,1.1l-5.5,5.5C132.7,103.5,132.2,103.7,131.7,103.7z"/>
	
		<ellipse transform="matrix(1.257451e-02 -0.9999 0.9999 1.257451e-02 31.8502 252.2443)" fill="#FFFFFF" cx="143.6" cy="110" rx="1.1" ry="1.4"/>
	
		<ellipse transform="matrix(1.257451e-02 -0.9999 0.9999 1.257451e-02 34.8392 257.6437)" fill="#FFFFFF" cx="147.9" cy="111.2" rx="1.1" ry="1.4"/>
	
		<ellipse transform="matrix(1.257451e-02 -0.9999 0.9999 1.257451e-02 29.7882 256.9892)" fill="#FFFFFF" cx="145" cy="113.4" rx="1.1" ry="1.4"/>
	
		<ellipse transform="matrix(1.257451e-02 -0.9999 0.9999 1.257451e-02 37.4747 252.3466)" fill="#FFFFFF" cx="146.5" cy="107.2" rx="1.1" ry="1.4"/>
</g>
<g>
	<path fill="#ED2224" d="M181.9,61.5c0,0-17.9,1.6-14.5,14.6c3,11.4,11.9,13.7,13.4,14c1.5,0.4,13.7,0.5,16-16.6
		C196.8,73.6,199.4,60.4,181.9,61.5z"/>
	<path fill="#046937" d="M184.9,68.6c-0.4,0-0.8-0.1-1.1-0.5l-4.8-4.7c-0.4-0.4-0.5-1.1-0.3-1.6c0.3-0.5,0.9-0.9,1.5-0.8l9.1,0.8
		c0.9,0.1,1.5,0.8,1.4,1.6c-0.1,0.8-0.8,1.4-1.7,1.3l-5-0.4l2,2c0.6,0.6,0.6,1.5-0.1,2C185.6,68.5,185.2,68.6,184.9,68.6z"/>
	<path fill="#046937" d="M171.1,66.8c-0.6,0-1.3-0.4-1.5-1c-0.3-0.7,0.1-1.6,1-1.8l9-2.9c0.8-0.3,1.7,0.1,2,0.9
		c0.3,0.7-0.1,1.6-1,1.8l-9,2.9C171.4,66.8,171.3,66.8,171.1,66.8z"/>
	<path fill="#046937" d="M175.3,69.6c-0.3,0-0.7-0.1-1-0.3c-0.7-0.5-0.8-1.4-0.3-2l4.3-5.2l-1.3-6.6c-0.2-0.8,0.4-1.5,1.3-1.7
		c0.8-0.1,1.7,0.4,1.8,1.2l1.4,7.3c0.1,0.4,0,0.8-0.3,1.1l-4.7,5.7C176.2,69.4,175.8,69.6,175.3,69.6z"/>
	
		<ellipse transform="matrix(1 -8.045840e-03 8.045840e-03 1 -0.603 1.4986)" fill="#FFFFFF" cx="185.9" cy="75.7" rx="1.2" ry="1.1"/>
	
		<ellipse transform="matrix(1 -8.045840e-03 8.045840e-03 1 -0.6118 1.5287)" fill="#FFFFFF" cx="189.7" cy="76.8" rx="1.2" ry="1.1"/>
	
		<ellipse transform="matrix(1 -8.045840e-03 8.045840e-03 1 -0.6305 1.5089)" fill="#FFFFFF" cx="187.2" cy="79.1" rx="1.2" ry="1.1"/>
	
		<ellipse transform="matrix(1 -8.045840e-03 8.045840e-03 1 -0.5797 1.5183)" fill="#FFFFFF" cx="188.4" cy="72.8" rx="1.2" ry="1.1"/>
</g>
<g>
	<path fill="#ED2224" d="M178.7,99.2c0,0-12.8,11.5-2.5,19.9c9,7.3,17.3,4.1,18.6,3.5c1.3-0.5,10.8-7.4,2.5-22.3
		C197.3,100.3,191.5,88.3,178.7,99.2z"/>
	<path fill="#046937" d="M185.2,103.2c-0.3,0.2-0.7,0.4-1.2,0.3l-6.5-1c-0.6-0.1-1.1-0.5-1.2-1.1c-0.1-0.6,0.2-1.2,0.7-1.5l7.5-4.6
		c0.7-0.4,1.6-0.2,2,0.4c0.4,0.7,0.2,1.6-0.5,2l-4.1,2.5l2.7,0.4c0.8,0.1,1.3,0.9,1.1,1.7C185.7,102.6,185.5,103,185.2,103.2z"/>
	<path fill="#046937" d="M173.5,109.6c-0.5,0.4-1.2,0.4-1.7,0.1c-0.7-0.4-0.8-1.3-0.3-2l5.2-7.4c0.5-0.7,1.4-0.9,2-0.4
		c0.7,0.4,0.8,1.3,0.3,2l-5.2,7.4C173.8,109.4,173.6,109.5,173.5,109.6z"/>
	<path fill="#046937" d="M178.4,109.4c-0.3,0.2-0.6,0.3-0.9,0.3c-0.8,0-1.4-0.6-1.4-1.4l0.2-6.6l-4.9-4.5c-0.6-0.5-0.6-1.4,0-2
		c0.6-0.6,1.5-0.6,2.1-0.1l5.4,5c0.3,0.3,0.5,0.7,0.4,1.1l-0.3,7.2C179,108.7,178.8,109.1,178.4,109.4z"/>
	
		<ellipse transform="matrix(0.7977 -0.6031 0.6031 0.7977 -26.752 136.5988)" fill="#FFFFFF" cx="190.2" cy="108.2" rx="1.2" ry="1.1"/>
	
		<ellipse transform="matrix(0.7977 -0.6031 0.6031 0.7977 -25.285 138.479)" fill="#FFFFFF" cx="193.7" cy="106.9" rx="1.2" ry="1.1"/>
	
		<ellipse transform="matrix(0.7977 -0.6031 0.6031 0.7977 -27.3528 138.8194)" fill="#FFFFFF" cx="193.2" cy="110.2" rx="1.2" ry="1.1"/>
	
		<ellipse transform="matrix(0.7977 -0.6031 0.6031 0.7977 -24.4799 135.9597)" fill="#FFFFFF" cx="190.4" cy="104.5" rx="1.2" ry="1.1"/>
</g>
<g>
	<rect x="17.8" y="150.3" fill="none" width="385.4" height="62.6"/>
	<text transform="matrix(1 0 0 1 17.8155 161.1132)"><tspan x="0" y="0" fill="#010101" font-family="'ProximaNovaSoft-Regular'" font-size="16px">Juices are concentrates! If you’re worried about mini</tspan><tspan x="365.5" y="0" fill="#010101" font-family="'ProximaNovaSoft-Regular'" font-size="16px">-</tspan><tspan x="0" y="19.2" fill="#010101" font-family="'ProximaNovaSoft-Regular'" font-size="16px">mizing calories and maximizing nutriontial content, </tspan><tspan x="0" y="38.4" fill="#010101" font-family="'ProximaNovaSoft-Regular'" font-size="16px">juices vegetables and add fruit only for flavor</tspan></text>
</g>
<path fill="#FAED24" d="M293.8,38.4c-5.2,4.2-7.9,10.8-7.7,17.5c0.2,6.3,0.8,6.7-3,16.7c-2.1,5.6-9.4,25.4,4.6,33.1
	s50.9-6.1,50.9-18.6c0-12.4-5.6-19.6-15.1-29.2C319.7,54,309.3,25.6,293.8,38.4z"/>
<ellipse transform="matrix(0.9597 -0.281 0.281 0.9597 -13.5534 86.0961)" fill="#FFFFFF" cx="293.4" cy="90.3" rx="6.1" ry="13.1"/>
<g>
	<path fill="#F15C27" d="M37.6,108.2c0,0,4.5,15.1,18.7,16.5s50.5,0,58.6-13.8c3.4-12.6-44.5-22.1-60.4-20.1
		C36.6,91.7,35.9,100.3,37.6,108.2z"/>
	<path fill="#079247" d="M44.6,110.8c-0.3,0.6-1,0.9-1.9,0.8l-26.4-2c-1.4-0.1-2.8-1.3-3.1-2.6c-0.3-1.3,0.4-1.9,1.8-1.8l18.2,1.8
		l-12.5-8.3c-1.3-0.9-1.8-2.6-1.2-3.6s2.3-1.3,3.6-0.4L43,107.8c1,0.7,1.8,1.6,1.7,2.5C44.7,110.6,44.8,110.6,44.6,110.8z"/>
	<path fill="#3DB54A" d="M44.6,110.8c-0.1,0.2-0.3,0.4-0.5,0.6l-17.5,10.9c-1,0.6-2.7,0.2-3.7-1c-1-1.2-1-2.7,0-3.3L40.4,107
		c1-0.6,2.7-0.2,3.7,1C44.9,108.9,45.1,110,44.6,110.8z"/>
	<path fill="none" d="M50.2,91.2c0,0,8.4,11.4,7.7,18.6"/>
</g>
<g>
	<g>
		<path fill="#C1282D" d="M359.6,56.8c0,0-36.8-11.7-32,26.7c4.8,38.4,32,35.2,35,32.6c3-2.6,23.1,19.3,36.4-16.7
			S390.2,33.8,359.6,56.8z"/>
		<g>
			<path fill="#603A17" d="M360.4,63.9c-1.2,0-2.3-0.7-2.8-2c-2.8-7,1.4-20.4,1.9-21.9c0.6-1.7,2.3-2.6,3.8-2
				c1.6,0.6,2.4,2.5,1.8,4.2c-1.7,5.1-3.4,13.8-2.1,17.2c0.7,1.7-0.1,3.6-1.6,4.3C361.2,63.9,360.8,63.9,360.4,63.9z"/>
		</g>
	</g>
	<path fill="#FFFFFF" d="M341.6,84c1.2,6.5,0.6,12.1-1.4,12.6c-2,0.5-4.7-4.4-5.9-10.9c-1.2-6.5-0.6-12.1,1.4-12.6
		C337.7,72.7,340.3,77.6,341.6,84z"/>
</g>
<g>
	
		<ellipse transform="matrix(0.9995 -3.274768e-02 3.274768e-02 0.9995 -3.9312 8.9849)" fill="#EC2227" cx="272.3" cy="124.5" rx="9.8" ry="9.9"/>
	<path fill="#FFFFFF" d="M268.6,127.3c1.6,2,2.2,4.1,1.5,4.7c-0.8,0.7-2.7-0.4-4.3-2.3c-1.6-2-2.2-4.1-1.5-4.7
		C265.1,124.3,267,125.3,268.6,127.3z"/>
	
		<ellipse transform="matrix(0.9995 -3.274768e-02 3.274768e-02 0.9995 -3.8612 9.5081)" fill="#EC2227" cx="288.3" cy="122.6" rx="11.5" ry="11.6"/>
	<path fill="#FFFFFF" d="M285.3,126.2c2,2.4,2.8,5,1.8,5.8c-1,0.8-3.4-0.5-5.3-2.9c-2-2.4-2.8-5-1.8-5.8
		C281,122.5,283.3,123.8,285.3,126.2z"/>
	<g>
		<path fill="#754D25" d="M272.2,119.9c-0.8,0-1.6-0.6-1.7-1.4c-1.1-6.1,0.8-12.6,5.3-18.9c3.4-4.6,7-7.5,7.2-7.6
			c0.6-0.5,1.4-0.5,2,0c0.6,0.4,0.9,1.2,0.6,1.9c0,0.1-4.4,14,2.3,20.3c0.7,0.6,0.7,1.7,0.1,2.4c-0.6,0.7-1.7,0.7-2.4,0.1
			c-5.2-5-5.2-12.9-4.4-18.3c-3.8,4.2-8.9,11.5-7.4,19.6c0.2,0.9-0.4,1.8-1.3,2C272.3,119.9,272.3,119.9,272.2,119.9z"/>
	</g>
</g>
<path fill="#8D633A" d="M299.7,41.6c-1.1,0.5-3.1,0.1-3.8-1.2l-4.9-9.9c-0.7-1.4,0.2-3.2,1.3-3.7c1.1-0.5,3.1-0.1,3.8,1.2l4.9,9.9
	C301.7,39.2,300.8,41,299.7,41.6z"/>
</svg>
