<?xml version="1.0" encoding="utf-8"?>
<!-- Generator: Adobe Illustrator 19.2.1, SVG Export Plug-In . SVG Version: 6.00 Build 0)  -->
<!DOCTYPE svg PUBLIC "-//W3C//DTD SVG 1.1//EN" "http://www.w3.org/Graphics/SVG/1.1/DTD/svg11.dtd">
<svg version="1.1" id="Layer_1" xmlns="http://www.w3.org/2000/svg" xmlns:xlink="http://www.w3.org/1999/xlink" x="0px" y="0px"
	 viewBox="0 0 421 221" enable-background="new 0 0 421 221" xml:space="preserve">
<g>
	<ellipse fill="none" cx="230.9" cy="77.3" rx="23.4" ry="4.6"/>
	<path fill="#046937" d="M205.7,65.1c0,0-7.5,3.3-8.6-4.9c0,0-4.8-3.6-0.4-5.5c0,0-1-6.3,5.5-4.5c0,0,6.3-2.8,7.3,2.2
		c0,0,5.9,1.7,2.4,9.9L205.7,65.1z"/>
	<polygon fill="#8DC641" points="236.5,92.9 228.4,97.4 203.7,64.2 211.7,59.7 	"/>
	<line fill="none" x1="229.6" y1="93.9" x2="206.9" y2="64.2"/>
	<line fill="none" x1="232.6" y1="92.5" x2="210" y2="62.8"/>
	<path fill="#046937" d="M216.9,60.3c0,0-8.1,2-7.4-6.2c0,0-4-4.3,0.8-5.5c0,0,0.4-6.4,6.3-3.5c0,0,6.8-1.8,6.7,3.3
		c0,0,5.4,2.6,0.2,10.1L216.9,60.3z"/>
	<polygon fill="#8DC641" points="241,92.6 232.1,95.7 215,59.1 223.9,56 	"/>
	<line fill="none" x1="234" y1="92.5" x2="218.2" y2="59.7"/>
	<line fill="none" x1="237.3" y1="91.6" x2="221.6" y2="58.7"/>
	<g>
		<path fill="#F15C27" d="M243.9,48.9c0,0-8.7,1.3-10.5,8.4c-1.8,7.1-3.7,25.5,3.4,30.5c6.8,2.6,15.5-21,15.6-29.2
			C253.1,49.5,248.4,48.5,243.9,48.9z"/>
		<path fill="#079247" d="M241.9,52.3c-0.3-0.2-0.4-0.6-0.3-1l3-13.2c0.2-0.7,0.9-1.3,1.7-1.4c0.8-0.1,1,0.3,0.9,1l-2.4,9.1l5.5-5.8
			c0.6-0.6,1.6-0.7,2.1-0.4c0.5,0.4,0.6,1.2,0,1.8l-8.8,9.2c-0.5,0.5-1,0.8-1.5,0.7C242,52.3,242,52.3,241.9,52.3z"/>
		<path fill="#3DB54A" d="M241.9,52.3c-0.1-0.1-0.2-0.2-0.3-0.3l-4.8-9.6c-0.3-0.6,0.1-1.4,0.8-1.8c0.7-0.4,1.6-0.3,1.8,0.2l4.8,9.6
			c0.3,0.6-0.1,1.4-0.8,1.8C242.9,52.5,242.3,52.5,241.9,52.3z"/>
		<path fill="none" d="M252.4,56.4c0,0-7,3.5-10.9,2.7"/>
	</g>
	<path fill="#E6E6E5" d="M207.3,77.5c0,0,5.6,57.4,7.2,58.9c0,0,17.6,8.2,35.8,0l4.8-58.9C255.1,77.5,230.3,83.8,207.3,77.5z"/>
	<path fill="#F79421" d="M211.4,81.9c0,0,4.6,49.8,6,51.1c0,0,14.6,7.1,29.6,0l4-51.1C251,81.9,230.5,87.4,211.4,81.9z"/>
</g>
<g>
	<ellipse fill="none" cx="301.6" cy="65.2" rx="23.4" ry="4.6"/>
	<path fill="#046937" d="M276.4,52.9c0,0-7.5,3.3-8.6-4.9c0,0-4.8-3.6-0.4-5.5c0,0-1-6.3,5.5-4.5c0,0,6.3-2.8,7.3,2.2
		c0,0,5.9,1.7,2.4,9.9L276.4,52.9z"/>
	<polygon fill="#8DC641" points="307.2,80.8 299.1,85.2 274.3,52 282.4,47.6 	"/>
	<line fill="none" x1="300.3" y1="81.7" x2="277.6" y2="52.1"/>
	<line fill="none" x1="303.3" y1="80.3" x2="280.7" y2="50.6"/>
	<path fill="#046937" d="M287.5,48.2c0,0-8.1,2-7.4-6.2c0,0-4-4.3,0.8-5.5c0,0,0.4-6.4,6.3-3.5c0,0,6.8-1.8,6.7,3.3
		c0,0,5.4,2.6,0.2,10.1L287.5,48.2z"/>
	<polygon fill="#8DC641" points="311.7,80.5 302.8,83.5 285.7,46.9 294.6,43.9 	"/>
	<line fill="none" x1="304.7" y1="80.3" x2="288.9" y2="47.5"/>
	<line fill="none" x1="308" y1="79.4" x2="292.2" y2="46.6"/>
	<g>
		<path fill="#F15C27" d="M314.6,36.7c0,0-8.7,1.3-10.5,8.4s-3.7,25.5,3.4,30.5c6.8,2.6,15.5-21,15.6-29.2
			C323.8,37.3,319.1,36.4,314.6,36.7z"/>
		<path fill="#079247" d="M312.6,40.1c-0.3-0.2-0.4-0.6-0.3-1l3-13.2c0.2-0.7,0.9-1.3,1.7-1.4c0.8-0.1,1,0.3,0.9,1l-2.4,9.1l5.5-5.8
			c0.6-0.6,1.6-0.7,2.1-0.4c0.5,0.4,0.6,1.2,0,1.8l-8.8,9.2c-0.5,0.5-1,0.8-1.5,0.7C312.7,40.1,312.7,40.2,312.6,40.1z"/>
		<path fill="#3DB54A" d="M312.6,40.1c-0.1-0.1-0.2-0.2-0.3-0.3l-4.8-9.6c-0.3-0.6,0.1-1.4,0.8-1.8c0.7-0.4,1.6-0.3,1.8,0.2l4.8,9.6
			c0.3,0.6-0.1,1.4-0.8,1.8C313.6,40.4,313,40.4,312.6,40.1z"/>
		<path fill="none" d="M323.1,44.2c0,0-7,3.5-10.9,2.7"/>
	</g>
	<path fill="#E6E6E5" d="M278,65.3c0,0,5.6,57.4,7.2,58.9c0,0,17.6,8.2,35.8,0l4.8-58.9C325.8,65.3,301,71.7,278,65.3z"/>
	<path fill="#F79421" d="M282.1,69.7c0,0,4.6,49.8,6,51.1c0,0,14.6,7.1,29.6,0l4-51.1C321.7,69.7,301.2,75.2,282.1,69.7z"/>
</g>
<g>
	<ellipse fill="none" cx="370.1" cy="76.8" rx="23.4" ry="4.6"/>
	<path fill="#046937" d="M345,64.6c0,0-7.5,3.3-8.6-4.9c0,0-4.8-3.6-0.4-5.5c0,0-1-6.3,5.5-4.5c0,0,6.3-2.8,7.3,2.2
		c0,0,5.9,1.7,2.4,9.9L345,64.6z"/>
	<polygon fill="#8DC641" points="375.7,92.4 367.7,96.9 342.9,63.7 351,59.2 	"/>
	<line fill="none" x1="368.8" y1="93.4" x2="346.1" y2="63.7"/>
	<line fill="none" x1="371.8" y1="92" x2="349.3" y2="62.3"/>
	<path fill="#046937" d="M356.1,59.9c0,0-8.1,2-7.4-6.2c0,0-4-4.3,0.8-5.5c0,0,0.4-6.4,6.3-3.5c0,0,6.8-1.8,6.7,3.3
		c0,0,5.4,2.6,0.2,10.1L356.1,59.9z"/>
	<polygon fill="#8DC641" points="380.2,92.2 371.3,95.2 354.3,58.6 363.2,55.6 	"/>
	<line fill="none" x1="373.3" y1="92" x2="357.4" y2="59.2"/>
	<line fill="none" x1="376.5" y1="91.1" x2="360.8" y2="58.3"/>
	<g>
		<path fill="#F15C27" d="M383.1,48.4c0,0-8.7,1.3-10.5,8.4s-3.7,25.5,3.4,30.5c6.8,2.6,15.5-21,15.6-29.2
			C392.4,49,387.6,48,383.1,48.4z"/>
		<path fill="#079247" d="M381.2,51.8c-0.3-0.2-0.4-0.6-0.3-1l3-13.2c0.2-0.7,0.9-1.3,1.7-1.4c0.8-0.1,1,0.3,0.9,1l-2.4,9.1l5.5-5.8
			c0.6-0.6,1.6-0.7,2.1-0.4c0.5,0.4,0.6,1.2,0,1.8l-8.8,9.2c-0.5,0.5-1,0.8-1.5,0.7C381.3,51.8,381.3,51.9,381.2,51.8z"/>
		<path fill="#3DB54A" d="M381.2,51.8c-0.1-0.1-0.2-0.2-0.3-0.3l-4.8-9.6c-0.3-0.6,0.1-1.4,0.8-1.8c0.7-0.4,1.6-0.3,1.8,0.2l4.8,9.6
			c0.3,0.6-0.1,1.4-0.8,1.8C382.2,52,381.6,52.1,381.2,51.8z"/>
		<path fill="none" d="M391.7,55.9c0,0-7,3.5-10.9,2.7"/>
	</g>
	<path fill="#E6E6E5" d="M346.5,77c0,0,5.6,57.4,7.2,58.9c0,0,17.6,8.2,35.8,0l4.8-58.9C394.3,77,369.6,83.3,346.5,77z"/>
	<path fill="#F79421" d="M350.6,81.4c0,0,4.6,49.8,6,51.1c0,0,14.6,7.1,29.6,0l4-51.1C390.2,81.4,369.7,86.9,350.6,81.4z"/>
</g>
<g>
	<ellipse fill="none" cx="58.7" cy="58.5" rx="22.9" ry="3.2"/>
	<g>
		<polygon fill="#FFFFFF" points="57.6,76.1 43.9,31.3 24,38.3 21.8,33.7 30.6,30.6 47.8,24.6 63.1,74.8 		"/>
	</g>
	<g>
		<path fill="#ED2224" d="M48.5,49.5c0,0-14.2,1.1-11.5,10.6c2.3,8.4,9.3,10.1,10.5,10.4c1.1,0.3,10.8,0.4,12.8-12.1
			C60.2,58.4,62.4,48.7,48.5,49.5z"/>
		<path fill="#046937" d="M50.8,54.7c-0.3,0-0.7-0.1-0.9-0.3l-3.8-3.5c-0.3-0.3-0.4-0.8-0.2-1.2c0.2-0.4,0.7-0.6,1.2-0.6l7.2,0.6
			c0.7,0.1,1.2,0.6,1.1,1.2c-0.1,0.6-0.7,1-1.3,0.9l-4-0.4l1.6,1.5c0.5,0.4,0.4,1.1-0.1,1.5C51.4,54.6,51.1,54.7,50.8,54.7z"/>
		<path fill="#046937" d="M39.9,53.3c-0.5,0-1-0.3-1.2-0.7c-0.2-0.6,0.1-1.2,0.8-1.3l7.1-2.1c0.6-0.2,1.3,0.1,1.6,0.7
			c0.2,0.6-0.1,1.2-0.8,1.3l-7.1,2.1C40.2,53.2,40.1,53.3,39.9,53.3z"/>
		<path fill="#046937" d="M43.3,55.3c-0.3,0-0.5-0.1-0.8-0.2c-0.5-0.4-0.6-1-0.2-1.5l3.4-3.8l-1-4.9c-0.1-0.6,0.3-1.1,1-1.2
			c0.7-0.1,1.3,0.3,1.4,0.9l1.1,5.3c0.1,0.3,0,0.6-0.2,0.8l-3.8,4.2C44,55.2,43.6,55.3,43.3,55.3z"/>
		<ellipse fill="#FFFFFF" cx="51.6" cy="59.9" rx="1" ry="0.8"/>
		<ellipse fill="#FFFFFF" cx="54.6" cy="59.1" rx="1" ry="0.8"/>
		<ellipse fill="#FFFFFF" cx="55.6" cy="55.3" rx="1" ry="0.8"/>
		<ellipse fill="#FFFFFF" cx="52.6" cy="57" rx="1" ry="0.8"/>
	</g>
	<g>
		<ellipse fill="#EC2227" cx="59.3" cy="61.3" rx="7.7" ry="6.6"/>
		<path fill="#FFFFFF" d="M56.3,63c1.2,1.3,1.7,2.8,1,3.2c-0.6,0.4-2.1-0.3-3.3-1.7c-1.2-1.3-1.7-2.8-1-3.2
			C53.7,61,55.1,61.7,56.3,63z"/>
		<ellipse fill="#EC2227" cx="71.9" cy="60.4" rx="9" ry="7.7"/>
		<path fill="#FFFFFF" d="M69.4,62.7c1.5,1.6,2,3.4,1.3,3.9c-0.8,0.5-2.6-0.4-4.1-2c-1.5-1.6-2-3.4-1.3-3.9
			C66.1,60.1,67.9,61,69.4,62.7z"/>
		<g>
			<path fill="#754D25" d="M59.3,58.2c-0.6,0-1.2-0.4-1.3-1c-0.7-4.1,0.9-8.4,4.6-12.5c2.8-3,5.7-4.9,5.8-4.9c0.5-0.3,1.1-0.3,1.6,0
				c0.5,0.3,0.6,0.8,0.4,1.3c0,0.1-3.8,9.2,1.3,13.6c0.5,0.4,0.5,1.2,0,1.6c-0.5,0.4-1.3,0.4-1.9,0c-4-3.4-3.7-8.7-3-12.3
				c-3.1,2.7-7.2,7.5-6.3,12.9c0.1,0.6-0.4,1.2-1.1,1.3C59.5,58.2,59.4,58.2,59.3,58.2z"/>
		</g>
	</g>
	<polygon fill="#ED2224" points="21.8,33.7 24,38.3 32,35.5 33.6,29.5 	"/>
	<polyline fill="#ED2224" points="37.4,33.5 38.7,27.8 44.5,25.7 43.9,31.3 37.9,33.5 	"/>
	<polygon fill="#ED2224" points="49.5,30.3 45.3,35.9 46.4,39.6 50.7,34.3 	"/>
	<polygon fill="#ED2224" points="52,38.8 47.7,44.3 48.9,48.1 53.2,42.8 	"/>
	<path fill="#E6E6E5" d="M35.9,58.5c0,0,22.2,6.1,45.7,0c0,0-4.7,52.4-15.1,59.6c0,0,11.1,5.8,11,11.7c0,0-15.4,9.9-37.6,0
		c0,0,0.9-9.8,11.1-11.7C51,118.2,40.9,108.9,35.9,58.5z"/>
	<path fill="#B357A1" d="M54.2,115.2c-1-1.2-7.3-11.8-11.7-49.4c4.4,0.7,10.1,1.3,16.8,1.3c5.4,0,10.6-0.4,15.7-1.2
		c-3,26.2-7.8,47-11.5,49.6l-4.7,5.1L54.2,115.2z"/>
</g>
<g>
	<ellipse fill="none" cx="119.2" cy="67.5" rx="22.9" ry="3.2"/>
	<g>
		<polygon fill="#FFFFFF" points="118.1,85.1 104.4,40.3 84.5,47.3 82.3,42.7 91.1,39.6 108.3,33.6 123.6,83.8 		"/>
	</g>
	<g>
		<path fill="#ED2224" d="M109,58.5c0,0-14.2,1.1-11.5,10.6c2.3,8.4,9.3,10.1,10.5,10.4s10.8,0.4,12.8-12.1
			C120.7,67.4,122.9,57.7,109,58.5z"/>
		<path fill="#046937" d="M111.3,63.7c-0.3,0-0.7-0.1-0.9-0.3l-3.8-3.5c-0.3-0.3-0.4-0.8-0.2-1.2c0.2-0.4,0.7-0.6,1.2-0.6l7.2,0.6
			c0.7,0.1,1.2,0.6,1.1,1.2c-0.1,0.6-0.7,1-1.3,0.9l-4-0.4l1.6,1.5c0.5,0.4,0.4,1.1-0.1,1.5C111.9,63.6,111.6,63.7,111.3,63.7z"/>
		<path fill="#046937" d="M100.5,62.3c-0.5,0-1-0.3-1.2-0.7c-0.2-0.6,0.1-1.2,0.8-1.3l7.1-2.1c0.6-0.2,1.3,0.1,1.6,0.7
			c0.2,0.6-0.1,1.2-0.8,1.3l-7.1,2.1C100.7,62.3,100.6,62.3,100.5,62.3z"/>
		<path fill="#046937" d="M103.8,64.3c-0.3,0-0.5-0.1-0.8-0.2c-0.5-0.4-0.6-1-0.2-1.5l3.4-3.8l-1-4.9c-0.1-0.6,0.3-1.1,1-1.2
			c0.7-0.1,1.3,0.3,1.4,0.9l1.1,5.3c0.1,0.3,0,0.6-0.2,0.8l-3.8,4.2C104.5,64.2,104.2,64.3,103.8,64.3z"/>
		<ellipse fill="#FFFFFF" cx="112.1" cy="68.9" rx="1" ry="0.8"/>
		<ellipse fill="#FFFFFF" cx="115.1" cy="68.1" rx="1" ry="0.8"/>
		<ellipse fill="#FFFFFF" cx="116.1" cy="64.3" rx="1" ry="0.8"/>
		<ellipse fill="#FFFFFF" cx="113.1" cy="66" rx="1" ry="0.8"/>
	</g>
	<g>
		<ellipse fill="#EC2227" cx="119.8" cy="70.3" rx="7.7" ry="6.6"/>
		<path fill="#FFFFFF" d="M116.9,72.1c1.2,1.3,1.7,2.8,1,3.2c-0.6,0.4-2.1-0.3-3.3-1.7c-1.2-1.3-1.7-2.8-1-3.2
			C114.2,70,115.7,70.7,116.9,72.1z"/>
		<ellipse fill="#EC2227" cx="132.4" cy="69.4" rx="9" ry="7.7"/>
		<path fill="#FFFFFF" d="M129.9,71.7c1.5,1.6,2,3.4,1.3,3.9c-0.8,0.5-2.6-0.4-4.1-2c-1.5-1.6-2-3.4-1.3-3.9
			C126.6,69.1,128.5,70,129.9,71.7z"/>
		<g>
			<path fill="#754D25" d="M119.8,67.2c-0.6,0-1.2-0.4-1.3-1c-0.7-4.1,0.9-8.4,4.6-12.5c2.8-3,5.7-4.9,5.8-4.9
				c0.5-0.3,1.1-0.3,1.6,0c0.5,0.3,0.6,0.8,0.4,1.3c0,0.1-3.8,9.2,1.3,13.6c0.5,0.4,0.5,1.2,0,1.6s-1.3,0.4-1.9,0
				c-4-3.4-3.7-8.7-3-12.3c-3.1,2.7-7.2,7.5-6.3,12.9c0.1,0.6-0.4,1.2-1.1,1.3C120,67.2,119.9,67.2,119.8,67.2z"/>
		</g>
	</g>
	<polygon fill="#ED2224" points="82.3,42.7 84.5,47.3 92.5,44.5 94.1,38.6 	"/>
	<polyline fill="#ED2224" points="98,42.5 99.2,36.8 105,34.7 104.4,40.3 98.4,42.5 	"/>
	<polygon fill="#ED2224" points="110,39.3 105.8,44.9 106.9,48.6 111.3,43.3 	"/>
	<polygon fill="#ED2224" points="112.5,47.8 108.2,53.3 109.4,57.1 113.7,51.8 	"/>
	<path fill="#E6E6E5" d="M96.4,67.5c0,0,22.2,6.1,45.7,0c0,0-4.7,52.4-15.1,59.6c0,0,11.1,5.8,11,11.7c0,0-15.4,9.9-37.6,0
		c0,0,0.9-9.8,11.1-11.7C111.5,127.2,101.4,117.9,96.4,67.5z"/>
	<path fill="#B357A1" d="M114.8,124.2c-1-1.2-7.3-11.8-11.7-49.4c4.4,0.7,10.1,1.3,16.8,1.3c5.4,0,10.6-0.4,15.7-1.2
		c-3,26.2-7.8,47-11.5,49.6l-4.7,5.1L114.8,124.2z"/>
</g>
<g>
	
		<text transform="matrix(1.1024 0 0 1 156.8618 114.1948)" fill="#010101" font-family="'FuturaStd-CondensedBold'" font-size="59.2452px">+</text>
</g>
<rect x="46.7" y="161.2" fill="none" width="349.1" height="53.5"/>
<text transform="matrix(1.1024 0 0 1 46.736 171.9333)"><tspan x="0" y="0" fill="#010101" font-family="'ProximaNovaSoft-Regular'" font-size="16px">A moderate active average adult needs 2 </tspan><tspan x="0" y="19.2" fill="#010101" font-family="'ProximaNovaSoft-Regular'" font-size="16px">cups of fruit and 3 cups of vegetables a day</tspan></text>
</svg>
