<?xml version="1.0" encoding="utf-8"?>
<!-- Generator: Adobe Illustrator 19.2.1, SVG Export Plug-In . SVG Version: 6.00 Build 0)  -->
<!DOCTYPE svg PUBLIC "-//W3C//DTD SVG 1.1//EN" "http://www.w3.org/Graphics/SVG/1.1/DTD/svg11.dtd">
<svg version="1.1" id="Layer_1" xmlns="http://www.w3.org/2000/svg" xmlns:xlink="http://www.w3.org/1999/xlink" x="0px" y="0px"
	 width="632.8px" height="101.5px" viewBox="0 0 632.8 101.5" enable-background="new 0 0 632.8 101.5" xml:space="preserve">
<path fill="#E0090A" d="M281.5,36.4c-0.1-0.1-0.2-0.1-0.3-0.2c-0.2-0.8-0.3-1.6-1-2.1c0.1-0.6,0-1.1-0.7-1.3c-0.4-1.3-0.9-2.5-2-3.4
	c0-0.1-0.1-0.3-0.2-0.4c-2.6-2.8-5.2-5.6-8.6-7.5c-5.9-3.5-12.2-5-19-4.5c-0.4,1.2-1.4,0.4-2.1,0.6c-0.8,0-1.6,0-2.4,0
	c-0.3,0-0.7,0-1,0.1c-6.8,1.8-12.7,5.1-17.3,10.6c-2.8,3.3-4.8,7.1-5.5,11.4c-0.4,1.4,0,2.8-0.6,4.2c0,2.6-0.2,5.2,0.3,7.9
	c1.4,8,5.3,14.5,11.9,19.4c2,1.5,2,1.4,3.5-0.5c2.5-3.2,6.4-2.8,8,0.8c0.3,0.6,0.1,1.6,1.3,1.5c1.1-0.1,1.9-0.5,2.4-1.6
	c1-2.3,3.2-3.1,5.3-2c0.9,0.5,1.5,1.2,2.1,2c1.6,2.4,2.2,2.4,4.3,0.2c0.3-0.4,0.6-0.8,1-1.2c1.9-2,5.6-1.7,6.6,0.7
	c0.8,2.1,1.6,1.1,2.7,0.5c0.3-0.2,0.5-0.5,0.8-0.8c3.9-2.7,7-6.2,8.9-10.4C283.4,52.7,284,44.7,281.5,36.4z M258.2,38.2
	c0.2,0.7,0.2,1.3,0,2c-0.3,1.5-0.9,2.9-2.2,3.8c-2.2,3-5.8,2.5-7.9,0.5c-3.6-3.3-3.6-10.3,0-13.7c2.5-2.3,5.7-2.2,8.1,0.4
	c1.8,2,2.4,4.4,2.3,7C258.3,38.2,258.2,38.3,258.2,38.2z M280.6,36.6c-0.3,0.8-0.2,1.6-0.2,2.4c0.2,0.6,0.1,1.1-0.2,1.7
	c-0.2,1.5-1,2.8-2.2,3.7c-0.3,0.1-0.5,0.2-0.8,0.2l0,0c-2.2,1.6-4.8,1.4-6.7-0.6c-3.1-3.2-3.1-9.1-0.1-12.4c1.5-1.6,3.5-2.1,5.6-1.3
	c0.4,0.1,0.8,0.4,1.3,0.2l0,0c0.6,0.9,1.1,1.8,1.7,2.7c0.4,0.6,0.7,1.2,1,1.8c0.2,0.5,0.3,1.1,0.5,1.6
	C280.6,36.5,280.6,36.5,280.6,36.6C280.6,36.5,280.6,36.6,280.6,36.6z"/>
<path fill="#05CF05" d="M109.2,84.4c-13.4,0.3-23.7-4.9-29.9-17c-3-5.8-3.7-12-2.7-18.5c1.1-6.9,4.4-12.4,9.5-16.8
	c7-6,15.3-8.7,24.6-7.7c10.1,1.1,18,5.9,23.4,14.5c5.2,8.4,5.8,17.4,2.1,26.6c-3.2,7.9-8.9,13.3-16.7,16.5c-2,0.9-4.1,1.6-6.4,1.8
	C111.8,84,110.5,84.2,109.2,84.4z"/>
<path fill="#FDDA29" d="M522.9,25.9c4.3,0.6,7.9,2.7,11.2,5.4c1.7,1.3,3.2,2.7,4.5,4.3c0.2,0.2,0.2,0.4,0,0.6
	c-3.7,2.3-7.1,5-10.5,7.6c-3.8,2.9-7.6,5.8-11.4,8.7c-1.7,1.3-1.7,1.4,0,2.7c4.2,3.4,8.5,6.7,12.7,10c2.6,2.1,5.2,4.3,7.9,6.4
	c1,0.8,1.3,1.5,0.2,2.7c-4.2,4.3-8.9,7.4-14.9,8.2c-2.5,0.3-5.1,0.9-7.6,1.2c-3.4,0.4-6.7-0.6-9.9-1.6c-3.9-1.3-7.2-3.5-10.2-6.2
	c-3.2-2.9-5.5-6.5-7.2-10.6c-1.8-4.5-2.4-9.1-2-13.9c0.5-0.9,0.3-1.9,0.6-2.8c-0.1-1.7,0.7-3.2,1.4-4.6c2-3.7,3.8-7.6,6.9-10.6
	c5-5,11-7.7,18-8.6c2.8-0.4,5.4,0,8.1,0.4C521.4,25.6,522.2,25.4,522.9,25.9z"/>
<path fill="#FDDA29" d="M306.3,59.7c0,0.2,0,0.5,0,0.7c0.4,1.1-0.1,2.4,0.7,3.4c1,2.6,2.4,4.8,5.1,5.9c0.4,0.1,0.7,0.2,1.1,0.4
	c1.7,0.9,1,2.4,1,3.8c-0.1,0.8-0.7,1.5-0.5,2.4c0.1-0.4,0.1-0.7,0.2-1c0.5-0.8,0.4-1.8,0.5-2.7c0.1-1.4,0.6-2.3,2.2-2.1
	c0.5,0.1,1-0.1,1.5-0.3c0.2,0,0.5,0,0.7,0c0.6,0.4,1.1,0.1,1.6-0.2c0.1-0.1,0.3-0.2,0.4-0.2c0.6-0.3,1.1-0.7,1.8-0.4
	c1.5,0.8,2.5,2.3,3.8,3.3c0.1,0,0.2,0.3,0.4,0.2c0.2-0.1,0,0.1-0.1-0.1c-1.3-1.2-2.5-2.5-3.9-3.6c0.1-1.8,0.8-2.2,2.3-1.3
	c0.1,0,0.2,0.1,0.2,0.2c0.1-0.2-0.2-0.2-0.3-0.3c-0.6-0.7-1.4-1.3-0.9-2.3c0.2-0.3,0.5-0.4,0.9-0.5c1.4-0.1,2.6,0.6,3.9,0.9
	c0.6,0.2,1.2,0.3,1.9,0.6c-0.5-0.3-0.9-0.5-1.3-0.5c-0.9-0.1-1.8-0.5-2.6-0.9c-0.6-0.6-1.6-0.3-2.1-0.9c-0.4-0.8-0.3-1.5,0.1-2.3
	c0.3-0.6,0.2-1.2,0.3-1.8c0-0.7,0-1.3,0-2s0-1.3,0-2c0-0.3,0-0.6,0-0.9c0-0.5,0-1,0-1.5c0-1,0-2,0-3c0.3-1.6-0.1-3.3,0-4.9
	c0.1-0.8,0-1.7,1-1.9c0.8-0.1,1.7,0,2.5,0c0.4,0,0.8,0,1.2,0c-0.3,0-0.7,0-1,0c-0.2,0-0.5,0-0.7,0c-2.7-0.1-3.1,0.6-2.8-2.8
	c0.5-0.4,0.3-1.1,0.7-1.5c0.4-0.5,1.2-0.5,1.6-1c0.5-0.2,1.1-0.2,1.4-0.7c0.4-0.2,0.9-0.2,1.3-0.4c0.5-0.2,1-0.4,1.4-0.7
	s0.8-0.4,1.3-0.4c0.2-0.1,0.4-0.1,0.4-0.3c0-0.1-0.2,0.1-0.3,0.1c-0.7,0.1-1.3,0.3-1.9,0.7c-0.5,0.2-1,0.4-1.4,0.7
	c-0.3,0.1-0.8,0.1-1,0.5c-0.3,0.3-0.7,0.3-1.1,0.4c-0.5,0.3-1,0.8-1.7,0.6c-0.8-0.3-0.8-1-0.8-1.7c0.6-2.6-0.4-5.2-0.1-7.8
	c0.1-2,0.4-2.3,2.4-2.3c2.9,0,5.7,0,8.6,0c0.7,0,1.3,0,2.2,0.9c-2.1,0.3-3.9,0.1-5.3,0.1c1.7,0.2,3.8-0.2,5.9,0.2
	c0.3,0.6,0.2,1.2,0.2,1.9c0,7,0,14,0,21c0,0.7,0.2,1.5-0.5,2.1c-1.7,0.6-2.8-0.7-4.3-1.1c-0.3-0.1-0.7-0.1-1-0.2
	c-0.3-0.1-0.6-0.5-1-0.5c-0.4-0.1-0.7-0.1-1.1-0.2c-0.2,0-0.3-0.2-0.4-0.1c0.1,0.1,0.3,0.1,0.4,0.2c0.2,0,0.4,0.1,0.7,0.1
	c0.5,0.2,1,0.5,1.5,0.6c0.3,0,0.5,0.1,0.7,0.1c1.4,0.5,2.8,1.2,4.3,1.3c0.6,0.3,0.6,0.9,0.6,1.5c0,1.1,0,2.1,0,3.2
	c0.1,1.2-0.4,1.8-1.5,2c-0.5,0.1-1,0.1-1.5,0.1c-1.3,0.2-2.6,0.9-3.9,0.6c-0.3,0-0.5-0.2-0.8,0c-0.1,0-0.1,0.1,0,0.2
	c0.3,0.1,0.5,0,0.8,0c1.4,0,2.7-0.2,3.9-0.7c0.6-0.1,1.2,0,1.8-0.1c1.1,0.2,1.4,0.8,0.9,1.8c0.1,4-0.8,7.8-2.8,11.3
	c-0.7,0.4-1,1.1-1.3,1.8c-1.6,2.9-4,5-7.1,6.2c-1.3,0.4-2.6,0.8-3.9,1.3V83c-0.5,0.3-1,0.3-1.5,0.3c-3.1,0.1-6.1,0.4-9.2,0
	c-0.9-0.6-2-0.6-3-0.6c-3.2-0.7-6.4-1.5-9.2-3.5c-0.3-0.2-0.7-0.4-0.8-0.8c-0.1-0.7-0.4-1.3-1.2-1.3c-1.9-1.2-3.5-2.6-3.5-5.1
	c0.4-0.9,1.2-1.2,2-1.5c0.5-0.2,1.1-0.4,1.6-0.7c0.9-0.2,1.6-0.8,2.4-1.1c-0.1-0.1-0.1,0-0.2,0c-0.9,0.7-2.1,0.7-3,1.3
	c-0.5,0.1-0.9,0.2-1.4,0c-1-0.4-1.5-1.4-1.5-2.3c0.1-3.3-1.1-6.6-0.8-9.9c0-0.6,0-1.1,0.3-1.7c0.7-1,1.9-0.4,2.7-1
	c0.2-0.1,0.4-0.2,0.6-0.2c0-0.1-0.1,0-0.2,0c-0.8,0.1-1.7,0.1-2.5,0.1c-1.5,0-1.4-1.4-1.9-2.2c-0.2-0.3-0.5-0.7-0.8-1
	c0-1.3,0.3-2.7-0.2-4c0-0.2,0.1-0.5,0.2-0.7c0.6-0.7,0-1.3-0.1-1.9c-0.2-1.4-0.1-2.8-0.1-4.2c0.3-1.2,0.2-2.3,0-3.5
	c-0.1-1.4,0.4-2.5,1-3.7c0.4-0.4,1-0.2,1.5-0.3c-1.7,0.2-1.8-0.9-1.8-2.2c0-0.5-0.2-0.9-0.4-1.3c0-0.2,0-0.3,0.1-0.5
	c0.3-0.5,0.4-1.3,1.2-1.5c3.7-0.3,7.4-0.1,11.2-0.1c0.5,0,1,0.1,1.4,0.5c0,2.7,0.3,5.3-0.2,8c0,0.2,0.1,0.4,0.2,0.6
	c-0.3,0.8-0.7,1.4-1.3,2c-0.8,1.1-2.3,0.6-3.2,1.3c1.5-0.2,2.9-1.2,4.5-0.8c0,6.4,0,12.8,0,19.3c-0.1,0-0.1,0.1-0.2,0.1
	c-0.8,0.3-1.6,0.3-2.4,0.3c-1.3,0-2.4,0.8-3.7,0.6c-0.2,0-0.3,0-0.5,0c0,0,0,0,0.2,0c0.7,0,1.4,0.1,2.1-0.1c1.2-0.1,2.4,0,3.5,0
	c0.3,0,0.6,0.1,0.8,0.2C306.2,59.6,306.3,59.6,306.3,59.7z"/>
<path fill="#E0090A" d="M412.2,26.5c3.7-0.5,7.3-0.1,11-0.2c1.4-0.1,1,1,1,1.7c0,10.5,0,21,0,31.5c0,1.4,0,2.7,0.3,4.1
	c0.7,3.9,3.2,6.2,6.8,7c4,0.9,8.1-0.1,10.8-4.1c1.2-1.7,1.4-3.7,1.4-5.7c0-10.8,0-21.7-0.1-32.5c0-1.7,0.5-2.1,2.1-2.1
	c3.4,0.1,6.9,0.1,10.3,0.1c0.5,0.4,0.6,1,0.6,1.6c0,7.7,0.2,15.3-0.1,23c-0.2,0.8-0.4,1.5-0.1,2.3c0.1,4.3,0.8,8.8-0.3,13
	c-1.6,6.2-5.1,11-11.5,13.2c-0.9,0.3-1.8,0.8-2.8,0.8c-0.8-0.1-1.4,0.2-2.1,0.5c-6,0.6-12,0.4-17.6-2.3c-3.4-1.6-6.3-3.9-7.9-7.5
	c-0.7-1.6-1.9-3-2-4.9c-0.1-0.9,0.2-1.9-0.3-2.8c-0.1-0.3-0.3-0.6-0.3-0.9c-0.1-0.6-0.1-1.1-0.1-1.7c0-10.5,0-21.1,0-31.6
	C411.3,28.1,411,27,412.2,26.5z"/>
<path fill="#FDCA70" d="M42.7,74.6c-6.1,0-12.3,0-18.4,0.1c-1.5,0-1.3-0.9-1.3-1.8c0-11.1,0-22.3,0-33.4c0-6.3,0-12.5,0-18.8
	c0-1.4,0.3-1.9,1.8-1.9c6.2,0.1,12.4,0,18.6,0c0.5,0.3,1.1,0.1,1.7,0.2c0.6,0,1.1,0.3,1.7,0.4c11.2,3.1,19,11.9,20.8,23.8
	c1.7,10.9-3.5,23.4-14.8,29.7c-1.3,0.7-2.6,1.3-4,1.4c-1.3,0.3-2.6,0.1-3.9,0.2C44.2,74.6,43.5,74.4,42.7,74.6z"/>
<path fill="#9F006A" d="M219.5,27.4c-2.2,3.1-4.4,6.1-6.6,9.2c-2.5,3.5-5,7-7.6,10.5c-1.7,2.3-3.3,4.6-5.1,6.8
	c-0.6,0.7-0.7,1.5-0.7,2.4c0,8.5,0,17-0.1,25.4c-0.9,0.4-1.8,0.2-2.7,0.2c-3.9-0.1-7.8,0.2-11.7-0.1c0-7.4-0.2-14.8,0-22.2
	c0.1-3.5-0.9-6.1-2.9-8.8c-5.9-8-11.6-16.1-17.4-24.1c3-0.4,5.9-0.1,8.9-0.2c1.9,0,3.8,0,5.7,0c0.9,0,1.7,0.1,2.3,0.9
	c2.4,2.9,4.2,6.4,6.5,9.4c1,1.4,2.1,2.7,3,4.2c1,1.6,1.6,1,2.4-0.1c1.8-2.6,3.5-5.3,5.4-7.9c1.5-2.1,2.6-4.4,4.4-6.3
	c3.2-0.3,6.4-0.1,9.6-0.1c1.9,0,3.8,0,5.6,0C219.1,26.5,219.9,26.3,219.5,27.4z"/>
<path fill="#FDB466" d="M572.4,19.2c0,3.5,0,7,0.1,10.5c0,1.2-0.3,1.6-1.5,1.6c-4.6-0.1-9.3,0-13.9-0.1c-1.5,0-1.9,0.4-1.8,1.9
	c0.1,1.8,0.1,3.7,0,5.5c-0.1,1.5,0.3,2.1,1.9,2c4.2-0.1,8.5,0,12.7-0.1c1.2,0,1.6,0.3,1.6,1.5c-0.1,3.2-0.1,6.3,0,9.5
	c0,1.1-0.3,1.5-1.5,1.5c-4.4-0.1-8.8,0-13.3,0c-1.2,0-1.6,0.4-1.5,1.6c0.1,2.2,0.1,4.5,0,6.7c0,1.2,0.4,1.4,1.5,1.4
	c4.7-0.1,9.4,0,14.1-0.1c1.4,0,1.7,0.4,1.7,1.8c-0.1,3.3-0.1,6.7-0.1,10c-0.5,0.3-1,0.2-1.5,0.2c-7.4,0-14.7,0-22.1,0
	c-1.9,0-2.1-0.1-2.1-2.1c0-17.1,0-34.2,0-51.3c0-1.9,0.2-2.1,2.1-2.1c7.4,0,14.7,0,22.1,0C571.4,19,571.9,18.9,572.4,19.2z"/>
<path fill="#FEDA1A" d="M400,25.3c0,11.2,0.2,22.4,0,33.5c-0.1,5-1.6,9.7-5.6,13.2c-1.6,1.4-3.4,2.7-5.7,3.1
	c-0.5,0.3-1.3,0.2-1.8,0.6v0.1c-1.3,0.6-2.8,0.3-4.2,0.6c-1.9,0.1-3.7-0.2-5.4-0.7c-0.4-0.4-1-0.3-1.5-0.6c-2.8-0.6-4.8-2.4-6.7-4.3
	c-0.6-0.6-1-1.3-1.5-1.9c-0.3-0.5-0.3-0.9,0.1-1.4c2.5-1.8,4.3-4.3,6.2-6.6c1.1-1.3,1.9-1.2,2.9,0.1c1.1,1.3,2.1,2.7,3.9,3
	c3.2,0.5,4.6-1.2,4.8-4.8c0.2-3.7,0-7.4,0.1-11.2c0-7.8,0.1-15.7,0.1-23.5c1.7-2.7,7.7-4.3,10.9-2.3C397.9,23,399.5,23.6,400,25.3z"
	/>
<path fill="#E0090A" d="M600.3,25.2c6,0.5,10.7,3,14.2,8c1.3,1.9,2.4,3.8,2.8,6.1c0.2,2,0.1,3.9,0,5.9c-0.4,4.8-3.5,7.7-7,10.3
	c-1.6,1.2-3.6,1.9-5.4,2.7c-0.7,0.3-0.8,0.6-0.8,1.2c0,1.3,0,2.5-0.1,3.8c-4.1,0.3-8.2,0.1-12.3,0.1c-0.5,0-0.9-0.1-0.9-0.7
	c0.1-4.4-0.2-8.8,0.2-13.1c4.4,1.1,10.6-0.6,12.1-5c0.6-2,0.6-3.9-0.8-5.6c-1.4-1.8-3.3-2.6-5.6-2.1c-2.4,0.4-3.7,2-4,4.3
	c-0.1,0.9-0.3,1.2-1.2,1.2c-4.1-0.1-8.2-0.1-12.2,0c-1.6,0-1.8-0.5-1.1-1.8c0.3-0.5,0-1.2,0.3-1.7c0.7-4.2,3.1-7.3,6.4-9.7
	c2.1-1.5,4.4-2.8,7.1-3.1c0.5-0.3,1.1,0.1,1.6-0.3c0.7-0.7,1.7-0.1,2.5-0.4C597.6,25,598.9,25,600.3,25.2z"/>
<path fill="#F57F02" d="M482.1,47.3c0,8.8,0,17.7,0,26.5c0,1.3-0.3,1.7-1.6,1.6c-3.8-0.1-7.7-0.1-11.5,0c-1,0-1.4-0.2-1.4-1.3
	c0-18,0-35.9,0-53.9c0-1,0.3-1.4,1.3-1.4c3.9,0.1,7.8,0.1,11.7,0c1.3,0,1.5,0.5,1.5,1.6C482.1,29.4,482.1,38.3,482.1,47.3z"/>
<path fill="#01B201" d="M455.9,51.4c0-8.4,0-16.7,0-25.1c2.4-0.2,2.4-0.2,2.4,2.2c0,11.5,0,23.1,0,34.6c0,9-5.3,16.9-14,19.6
	c-5.3,1.7-10.7,1.7-16.1,0.6c-3.7-0.7-7.3-2-10.6-3.9c-3.8-2.2-5.9-5.7-7.2-9.8c-0.7-2.4-1.1-4.8-1.1-7.3c0-11.3,0-22.5,0-33.8
	c0-2.8,0-2.8,2.8-2.2c-0.5,0.2-0.4,0.7-0.4,1c0,11.7,0,23.5,0,35.2c0.4,0.9,0.2,1.8,0.3,2.7c0.1,0.2,0.1,0.3,0.3,0.4
	c1.9,5.8,5.1,10.2,11.1,12.6c5.3,2.1,10.7,2,16.2,1.8c0.5-0.4,1.3-0.1,1.8-0.6c5.6-1.3,9.8-4.1,12.4-9.4c1.5-3.1,2.1-6.2,2-9.6
	c-0.1-2.5-0.1-5-0.1-7.5C455.7,52.6,455.7,52,455.9,51.4z"/>
<path fill="#05CF05" d="M546.2,74.6c-1.3,0-2.6,0-4,0.1c-1.2,0.1-1.6-0.2-1.5-1.5c0-14.6,0-29.1,0-43.7c0-3.2,0-6.3,0-9.5
	c0-1,0.3-1.3,1.3-1.2c1.4,0.1,2.9,0.1,4.3,0.1c0.6,0.6,0.5,1.3,0.5,2.1c0,17.2,0,34.4,0,51.6C546.7,73.3,546.8,74.1,546.2,74.6z"/>
<path fill="#F58002" d="M48.9,74c7.7-2.7,13-7.9,16.2-15.3c1.7-3.9,2.7-8,2.4-12.3c-0.8-13.3-8.7-23.2-21-26.6
	c-0.2-0.3-0.2-0.5,0.1-0.8c0.6-0.2,1.1,0,1.7,0.1c7.4,0.9,13.4,4.4,18.1,10.1c1.2,1.4,2.4,2.9,2.9,4.7c0.2,0.4,0.3,0.8,0.6,1.1
	c3.9,8.4,3.6,16.7-0.6,24.8c-0.5,0.2-0.6,0.7-0.7,1.1c-2.1,4.1-5.2,7.4-9.2,9.8c-2.7,1.6-5.5,3.2-8.7,3.5C50.1,74.4,49.3,75,48.9,74
	z"/>
<path fill="#FDC942" d="M312.5,82.4c3.2,0,6.5,0,9.7,0c0.1,0.2,0.1,0.4-0.1,0.6c-0.4,0-0.8,0.1-1.3,0.1c-0.8,0.5-1.7,0.1-2.5,0.6
	c-3.1,0-6.2,0-9.3,0c-0.9-0.4-1.9-0.2-2.8-0.6c-7.6-1.4-13-5.4-15.7-12.8c-0.1-0.3-0.1-0.7-0.1-1c-0.3-0.7-0.3-1.4-0.6-2.1
	c-0.9-9.4-0.2-18.8-0.4-28.2c-0.1-3.8-0.1-7.6-0.3-11.3c0-1.3,0.4-1.8,1.7-1.8c4,0,8,0,12,0.1c1.1,0,2.1,0.3,2.8,1.2
	c-0.1,0.1-0.1,0.2-0.2,0.2c-3.5,0.4-7,0.1-10.6,0.2c-0.7,0-1.4-0.2-1.9,0.4c-0.2,0.4-0.1,1-0.5,1.4c0,0.1,0,0.2,0,0.3
	c0.3,0.3,0.3,0.6,0.3,0.9c0.1,1-0.2,2,0.4,3c-0.2,1.1-1,2.1-0.7,3.4c-0.3,1.1-0.1,2.3,0,3.4c0,1.6,0,3.2,0,4.8
	c0.1,0.1,0.2,0.3,0.1,0.4c-0.2,0.5-0.7,1-0.1,1.6c0.6,1.4,0.5,2.8,0,4.2c0.7,1,0.4,2.2,0.5,3.3c0,0.7,0,1.4,0,2.2
	c0.1,3.3-0.3,6.6,0.7,9.8c0,0.7,0.2,1.4,0.4,2c0.2,0.6,0.1,1.2,0.5,1.7c0.2,0.3,0.5,0.5,0.6,0.9c0.3,2.2,1.6,3.7,3.4,4.8
	c0.4,0.5,0.9,1,1.4,1.4c1.1,1.3,2.7,1.9,4.3,2.6c1.7,0.8,3.6,1,5.4,1.6C310.6,82.5,311.8,81.7,312.5,82.4z"/>
<path fill="#109010" d="M600.7,83.1c-2.8,1.4-5.6,0.8-7.9-0.9c-2.9-2.1-4.1-5.3-3.3-8.9c0.9-4.4,4.8-7.4,9.7-6.7
	c4.2,0.6,6.8,3.2,7.3,8c0.3,2.8-0.9,5.2-3.1,7c-0.3,0.3-0.6,0.6-0.9,0.8C601.7,82.4,601.1,82.6,600.7,83.1z"/>
<path fill="#FECF97" d="M546.2,74.6c0-18.6,0-37.2,0-55.7c8.4,0,16.8-0.1,25.2-0.1c0.4,0,0.8-0.1,1,0.4c-7.9,0-15.7,0-23.6,0
	c-1.2,0-1.5,0.4-1.5,1.6c0,17.3,0,34.7,0,52c0,1.2,0.3,1.6,1.5,1.6c7.9-0.1,15.7,0,23.6-0.1c-0.2,0.5-0.6,0.4-1,0.4
	C562.9,74.7,554.6,74.7,546.2,74.6z"/>
<path fill="#FCC945" d="M325.6,54.9c0,0.2,0,0.5,0,0.7c-0.6,0.7-0.6,1.7-1.2,2.4c-0.2,0.2-0.5,0.4-0.8,0.3c0-7.7,0-15.4,0-23
	c0-2.5,0.1-5,0-7.6c0-1.2,0.4-1.5,1.5-1.5c4.1,0,8.1,0,12.2,0c0.8,0,1.4,0.2,1.5,1.1c0.2,0.3,0.2,0.5-0.1,0.7c-2.2,0-4.3,0-6.5,0
	c0-0.1,0-0.2,0-0.3c1.8,0,3.6,0,5.4,0c0-0.1,0-0.2,0-0.4c-3.7,0-7.5-0.1-11.2,0c-1.4,0-0.6,1.3-0.8,2c-0.6,0.9-0.3,2-0.3,3
	c0,1.5,0,3,0.3,4.5c0.1,0.5-0.2,1.3,0.7,1.4c0.3,0.3-0.2,0.6,0,1c-0.3,0.3,0.2,1-0.6,1.1c0,0-0.1,0-0.1-0.1l-0.1-0.1
	c-0.4,0.2-0.1,0.6-0.1,0.9c-0.1,3.2,0,6.4,0,9.6c0,0.8,0,1.6,0,2.5C325.3,53.7,325.1,54.4,325.6,54.9z"/>
<path fill="#7B4201" d="M396.6,22.6c-3-1.6-7.1-1-9.8,1.2c-0.3,0.3-0.6,0.6-1.2,0.6c0-1-0.1-1.9-0.1-2.9c0-1.6,1.1-2.6,2.7-2.7
	c2.7,0,5.3,0,8,0c0.6,0.7,0.3,1.6,0.6,2.3C397,21.7,397,22.2,396.6,22.6z"/>
<path fill="#F9F274" d="M338.7,28c0-0.2,0-0.5,0.1-0.7c0.6,0.6,0.6,1.3,0.6,2.1c0,10.3,0,20.7,0,31c0,0.5,0.2,1.2-0.6,1.4
	c0-0.7,0-1.5-1.1-1.4c0.1-0.4,0-0.6-0.4-0.7c1.2-0.3,1.6-1,1.4-2.2c-0.1-0.9,0-1.9,0-2.9c0-0.5,0-1.1-0.7-1.1
	c-0.2-0.2-0.2-0.4,0-0.7c0.9-0.1,0.7-0.8,0.7-1.3C338.7,43.7,338.7,35.8,338.7,28z"/>
<path fill="#502B03" d="M396.6,22.6c0-0.4,0-0.9,0-1.3c-0.2-0.8-0.2-1.6,0-2.3c2.5-0.1,3.5,0.8,3.5,3.3c0,1,0,2,0,3
	C399,24.3,397.9,23.3,396.6,22.6z"/>
<path fill="#703B38" d="M591,49.4c0,4.1,0,8.3-0.1,12.4c0,1.1,0.3,1.4,1.4,1.4c3.9,0,7.8,0,11.7,0c-0.1,0.5-0.5,0.3-0.8,0.3
	c-3.8,0-7.6,0-11.4,0c-0.6,0-1.2,0.1-1.2-0.9c0-4.2,0-8.5,0-12.7C590.7,49.6,590.7,49.4,591,49.4z"/>
<path fill="#F6D463" d="M319.8,69.3c2.3-2,3-4.8,3.8-7.6c0.2-0.2,0.4-0.2,0.7-0.1c0.2,1,0.3,2-0.1,3c-0.7,2-1.5,3.8-3.4,4.9
	C320.4,69.7,320.1,69.6,319.8,69.3z"/>
<path fill="#FCF57E" d="M313.9,74.1c-0.1-1.4,0.4-2.8-0.7-4c1.6,0,3.2,0,4.9,0c-0.3,0.2-0.6,0.6-0.8,0.5c-2.5-0.3-2.4,1.5-2.6,3.1
	c-0.1,0.6-0.2,1.2-0.4,1.8C313.3,75.3,313.8,74.7,313.9,74.1z"/>
<path fill="#6D1F54" d="M181.6,27.3c-0.9-0.7-2-0.7-3-0.7c-4.6,0-9.2,0-13.8,0c0.2-0.6,0.8-0.3,1.2-0.3c4.7,0,9.4,0,14.1,0
	C180.9,26.2,181.3,26.5,181.6,27.3z"/>
<path fill="#6D1E53" d="M219.5,27.4c-0.1-1.1-1-0.8-1.6-0.8c-4.9,0-9.8,0-14.6,0c0.2-0.5,0.7-0.3,1-0.3c4.9,0,9.8,0,14.8,0
	C220.4,26.2,220.2,26.7,219.5,27.4z"/>
<path fill="#FBF580" d="M306.3,39c-1.9,0.5-3.8,1.4-6.2,1.4c1.6-1.5,3.5-1.1,4.9-2.1c0.4-0.3,0.9-0.4,1.3,0
	C306.3,38.5,306.3,38.8,306.3,39z"/>
<path fill="#FED53A" d="M306.3,28c-4.3,0-8.7,0-13,0c-0.3,0.1-0.4,0-0.4-0.3c0.5-0.5,1.2-0.2,1.8-0.2c3.6-0.1,7.3,0.2,10.9-0.2
	l0.1-0.1C306.2,27.3,306.4,27.5,306.3,28z"/>
<path fill="#FAD04D" d="M324.2,61.7c-0.2,0-0.4,0-0.6,0c0-1.2,0-2.3,0-3.5c0.2-0.1,0.4-0.2,0.6-0.3
	C324.8,59.2,325.5,60.5,324.2,61.7z"/>
<path fill="#CB8D4F" d="M48.9,74c0.5,0.5,1.2,0.2,1.8,0.4c-1.9,0.7-3.9,0.3-5.9,0.3c-0.1-0.1-0.2-0.1-0.1-0.2c0-0.1,0.1-0.1,0.1-0.1
	C46.2,74.3,47.6,74.4,48.9,74z"/>
<path fill="#C59051" d="M48.3,19.1c-0.6,0-1.2,0-1.8,0c-0.5,0-0.9,0.3-1.4,0c-0.6-0.1-1.2,0.2-1.6-0.4C45,18.8,46.7,18.1,48.3,19.1z
	"/>
<path fill="#723B31" d="M617.3,45.2c0-2,0-3.9,0-5.9C617.8,41.3,617.7,43.2,617.3,45.2z"/>
<path fill="#FAE24E" d="M334.6,74.9c-0.1-1,0-1.8,1.3-1.8C335.9,74,335.3,74.5,334.6,74.9z"/>
<path fill="#FBDC3E" d="M307,63.8c-1.4-0.9-0.3-2.3-0.7-3.4C306.8,61.5,307,62.6,307,63.8z"/>
<path fill="#F9E03E" d="M306.3,38.3c-0.4,0-0.9,0-1.3,0c0.2-0.7,0.8-1.2,1.3-1.7C306.3,37.2,306.3,37.7,306.3,38.3z"/>
<path fill="#6F3A38" d="M600.3,25.2c-1.4,0-2.8,0-4.2,0C597.5,24.7,598.9,24.7,600.3,25.2z"/>
<path fill="#FADF53" d="M486.2,48.6c-0.2,0.9,0.6,2.1-0.6,2.8C485.5,50.4,485.7,49.5,486.2,48.6z"/>
<path fill="#FCDF45" d="M320.5,70.1c-0.6,0.7-1.2,1.2-1.7,0c0.2-0.1,0.5-0.2,0.7-0.3C319.8,69.9,320.2,69.6,320.5,70.1z"/>
<path fill="#F9E159" d="M522.9,25.9c-0.8,0.2-1.6,0-2.2-0.6C521.5,25.3,522.3,24.9,522.9,25.9z"/>
<path fill="#EF820F" d="M68.6,61c-0.1-0.4-0.7-0.5-0.5-0.9s0.8-0.2,1.2-0.2C69.3,60.4,68.9,60.7,68.6,61z"/>
<path fill="#FDF8E1" d="M538.6,36.2c0-0.2,0-0.4,0-0.6c0.5,0,0.7,0.3,0.7,0.7c0,0.2-0.1,0.5-0.4,0.4
	C538.8,36.7,538.7,36.4,538.6,36.2z"/>
<path fill="#F6F3C7" d="M367.7,74.9c0,0.5,0,0.9-0.1,1.4c-0.5-0.1-0.7-0.3-0.6-0.8S367.3,74.9,367.7,74.9z"/>
<path fill="#F5D373" d="M289.8,67.3c0.6,0.6,0.7,1.3,0.6,2.1C289.9,68.8,289.8,68.1,289.8,67.3z"/>
<path fill="#FBFDE9" d="M306.3,58.3c0.5,0.1,0.7,0.3,0.7,0.8c0,0.4-0.3,0.6-0.7,0.6l-0.1,0.1C306,59.2,305.9,58.7,306.3,58.3
	L306.3,58.3z"/>
<path fill="#FBF490" d="M320.5,70.1c-0.4-0.1-0.8,0-1.1-0.4c0.1-0.1,0.2-0.3,0.4-0.4c0.3,0,0.7,0,1,0c0.2,0.2,0.2,0.4,0,0.7
	C320.7,70,320.6,70,320.5,70.1z"/>
<path fill="#844D07" d="M396.6,18.9c0,0.8,0,1.6,0,2.3c-0.6-0.7-0.2-1.6-0.3-2.3C396.4,18.8,396.5,18.8,396.6,18.9z"/>
<path fill="#D4A673" d="M44.8,74.4c0,0.1,0,0.2,0,0.3c-0.7,0-1.4,0-2-0.1C43.4,74.1,44.1,74.4,44.8,74.4z"/>
<path fill="#6C3A3A" d="M593.7,25.6c-0.5,0.6-1.1,0.2-1.6,0.3C592.5,25.3,593.1,25.6,593.7,25.6z"/>
<path fill="#D8974F" d="M69.9,35.1c-0.7-0.1-0.7-0.6-0.6-1.1C69.7,34.2,69.9,34.6,69.9,35.1z"/>
<path fill="#70393D" d="M578.5,38.7c-0.1,0.6,0.2,1.2-0.3,1.7C578.3,39.8,578,39.1,578.5,38.7z"/>
<path fill="#024C76" d="M258.1,40.2c-0.3,1.5-0.9,2.9-2.2,3.8c-0.6,0-1.3,0.1-1.9,0.1c-2.3-0.1-3.7-1.8-3.5-4.3
	c0.1-2.3,1.5-3.8,3.8-3.6c1.5,0.1,3.3,0,3.8,2.1l0,0C258.3,38.9,258.3,39.5,258.1,40.2z"/>
<path fill="#024C76" d="M280.2,40.7c-0.2,1.5-1,2.8-2.2,3.7c-0.3,0.1-0.5,0.2-0.8,0.2l0,0c-1.8,0.3-3.3-0.4-4-1.9
	c-0.9-2-0.3-4.3,1.3-5.2c1.9-1.1,4.4-0.6,5.6,1.1c0.1,0.2,0.2,0.3,0.2,0.5C280.6,39.5,280.5,40.1,280.2,40.7z"/>
<path fill="#E7FEA4" d="M106.4,42.5c0.9,0,1.8,0,2.7,0.1c0.7,0.1,0.7-0.3,0.8-0.8c0.3-0.2,0.5-0.2,0.7,0c-0.2,2.1,1.6,1.6,2.6,2
	c0.4-0.2,0.8-0.2,0.7,0.4c0,1,1.2,0.8,1.4,1.6c0.5,0.4,1,0.8,1.3,1.5c0.5,0.4,0.5,1.3,1.3,1.3c0.4-0.2,0.8-0.2,0.8,0.4
	c-1.1,0.9-0.3,1.6,0.3,2.4c0.4-0.1,0.9-0.4,1.1,0.2c0.1,0.4-0.5,0.3-0.7,0.5c-1,0.6-0.1,1.4-0.3,2.1c1,0.8-0.4,1.2-0.3,1.9
	c0.2,0.9-0.6,1.7,0,2.6c0.2,0.7-0.5,0.5-0.7,0.8c-0.6,0.7-1.1,1.4-1.4,2.3c0.1,0.3,0.9,0.7-0.1,0.8c-1.2-0.2-1.5,0.9-2.3,1.3
	c-0.3,0.2-0.1,0.9-0.8,0.7c-0.8,0-1.4,0.8-2.2,0.7c-0.5,0.1-0.7,1.2-1.5,0.6c-0.4,0.1-0.9,0.2-1.3,0.2c-1.6-0.1-2.1,0.8-2.1,2.2
	c-0.3,0.3,0,0.8-0.5,1.1c-0.6-0.5-0.3-1.2-0.2-1.8c0.2-1,0.1-1.7-1.3-1.7c-0.7,0-1.4-0.4-2.1-0.6c-0.8,0.5-0.8-0.4-1.2-0.7
	c-1.1-0.4-1.8-1.6-2.8-2c-1.3-0.6-1.9-1.3-1.9-2.7c0-0.4-0.5-0.9-0.4-1.4c-0.2-0.4-0.5-0.7-0.6-1.2c0-0.5-0.1-1.1-0.1-1.6
	c-0.3-0.8,0.4-1.9-1.1-2.2c-0.5-0.1,0.4-0.3,0.5-0.6c1-0.9,0.9-2.3,1.4-3.5c-1.1-1.2,0.5-0.7,0.7-1.1c0.4-0.8,1.4-1.3,1.4-2.4
	c-0.2-0.7-0.1-1,0.7-0.7c0.8,0.2,1.1-0.5,1.7-0.7c0.8-0.5,1.4-1.4,2.5-1.3c0.7-0.3,1.4-0.5,2.1-0.8C105.6,42.1,106,42.1,106.4,42.5z
	"/>
<path fill="#C2FA8F" d="M110.7,41.8c-0.2,0-0.5,0-0.7,0c0.6-2.7,1.3-5.3,3.1-7.8c0.5,1.1-0.2,1.8-0.3,2.5c-0.2,0.8-0.9,1.3-0.9,2.2
	c-0.2,0.6-0.4,1.2-0.6,1.8C111.3,41,111,41.4,110.7,41.8z"/>
<path fill="#C6F990" d="M109.9,65.9c0.6,0,0.8-0.8,1.5-0.6c-0.3,1.6-0.2,3.2,0.2,4.9c0.4,0.4,0.2,0.9,0.1,1.3
	c-0.2,0.5,0,1.1-0.5,1.5C110.3,70.7,110.7,68.2,109.9,65.9z"/>
<path fill="#C7F991" d="M106.4,42.5c-0.4,0-0.9,0-1.3,0c-0.1-1.1-0.3-2.3-0.4-3.4c-0.4-0.8,0.2-1.7-0.4-2.4l0,0
	c-0.2-0.6-0.1-1.2-0.1-1.9c0-0.3,0-0.6,0.4-0.6c0.3,0,0.3,0.5,0.4,0.7c-0.3,1.2,0.7,2.2,0.4,3.3c0.3,0.6-0.1,1.3,0.3,1.8
	C106,40.8,106.2,41.7,106.4,42.5z"/>
<path fill="#C3F88D" d="M117.8,44.9c1-1.6,2.2-3.1,4.1-3.8c0.2-0.1,0.3-0.1,0.5,0.1c-1.2,1.6-2.6,3-4.2,4.2
	C118,45.2,117.9,45.1,117.8,44.9z"/>
<path fill="#C6FA8F" d="M103,43.2c-0.8,0.4-1.7,0.8-2.5,1.3c0.7-0.5,0.6-1.2,0.2-1.9c-0.6-0.9-1-1.8-1.2-2.9
	c-0.1-0.4-0.2-0.8,0.4-0.8c0.6,1.1,1.3,2.1,1.6,3.2C101.9,43.1,102.3,43.3,103,43.2z"/>
<path fill="#C9FE97" d="M118.9,56c-0.4-0.7,0.7-1.2,0.3-1.9c1.1,0,2.3,0.1,3.4,0.1c0.5,0.4,1.4-0.4,1.7,0.6c-1.3,0.3-2.6,0.6-4,0.5
	C119.7,55.3,119.2,55.5,118.9,56z"/>
<path fill="#BDF78A" d="M113.6,64.6c0.3-0.2,0.5-0.5,0.8-0.7c0.7,1.4,1.7,2.6,2.1,4c-0.1,0.3-0.4,0.5-0.8,0.4
	C115.1,67.1,114.3,65.8,113.6,64.6z"/>
<path fill="#C2FA8D" d="M122.6,60c1.4,0.7,2.7,1.3,4.1,2c-0.1,0.2-0.1,0.3-0.2,0.5c-2,0.1-3.4-1.3-5.1-2C121.8,60,122.2,60,122.6,60
	z"/>
<path fill="#BFFA8B" d="M93,66.2c-0.6-0.8,0.2-1.3,0.6-1.7c0.8-0.8,1.3-2,3-2.4c-0.7,1.9-2.2,2.8-3.2,4.1
	C93.2,66.3,93.1,66.4,93,66.2z"/>
<path fill="#BAF587" d="M96.8,48.3c-0.1,0.5-1.2,0.3-0.7,1.1c-1.7-0.5-3.3-1-5-1.5v-0.1l0.1-0.1c0.7-0.2,1.4-0.3,2,0
	C94.5,47.9,95.6,48.1,96.8,48.3z"/>
<path fill="#B7F484" d="M94.7,52.8c-0.1,0.2-0.2,0.3-0.4,0.5c1.5,0.3,1,1.4,1,2.3c-0.3-2.5-2-1.4-3.3-1.4c-0.4,0-1,0.5-1-0.4
	C92.2,53.4,93.4,52.7,94.7,52.8z"/>
<path fill="#C0F98D" d="M119.6,52.1c0.1-0.2,0.2-0.4,0.4-0.6c-0.3,0-0.5-0.1-0.8-0.1c1.4-0.4,2.8-0.9,4.2-1.3
	c0.2,0.3,0.6,0.3,0.8,0.7C122.7,51.4,121.1,51.8,119.6,52.1z"/>
<path fill="#C3F88D" d="M122.6,60c-0.4,0.1-0.8,0.3-1.1,0.4c-1.1-0.4-2.2-0.7-3.3-1.1c0.2-0.3,0.5-0.5,0.7-0.8
	C120.2,58.9,121.5,59.3,122.6,60z"/>
<path fill="#AFF380" d="M105.7,67.5c0,0.5,0.1,1,0.1,1.5c0.2-0.3,0.4-0.5,0.6-0.8c0.2,1.4-0.5,2.5-1,4.2
	C104.8,70.5,105.2,69,105.7,67.5z"/>
<path fill="#C3FA8F" d="M101.2,64.5c0.5,0.1,0.6,0.7,1.2,0.7c-0.6,1.2-1.2,2.3-1.7,3.5c-0.4,0.1-0.6,0-0.4-0.5
	C100.1,66.9,101.3,65.9,101.2,64.5z"/>
<path fill="#BBF688" d="M115,42.1c0-1.5,1.1-2.2,2.1-3.1c0.3-0.1,0.5,0.1,0.4,0.4c-0.7,1-1.1,2.2-2.1,3
	C115.2,42.4,115.1,42.3,115,42.1z"/>
<path fill="#C2F88C" d="M117.8,44.9c0.1,0.1,0.3,0.3,0.4,0.4c-0.2,0.8-1.5,1-1.4,2c-0.8-0.2-1-0.9-1.3-1.5
	C116.6,46.3,116.8,44.7,117.8,44.9z"/>
<path fill="#BCF889" d="M89.9,60.7c0.8-0.8,1.8-1.2,2.8-1.7c0.2,0.2,0.4,0.4,0.4,0.7c-0.7,0.7-1.5,1.1-2.4,1.4
	C90.3,61.2,89.9,61.4,89.9,60.7z"/>
<path fill="#ADF680" d="M120.3,65.8c-0.8-0.5-1.6-1.1-2.1-2c0-0.2,0.2-0.3,0.4-0.4c1.1,0.1,1.8,0.9,2.4,1.8
	C120.8,65.5,120.5,65.7,120.3,65.8z"/>
<path fill="#BFF88B" d="M120.2,47.3c0.8-0.5,1.5-0.9,2.3-1.3c0.2-0.1,0.6,0,0.8,0.1c0.2,0.3-0.1,0.5-0.4,0.6c-0.7,0.4-1.3,0.8-2,1.2
	C120.6,47.7,120.3,47.6,120.2,47.3z"/>
<path fill="#C5F992" d="M120.2,47.3c0.4,0,0.7,0.2,0.7,0.6c-0.7,0.4-1.4,0.8-2.1,1.1c-0.2-0.3-0.5-0.3-0.8-0.4
	C118.6,47.9,119.4,47.6,120.2,47.3z"/>
<path fill="#95F671" d="M105,34.9c-0.2,0-0.4-0.8-0.6-0.1c-0.2,0.6-0.1,1.2-0.1,1.9c-0.5-1.4-0.4-2.8-0.3-4.7
	C104.7,33.1,105.1,33.9,105,34.9z"/>
<path fill="#B2F784" d="M96.9,44.3c-1-0.4-1.4-1.2-1.8-2.4c1.1,0.5,1.9,1,2.4,1.9C97.5,44.4,97.2,44.4,96.9,44.3z"/>
<path fill="#91F06D" d="M93,66.2c0.1,0,0.2,0,0.3,0c-0.1,1.1-1,1.5-1.7,2.1c-0.1,0.1-0.3,0.1-0.4,0C91.7,67.5,91.8,66.4,93,66.2z"/>
<path fill="#C3F890" d="M115,42.1c0.1,0.1,0.2,0.2,0.4,0.3c-0.3,0.7-0.7,1.3-1.3,1.8c-0.2-0.3-0.4-0.4-0.7-0.4
	C113.8,43.2,114,42.2,115,42.1z"/>
<path fill="#A2F278" d="M96.9,44.3c0.2-0.1,0.4-0.3,0.6-0.4c0.7,0.2,1,0.8,1.4,1.3c-0.4,0-0.6,0.2-0.7,0.7
	C97.6,45.5,97,45.1,96.9,44.3z"/>
<path fill="#C0FB8F" d="M122.3,66.6c0.9,0.3,1.2,1.1,1.7,1.8c0,0.3-0.1,0.5-0.4,0.4c-0.8-0.2-1.2-0.8-1.7-1.4
	C122,67,122,66.7,122.3,66.6z"/>
<path fill="#E6F9A1" d="M95.5,57.3c0.5,0.3,0.7,0.7,0.6,1.2c-0.7,0.2-1.3,0.4-2,0.7c-0.2-0.2-0.3-0.5,0-0.8
	C94.5,58,95,57.6,95.5,57.3z"/>
<path fill="#C8F993" d="M118.5,63.5c-0.1,0.1-0.3,0.3-0.4,0.4c-0.6-0.3-1.1-0.7-1.4-1.3c0.4-0.2,0.1-0.6,0.1-0.8
	C117.6,62.1,118.3,62.5,118.5,63.5z"/>
<path fill="#C8FE98" d="M124.1,50.8c-0.3-0.2-1.2,0.3-0.8-0.7c0.1-0.1,0.2-0.1,0.3-0.1c0.9,0.1,1.8-1.1,2.7-0.1
	C125.6,50.3,125,50.7,124.1,50.8z"/>
<path fill="#C8F98F" d="M111.2,72.9c0.1-0.5-0.1-1.1,0.4-1.5c0.1,0.1,0.2,0.2,0.3,0.4c0.1,0.4,0.2,0.8,0.2,1.2
	c0,0.4,0.2,1.1-0.3,1.1C111,74.1,111.3,73.4,111.2,72.9z"/>
<path fill="#9FF575" d="M126.4,50c-0.9-0.7-1.8,0.4-2.7,0.1c1.1-0.7,2.3-0.8,3.6-0.6C127.1,49.9,126.7,49.9,126.4,50z"/>
<path fill="#92EF6D" d="M99.9,39c-0.3,0.1-0.3,0.5-0.4,0.8c-0.5-0.6-0.6-1.4-0.7-2.1c0.1-0.1,0.3-0.1,0.4-0.1
	C99.6,38,99.9,38.4,99.9,39z"/>
<path fill="#E6F9A1" d="M120.3,65.8c0-0.4,0.3-0.6,0.6-0.6c0.2,0.2,0.5,0.5,0.7,0.7c0.2,0.4,0.2,0.7-0.4,0.7
	C120.9,66.3,120.6,66.1,120.3,65.8z"/>
<path fill="#E3FBA2" d="M94.1,58.3c0,0.3,0,0.5,0,0.8c-0.2,0.4-0.6,0.5-1,0.6c-0.3-0.1-0.4-0.4-0.4-0.7
	C93.2,58.8,93.5,58.3,94.1,58.3z"/>
<path fill="#B4F786" d="M116.9,68.5c0.5,0.3,0.6,0.9,0.7,1.4c0.1,0.3,0.3,0.7-0.4,0.7c-0.3-0.4-0.5-0.9-0.8-1.3
	C116.5,69,116.5,68.7,116.9,68.5z"/>
<path fill="#77F25A" d="M124.3,54.8c-0.6-0.2-1.1-0.4-1.7-0.6c0.7,0,1.3,0,2,0c0.2,0,0.6,0.1,0.5,0.5
	C124.9,55,124.6,54.8,124.3,54.8z"/>
<path fill="#E1FB9B" d="M116.9,68.5c-0.2,0.3-0.3,0.5-0.5,0.8c-0.2-0.4-0.4-0.7-0.7-1.1c0.3-0.1,0.5-0.3,0.8-0.4
	C116.8,68,116.9,68.3,116.9,68.5z"/>
<path fill="#98FA70" d="M89.9,60.7c0.2,0.3,0.5,0.3,0.8,0.4c-0.5,0.5-1.1,0.7-1.9,0.6C89,61.1,89.5,61,89.9,60.7z"/>
<path fill="#60E849" d="M91,53.9c0.3,0.4,0.7,0.2,1,0.4c-0.7,0.5-1.4,0.3-2.2,0.3C90.1,54,90.6,54,91,53.9z"/>
<path fill="#DCFA9A" d="M121.2,66.6c0.3-0.1,0.4-0.4,0.4-0.7c0.4,0.1,0.6,0.3,0.7,0.6c0,0.3-0.1,0.6-0.4,0.7
	C121.7,67.1,121.5,66.8,121.2,66.6z"/>
<path fill="#A5F87D" d="M123.6,68.7c0.1-0.1,0.3-0.2,0.4-0.4c0.5,0.2,0.6,0.6,0.7,1.2C124.2,69.4,123.8,69.2,123.6,68.7z"/>
<path fill="#C7F691" d="M104.4,36.6c0.7,0.7,0.2,1.6,0.4,2.4C104.2,38.3,104.4,37.4,104.4,36.6z"/>
<path fill="#3CEA33" d="M105.1,73.4c-0.1-0.2-0.3-0.3-0.3-0.4c0-0.2,0.1-0.5,0.4-0.4c0.1,0,0.2,0.3,0.2,0.4
	C105.4,73.1,105.2,73.3,105.1,73.4z"/>
<path fill="#2DE325" d="M89.9,46.8c0.1,0.2,0.2,0.3,0.2,0.4c0,0.3-0.2,0.4-0.5,0.3c-0.1,0-0.2-0.2-0.3-0.3
	C89.5,47.1,89.6,47,89.9,46.8z"/>
<path fill="#9EF172" d="M93.3,47.6c-0.7,0-1.4,0-2,0C91.9,47.1,92.6,47.2,93.3,47.6z"/>
<path fill="#93F668" d="M122.4,41.1c-0.2,0-0.3,0-0.5-0.1c0.1-0.6,0.5-1,0.9-0.7C123.2,40.5,122.8,40.9,122.4,41.1z"/>
<path fill="#B6FB85" d="M111.3,40.5c-0.1-0.7,0.1-1.3,0.6-1.8C112,39.4,111.6,39.9,111.3,40.5z"/>
<path fill="#8AF163" d="M117.5,39.4c-0.1-0.1-0.3-0.3-0.4-0.4c0.3-0.2,0.5-0.9,0.9-0.5C118.3,38.8,117.8,39.1,117.5,39.4z"/>
<path fill="#9BFC79" d="M100.2,68.2c0.1,0.2,0.3,0.3,0.4,0.5c0.1,0.4-0.3,0.7-0.4,1c-0.7,0-0.5-0.4-0.4-0.8
	C100,68.7,100.1,68.4,100.2,68.2z"/>
<path fill="#71EF56" d="M117.9,70.7c0.3,0.4,0.5,0.9,0.2,1.2c-0.2,0.2-0.4-0.2-0.5-0.5C117.7,71.1,117.6,70.8,117.9,70.7z"/>
<path fill="#53F342" d="M99.3,37.6c-0.1,0-0.3,0-0.4,0.1c-0.3-0.2-0.5-0.6-0.1-0.8C99,36.7,99.2,37.2,99.3,37.6z"/>
<path fill="#7AFB5D" d="M117.9,70.7c-0.1,0.2-0.2,0.5-0.3,0.7c-0.1-0.2-0.2-0.5-0.4-0.7c0.1-0.2,0.2-0.5,0.4-0.7
	C117.6,70.2,117.8,70.4,117.9,70.7z"/>
<path fill="#9EEA73" d="M111.9,71.8c-0.1-0.1-0.2-0.2-0.3-0.4c0-0.4,0-0.9,0-1.3C112.1,70.6,111.9,71.2,111.9,71.8z"/>
<path fill="#C7F691" d="M105.8,40c-0.6-0.5-0.3-1.2-0.3-1.8C105.9,38.8,105.8,39.4,105.8,40z"/>
<path fill="#8DEC65" d="M99.9,68.9c0.1,0.3,0.1,0.6,0.4,0.8c-0.1,0.3-0.3,0.7-0.5,0.5C99.3,69.8,99.6,69.3,99.9,68.9z"/>
<path fill="#5CEE46" d="M91.3,68.3c0.1,0,0.3,0,0.4,0c-0.2,0.4-0.4,0.7-0.9,0.8C90.6,68.6,90.9,68.5,91.3,68.3z"/>
<path fill="#FDDB30" d="M294.6,70.7c-1.1-0.2-0.5-1.1-0.7-1.7c-0.4-0.5,0.1-1.4-0.7-1.7c-0.9-3.4-0.7-6.9-0.7-10.3
	c0.4-0.6,0.1-1.4,0.5-2c0.1-0.1,0.2-0.2,0.4-0.3c0.7,0,1,0.4,1.2,0.9c-0.5,3.9,0.9,7.7,0.7,11.7c0,0.8,0.4,1.8,1.4,2.1
	c0.1,0.4-0.1,0.6-0.3,0.8C295.8,70.4,295.2,70.7,294.6,70.7z"/>
<path fill="#FCF88C" d="M325,50.7c0-4,0-8,0-12.2c1,0.6,0.5,1.4,0.8,2c-0.2,0.6,0.7,1.1,0,1.9c-0.4,0.4,0.1,0.9,0.8,0.9
	c0.8,0,1.7,0,2.5,0c0.1,0.2,0.1,0.3-0.1,0.4c-0.9,0.2-1.8-0.2-2.7,0.2c-0.9,0.2-0.7,0.9-0.7,1.5c-0.2,1.7,0.5,3.4,0,5
	C325.5,50.6,325.4,50.9,325,50.7z"/>
<path fill="#FBF281" d="M324.2,61.7c0.7-1.3-0.2-2.5,0-3.8c0.4-0.8,0.1-2,1.4-2.4c0,0.7,0,1.3,0,2c-0.4,0.7-0.5,1.4,0,2.1
	c0.5,1.5-1.1,2.6-0.6,4.1c0.1,0.1,0.2,0.3,0.2,0.4c0,0.3-0.1,0.5-0.2,0.6c-0.2,0.1-0.5,0.2-0.7,0.4c-0.3-0.2-0.3-0.4-0.3-0.7
	C324.3,63.6,323.6,62.6,324.2,61.7z"/>
<path fill="#FBF684" d="M323.9,64.5c0.3,0.2,0.3,0.4,0.3,0.7c-0.5,1.1,1.1,1.4,1,2.4c0,0.1,0,0.1,0,0.2c-1.1-0.4-2.3-0.9-2.4,1.1
	c0.1,0.3,0,0.5-0.4,0.4c-0.7-0.2-1.2,0.4-1.7,0.6c0-0.2,0-0.4,0-0.7C322.3,68,323.1,66.3,323.9,64.5z"/>
<path fill="#FBF487" d="M325.6,36.9c-0.3-0.1-0.6-0.4-0.6-0.7c0-2.1-0.1-4.3-0.1-6.4c0-0.6,0.3-0.5,0.7-0.3c0.2,1.9-0.3,3.8,0.5,5.6
	C326.5,35.7,325.6,36.2,325.6,36.9z"/>
<path fill="#FBF680" d="M322.5,69.3c0.1-0.1,0.3-0.3,0.4-0.4c1.8,0.8,3,2.3,4.2,3.8c-0.2,0.2-0.5,0.2-0.8,0
	C324.8,71.9,323.8,70.5,322.5,69.3z"/>
<path fill="#F8F06E" d="M305.7,59.7c-1.4,0-2.7,0-4.1,0c-0.4-0.5-1.5,0.4-1.7-0.7c1.5,0.3,2.7-1,4.1-0.7c0.3,0-0.5,0.4,0.1,0.4
	C304.8,58.7,305.6,58.6,305.7,59.7z"/>
<path fill="#FBDE3B" d="M294.6,55.6c-0.5-0.2-0.9-0.5-1.4-0.7c-0.5-0.9-0.5-1.8,0-2.8c0.7,0.1,0.7,0.6,0.7,1.2
	c0,0.8,0.4,0.9,1.1,0.9c0.2,0.6,0.6,0.5,1.1,0.4s1-0.2,1.3,0.3C296.7,56.2,295.5,55.3,294.6,55.6z"/>
<path fill="#FBF680" d="M325,64.9c0-0.2,0-0.5,0-0.7c0.7-0.1,1.4,0,2.1,0.4c1,0,1.7,0.9,2.7,0.8c0.3,0.1,0.5,0.4,0.3,0.6
	c-0.3,0.3-0.7,0.3-1,0.1C327.6,65.9,326.4,65.1,325,64.9z"/>
<path fill="#FCF992" d="M293.3,33.6c-0.7,0.1-0.7-0.3-0.7-0.8c0-0.7,0-1.4,0-2c0.2-0.2,0.4-0.2,0.6,0c-0.6,2.4,1.8,1.8,3,2.8
	C295,33.6,294.1,33.6,293.3,33.6z"/>
<path fill="#FBF47A" d="M336,60.4c-1.2,1.1-2.8,0.5-4.2,0.7c-0.2-0.2-0.2-0.4,0-0.7c1.5,0.3,2.7-0.9,4.1-0.7
	C336.3,59.9,335.4,60.2,336,60.4z"/>
<path fill="#FBF179" d="M338,52.8c0,0.2,0,0.4,0,0.7c-1.5-0.1-2.9-0.6-4.2-1.4c0.3-0.1,0.6-0.3,0.4-0.7
	C335.5,51.9,336.8,52.4,338,52.8z"/>
<path fill="#FEF56C" d="M318.7,79c-1.1-1.2-0.5-2.5-0.2-3.9c0.6,1,1.1,2,0.9,3.2C318.8,78.2,319.1,78.9,318.7,79z"/>
<path fill="#FEFC83" d="M297.4,54.9c-0.8-0.2-1.4,0.3-2.1,0.3c-0.3,0-0.6,0.1-0.7-0.2c-0.2-0.4,0.4-0.5,0.5-0.8c1,0,2,0,3.1,0
	c0.2,0.2,0.2,0.4,0,0.7C297.8,54.9,297.6,54.9,297.4,54.9z"/>
<path fill="#FDFC9A" d="M305.7,59.7c-0.6-0.8-1.6-0.6-2.5-0.8c0.3-0.2,0.6-0.4,0.8-0.6c0.8,0,1.6-0.1,2.3-0.1c0,0.5,0,1,0,1.5
	C306.1,59.7,305.9,59.7,305.7,59.7z"/>
<path fill="#FBE758" d="M298,69.3c0.8-1,2.1-0.8,3.1-1.4c0.3-0.1,0.4,0,0.4,0.4c-0.9,0.4-1.7,1.2-2.8,1.4
	C298.5,69.5,298.2,69.6,298,69.3z"/>
<path fill="#FBF175" d="M308.8,78.3c-0.5,0.6-0.6,2.1-1.4,1.7c-1-0.5,0.5-1.3,0.6-2.1c0-0.2,0.3-0.5,0.5-0.7
	C309.3,77.4,308.9,77.9,308.8,78.3z"/>
<path fill="#FBF88A" d="M294.6,70.7c0.4-0.7,1.1-0.7,1.7-0.7c0.4-0.2,0.9-0.5,1,0.3c-0.7,0.4-1.4,0.7-2,1.1
	C294.9,71.4,294.7,71.1,294.6,70.7z"/>
<path fill="#FCF889" d="M293.3,52.1c0,0.9,0,1.8,0,2.8l0,0c-0.2,0.2-0.4,0.2-0.7,0c0-1.1,0-2.3,0-3.4
	C293,51.4,293.2,51.7,293.3,52.1z"/>
<path fill="#FCF56E" d="M313.9,74.1c0.1,0.5-0.1,1.1,0.4,1.4c-0.2,0.6-0.4,1.3-0.7,2.4C313.1,76.3,313,75.2,313.9,74.1z"/>
<path fill="#FBF06D" d="M305.3,46.8c-1,0.7-2.1,0.4-3.3,0.4C303.2,46.4,304.3,46.6,305.3,46.8z"/>
<path fill="#FBDC4C" d="M325,50.7c0.2-0.1,0.4-0.2,0.6-0.3c0,1,0,2.1,0,3.1c-0.2,0.2-0.5,0.2-0.7,0C325,52.5,325,51.6,325,50.7z"/>
<path fill="#FCDF3A" d="M331.9,60.4c0,0.2,0,0.4,0,0.7c-0.4,0.4-0.9,0.6-1.3,0c-0.3-0.5,0.3-0.7,0.6-0.9
	C331.6,59.6,331.8,60,331.9,60.4z"/>
<path fill="#FDD733" d="M300.1,77.6c-1.1,0.1-1.5-0.3-1.4-1.4C299.8,76.1,300.3,76.5,300.1,77.6z"/>
<path fill="#FBF57A" d="M326.3,39.3c-0.5-0.3,0-0.6,0-1c0.6,0,0.8-0.8,1.4-0.6c0.2,0.2,0.2,0.5,0,0.7
	C327.6,39.3,326.6,38.8,326.3,39.3z"/>
<path fill="#FBE246" d="M299.8,59c0.4,0.6,1.3,0.1,1.7,0.7c-1,0-2.1,0-3.2,0C298.7,59,299.3,59,299.8,59z"/>
<path fill="#FCED65" d="M329.1,43.5c0-0.1,0-0.2,0-0.3c0.7,0,1.5-0.2,2.3,0.4c-0.8,0.4-1.5,0.2-2.2,0.3
	C328.9,43.7,328.9,43.6,329.1,43.5z"/>
<path fill="#FBF992" d="M336,60.4c-1.1-0.2-0.1-0.4,0-0.7c0.4,0,0.9,0,1.3-0.1c0.5,0,0.6,0.2,0.4,0.7
	C337.1,60.4,336.6,60.4,336,60.4z"/>
<path fill="#FBEB54" d="M329.1,65.9c0.3-0.1,1.1,0.2,0.7-0.7c0.6,0.3,1.2,0.6,2.2,1C330.7,66.4,329.9,66.4,329.1,65.9z"/>
<path fill="#FEF07A" d="M292.6,40.4c-0.6-1.1-0.5-2.3,0-3.4C292.7,38.1,293,39.2,292.6,40.4z"/>
<path fill="#FBF276" d="M297.3,70.3c-0.3-0.4-0.7-0.3-1-0.3c0.1-0.2,0.3-0.4,0.4-0.7c0.4,0,0.9,0,1.3-0.1c0.3,0,0.6,0.1,0.7,0.4
	C298.3,69.9,297.8,70.1,297.3,70.3z"/>
<path fill="#FBF27A" d="M329.7,36.9c0.4-0.4,0.8-0.6,1.4-0.7c0.4-0.2,0.8-0.2,0.8,0.4c-0.4,0.4-0.9,0.6-1.4,0.7
	C330.2,37.3,329.9,37.2,329.7,36.9z"/>
<path fill="#F8E956" d="M308.1,69.7c-0.3-0.6-0.1-1,0.6-1c0.4,0,0.5,0.4,0.4,0.7C308.9,70.2,308.4,69.8,308.1,69.7L308.1,69.7z"/>
<path fill="#FADF3C" d="M333.2,35.5c0-0.5,0.3-0.7,0.8-0.6c0.1,0,0.4,0.2,0.3,0.3c-0.2,0.5-0.5,1-1.2,1C333,36,333,35.8,333.2,35.5z
	"/>
<path fill="#FADC47" d="M325.6,59.7c-1.2-0.7-0.8-1.4,0-2.1C325.6,58.3,325.6,59,325.6,59.7z"/>
<path fill="#FAEB64" d="M333.2,35.5c0,0.2,0,0.5,0,0.7c-0.5,0-0.9,0.1-1.3,0.4c-0.2-0.3-0.5-0.4-0.8-0.4
	C331.7,35.6,332.4,35.5,333.2,35.5z"/>
<path fill="#FCE852" d="M331.2,51.4c-0.7,0-0.9-0.5-1.3-1c0.6-0.3,1,0,1.3,0.4C331.4,50.9,331.4,51.1,331.2,51.4z"/>
<path fill="#FCDF45" d="M327,64.5c-0.7,0.2-1.4-0.2-2.1-0.4c0-0.1,0-0.2,0-0.3C325.7,64,326.7,63.3,327,64.5z"/>
<path fill="#FBF474" d="M333.2,52.1c-0.6,0-1-0.2-1.4-0.6c0.1-0.3,0.5-0.4,0.7-0.6c0.4,0,0.7,0.1,0.7,0.6
	C333.4,51.6,333.4,51.8,333.2,52.1z"/>
<path fill="#FBF790" d="M329.7,36.9c0.3,0,0.6,0.1,0.7,0.4c-0.4,0.5-0.9,0.3-1.4,0.4c-0.2,0-0.2-0.2-0.3-0.4
	C329,36.8,329.4,37,329.7,36.9z"/>
<path fill="#FADE35" d="M305.6,72.8c0,0.5-0.3,0.7-0.7,0.7c-0.2,0-0.5-0.1-0.4-0.3c0-0.1,0.3-0.2,0.5-0.3
	C305.2,72.6,305.4,72.6,305.6,72.8z"/>
<path fill="#FBD434" d="M325,53.5c0.2,0,0.5,0,0.7,0c0,0.5,0,0.9,0,1.4C324.7,54.7,325,54,325,53.5z"/>
<path fill="#FBFB8F" d="M308.1,69.7c0,0.6-0.2,1-0.9,1.2C306.9,70,307.4,69.8,308.1,69.7L308.1,69.7z"/>
<path fill="#FCF288" d="M332.5,50.8c0,0.5-0.3,0.6-0.7,0.6c-0.2,0-0.4,0-0.6-0.1c0-0.2,0-0.4,0-0.7
	C331.6,50.7,332.1,50.8,332.5,50.8z"/>
<path fill="#FBDF3A" d="M308.4,76.9c0-0.5,0.3-0.7,0.7-0.7c0.2,0,0.5,0.1,0.5,0.3c0,0.1-0.3,0.2-0.5,0.3
	C308.9,77.1,308.7,77.1,308.4,76.9z"/>
<path fill="#FBE244" d="M292.9,28c0.1,0,0.2,0,0.3,0c-0.1,0.5,0.2,1.3-0.7,1.4c0-0.5,0-0.9,0-1.4C292.7,27.8,292.8,27.8,292.9,28z"
	/>
<path fill="#FEFC8F" d="M329.1,43.5c0,0.1,0,0.2,0,0.4c-0.9,0-1.8,0-2.8,0C327.2,43.2,328.2,43.6,329.1,43.5z"/>
<path fill="#FEDA5F" d="M292.5,47.3c-0.9-0.6-0.9-1.1,0-1.7c0.3,0.3,0.3,0.7,0,1C292.6,46.8,292.6,47,292.5,47.3z"/>
<path fill="#FDFA93" d="M328.8,37.3c0.1,0.1,0.2,0.3,0.3,0.4c-0.3,0.5-0.8,0.7-1.4,0.7c0-0.2,0-0.5,0-0.7
	C328.1,37.6,328.5,37.7,328.8,37.3z"/>
<path fill="#FBDE38" d="M292.6,46.6c0-0.3,0-0.7,0-1c0-0.1,0-0.2,0-0.3C293.2,45.7,293.8,46.1,292.6,46.6z"/>
<path fill="#FCF692" d="M333.2,52.1c0-0.2,0-0.5,0-0.7c0.3,0,0.7,0.1,1,0.1c0.3,0.4,0.1,0.7-0.4,0.7
	C333.7,52.1,333.5,52.1,333.2,52.1z"/>
<path fill="#FAF380" d="M325.3,67.9c0-0.1,0-0.1,0-0.2c0.4-0.1,0.8,0.1,0.9,0.5c0,0.1-0.1,0.3-0.2,0.3
	C325.6,68.5,325.4,68.2,325.3,67.9z"/>
<path fill="#FDEF72" d="M326.3,72.8c0.3,0,0.5,0,0.8,0c0.3,0.1,0.7,0.3,0.4,0.5C327,73.6,326.7,73.1,326.3,72.8z"/>
<path fill="#FBE244" d="M293.2,30.8c-0.2,0-0.4,0-0.6,0c0-0.3,0-0.7,0-1C293.3,29.8,293.3,30.3,293.2,30.8z"/>
<path fill="#FDE03E" d="M301.5,68.3c-0.1-0.1-0.2-0.2-0.4-0.4c0.2-0.3,0.4-0.8,0.8-0.4C302.4,67.9,301.8,68.1,301.5,68.3z"/>
<path fill="#F8ED65" d="M305.6,72.8c-0.2,0-0.5,0-0.7,0c0-0.4,0.2-0.7,0.7-0.7c0.1-0.1,0.3-0.1,0.4,0
	C305.9,72.3,305.8,72.6,305.6,72.8z"/>
<path fill="#FBF385" d="M306,72.1c-0.1,0-0.3,0-0.4,0c0-0.3,0.1-0.7,0.5-0.7c0.1,0,0.3,0,0.3,0.1C306.5,71.9,306.3,72,306,72.1z"/>
<path fill="#FBDE3B" d="M298.1,54.9c0-0.2,0-0.4,0-0.7c0.3,0.1,0.8-0.2,0.8,0.3C298.8,54.8,298.4,54.8,298.1,54.9z"/>
<path fill="#F9EF6D" d="M308.4,76.9c0.2,0,0.5,0,0.7,0c-0.1,0.5,0.2,1-0.4,1.4c0-0.4,0.1-0.8-0.3-1C308.4,77.2,308.4,77,308.4,76.9z
	"/>
<path fill="#7E6E15" d="M412.1,65.8c-0.7-1-0.2-2-0.3-3c0.1,0.1,0.2,0.2,0.3,0.4C412.4,64,412.4,64.9,412.1,65.8z"/>
<path fill="#625300" d="M412.1,65.8c0-0.9,0-1.8,0-2.6c0.6,0.9,0.2,1.9,0.3,2.8C412.3,65.9,412.2,65.8,412.1,65.8z"/>
<path fill="#FE4A45" d="M455.9,51.4c0,0.6,0,1.1,0,1.7C455.5,52.6,455.4,52,455.9,51.4z"/>
<path fill="#F58002" d="M34.1,44c3-5.5,6.1-11,9.5-16.2c1.3-2,1.4-2.1,3.4-0.8c3.5,2.2,6.4,5.1,8.5,8.7c0.2,0.5,0.3,1,0.7,1.4
	c1.1,3.1,1,3-2.4,3.5c-5.4,0.7-10.7,1.5-15.9,3.2c-1,0.3-2.1,0.6-3.1,0.9C34.1,44.9,33.8,44.7,34.1,44z"/>
<path fill="#F58002" d="M49.2,65L49.2,65c-4.7,3.7-5,3.7-7.8-1.3c-2.5-4.5-5.4-8.9-7.6-13.7c-0.2-0.4-0.6-0.8-0.3-1.1
	c0.3-0.4,0.8-0.2,1.3,0c4.2,1.6,8.4,3.3,12.8,4.3c2.3,0.5,4.7,1,7,1.6c1.9,0.5,2.2,1,1.1,2.7c-1.5,2.4-3.1,4.8-5.5,6.5
	C49.8,64.2,49.5,64.6,49.2,65z"/>
<path fill="#F58002" d="M34.1,47.1c1-1.1,2.2-1.2,3.3-1.6c6.2-2,12.6-2.9,19-3.8c0.5-0.1,1.1-0.2,1.1,0.6c0.4,3.4,0.7,6.7,0,10.1
	c-0.2,1-0.8,1.4-1.8,1.2C48.4,52,41.1,50.2,34.1,47.1z"/>
<path fill="#F58001" d="M32.4,43.6c-0.8-1.6-1.7-3-2.8-4.3c-0.4-0.4-0.4-0.9-0.4-1.5c0-3.9,0-7.8,0-11.7c0-1.1,0.3-1.8,1.5-1.8
	c3.7,0.1,7.3-0.4,11,0.4c1,0.2,1.6,0.5,0.9,1.7c-3.3,5.3-6.7,10.5-9.4,16.1C33,42.9,32.7,43.2,32.4,43.6z"/>
<path fill="#F58002" d="M38.9,62.6c1.3,1.5,2.1,3.4,3.2,5.1c0.5,0.8,0.2,1.1-0.6,1.2c-3.7,0.7-7.5,0.6-11.3,0.6
	c-0.8,0-0.9-0.5-0.9-1.1c0-4.2,0-8.5,0-12.7c0-0.6,0.2-1,0.7-1.3c1.2-0.8,1.9-1.9,2.6-3.4c1.8,3.2,3.4,6.2,5.1,9.2
	c0.2,0.3,0.3,0.8,0.7,1.1l0,0c0.4,0.6-0.1,0.9-0.4,1.3c-0.3,0.5-0.6,1,0.1,1.4c0.5-0.3,0.1-0.7,0.2-1.1
	C38.3,62.5,38.5,62.3,38.9,62.6z"/>
<path fill="#EE8006" d="M38.9,62.6c-0.5,0-0.5,0.3-0.3,0.7s0.6,0.9,0,1.2c-0.4,0.3-0.8,0-1.2-0.3c-0.5-0.4-0.7-0.9-0.3-1.5
	c0.4-0.5,1-0.8,1.1-1.5C38.6,61.6,38.9,62,38.9,62.6z"/>
<path fill="#EDAC4D" d="M34.1,44c0,0.5,0.3,0.7,0.7,0.8c-0.4,0.7-1.1,0.7-2,0.9C33.3,45,33.4,44.3,34.1,44z"/>
<path fill="#E88F22" d="M45.1,19.2c0.5,0.1,0.9-0.6,1.4,0c0,0.2,0,0.4,0,0.6C46,19.6,45.4,19.7,45.1,19.2z"/>
<path fill="#EF8B17" d="M49.2,65c-0.1-0.8,0.3-1.1,1.1-1C50.1,64.5,49.7,64.8,49.2,65z"/>
<path fill="#F9BC55" d="M56.1,37.1c-0.6-0.3-0.7-0.8-0.7-1.4C55.9,36.1,56.1,36.6,56.1,37.1z"/>
<path fill="#EE8006" d="M38.2,61.3c-0.7,0-0.7-0.6-0.7-1.1C37.9,60.4,38.2,60.8,38.2,61.3z"/>
<path fill="#FEDC24" d="M386.9,51c0,2.7,0,5.3,0,8C385.9,56.3,386.6,53.6,386.9,51z"/>
<path fill="#FACE33" d="M292.9,28c-0.1,0-0.2,0-0.3,0c0.1-0.9,0.8-0.7,1.3-0.7c3.9,0,7.8,0,11.7,0c-0.5,0.5-1.1,0.3-1.6,0.3
	c-3.1,0-6.2,0-9.3,0C294.1,27.7,293.4,27.4,292.9,28z"/>
<path fill="#FBE852" d="M292.6,54.9c0.2,0,0.5,0,0.7,0c-0.2,0.7-0.2,1.5-0.7,2.1C292.6,56.2,292.6,55.6,292.6,54.9z"/>
<path fill="#FDD946" d="M293.2,67.3c1.1,0.2,0.5,1.1,0.7,1.7C293.4,68.5,293.7,67.8,293.2,67.3z"/>
</svg>
