<?xml version="1.0" encoding="utf-8"?>
<!-- Generator: Adobe Illustrator 19.2.1, SVG Export Plug-In . SVG Version: 6.00 Build 0)  -->
<!DOCTYPE svg PUBLIC "-//W3C//DTD SVG 1.1//EN" "http://www.w3.org/Graphics/SVG/1.1/DTD/svg11.dtd">
<svg version="1.1" id="Layer_1" xmlns="http://www.w3.org/2000/svg" xmlns:xlink="http://www.w3.org/1999/xlink" x="0px" y="0px"
	 viewBox="0 0 612 802.5" enable-background="new 0 0 612 802.5" xml:space="preserve">
<g>
	<path fill="#F15C27" d="M502.1,474.4c0,0-10.4-18-29.1-15.5c-18.7,2.5-65,15.4-71.2,35.6c-0.6,17.3,64,14.9,83.8,7.5
		C508.4,495.2,506.7,483.9,502.1,474.4z"/>
	<path fill="#079247" d="M492.2,473.1c0.3-0.9,1-1.5,2.1-1.7L529,466c1.9-0.3,4,0.8,4.8,2.4c0.8,1.6,0.1,2.6-1.8,2.9l-24,3.2
		l18.6,6.9c2,0.7,3.1,2.8,2.7,4.3c-0.5,1.5-2.5,2.4-4.5,1.7l-29.6-10.9c-1.5-0.6-2.8-1.5-2.9-2.8
		C492.2,473.4,492.2,473.4,492.2,473.1z"/>
	<path fill="#3DB54A" d="M492.2,473.1c0.1-0.3,0.3-0.6,0.5-0.9l19.3-19.3c1.1-1.1,3.4-1.1,5.1,0.1c1.7,1.2,2.1,3.1,1,4.3l-19.3,19.3
		c-1.1,1.1-3.4,1.1-5.1-0.1C492.5,475.6,491.9,474.2,492.2,473.1z"/>
	<path fill="none" d="M491.1,500c0,0-14.3-12.2-15.6-21.6"/>
</g>
<text transform="matrix(1 0 0 1 41.7818 67.7855)"><tspan x="0" y="0" fill="#EB2728" font-family="'ProximaNovaSoft-Bold'" font-size="36px">An average family of four needs </tspan><tspan x="109.8" y="43.2" font-family="'ProximaNovaSoft-Bold'" font-size="36px">(measured in cups)</tspan></text>
<g>
	<text transform="matrix(1 0 0 1 110.4238 488.738)" fill="#010101" font-family="'ProximaNovaSoft-Bold'" font-size="74.9712px">8x</text>
</g>
<g>
	<text transform="matrix(1 0 0 1 98.2539 269.8113)" fill="#010101" font-family="'ProximaNovaSoft-Bold'" font-size="77.8547px">9x</text>
</g>
<g>
	<g>
		<g>
			<path fill="#412312" d="M234.8,221.5c1.1,0.2,2.1,0,3-0.5c1-0.6,1.7-1.5,1.9-2.7c0.5-2.3-1-4.4-3.3-4.9
				c-19.3-3.9-20.5-20.8-20.5-21.5c-0.1-2.3-2.1-4-4.3-3.9c-2.3,0.1-4.1,2-4,4.3C208.1,200.5,214.2,217.3,234.8,221.5z"/>
			<path fill="#673090" d="M375.6,243.9c-0.3-1.7-0.6-3.5-1.2-5.2c-2.4-7.4-7.2-13.4-13.4-17.4c0.7-3.8,0.5-7.9-0.7-11.8
				c-4.2-13.3-19-20.5-32.9-16c-1.8,0.6-3.5,1.3-5,2.2c-0.2-1.1-0.4-2.1-0.7-3.2c-3.4-10.7-15.3-16.5-26.4-12.9
				c-4.8,1.5-8.7,4.5-11.3,8.3c-8.7-10-23.6-12.6-35.3-5.5c-13,7.9-17.2,24.7-9.5,37.8c-6.6-1.4-13.8-0.4-20,3.4
				c-13.1,7.9-17.3,25-9.3,38.1c6.9,11.4,20.7,16,32.8,11.8c0.4,1,0.9,2.1,1.5,3c7.1,11.8,22.5,15.5,34.3,8.4c2.9-1.7,5.3-4,7.1-6.5
				c0.2,0.4,0.4,0.8,0.6,1.2c7,11.5,22,15.2,33.5,8.2c3.1-1.9,5.6-4.4,7.6-7.2c7.3,2.9,15.8,3.3,24,0.7l0,0
				c5.8,5.1,14.3,7.1,22.5,4.5c12.2-3.9,19-16.4,15.3-28C386.9,251,381.8,246.2,375.6,243.9z M287.5,252.1c-0.3-0.5-0.5-1-0.8-1.5
				c-5.7-9.4-16.6-13.7-26.8-11.4c-0.6-2.1-1.5-4.1-2.7-6.1c6.6,1.4,13.7,0.4,20-3.4c0.1,4.1,1.2,8.3,3.5,12.1
				c2.1,3.5,5.1,6.3,8.4,8.3C288.6,250.8,288.1,251.4,287.5,252.1z"/>
		</g>
		
			<ellipse transform="matrix(0.4683 -0.8836 0.8836 0.4683 -10.194 370.4985)" fill="#FFFFFF" cx="302.7" cy="193.7" rx="5.8" ry="10.2"/>
		
			<ellipse transform="matrix(0.4683 -0.8836 0.8836 0.4683 -111.8208 336.5566)" fill="#FFFFFF" cx="223.7" cy="261.2" rx="5.8" ry="10.2"/>
		
			<ellipse transform="matrix(0.7306 -0.6828 0.6828 0.7306 -81.3819 265.3442)" fill="#FFFFFF" cx="295.6" cy="235.8" rx="5.8" ry="10.2"/>
	</g>
	<ellipse fill="#F79421" cx="379.3" cy="254.8" rx="54.9" ry="54.5"/>
	<path fill="#046937" d="M386.6,205.7c0,0,10.7-30.5,24.4-19.9C423.8,195.6,394.7,205.7,386.6,205.7z"/>
	
		<ellipse transform="matrix(0.8033 -0.5955 0.5955 0.8033 -54.8842 287.1567)" fill="#FFFFFF" cx="407.3" cy="226.7" rx="6.9" ry="12.3"/>
	<path fill="#8D633A" d="M383.3,208.6c-3.2,0-6.4-1.9-6.4-4.2v-16.7c0-2.3,3.1-4.2,6.4-4.2c3.2,0,6.4,1.9,6.4,4.2v16.7
		C389.6,206.7,386.5,208.6,383.3,208.6z"/>
	<g>
		<path fill="#ED2224" d="M330.2,261.4c0,0-31.3,2.8-25.5,27.3c5.1,21.5,20.6,26,23.1,26.8c2.5,0.7,23.9,1.1,28.2-31.1
			C356.1,284.4,360.8,259.4,330.2,261.4z"/>
		<path fill="#046937" d="M335.3,274.8c-0.7,0-1.5-0.3-2-0.9l-8.3-9c-0.8-0.8-0.9-2-0.4-3.1c0.5-1,1.6-1.6,2.7-1.5l15.9,1.6
			c1.5,0.2,2.6,1.5,2.4,3c-0.2,1.5-1.5,2.6-3,2.4l-8.8-0.9l3.5,3.8c1,1.1,0.9,2.8-0.2,3.8C336.6,274.6,335.9,274.8,335.3,274.8z"/>
		<path fill="#046937" d="M311.3,271.1c-1.1,0-2.2-0.7-2.6-1.8c-0.5-1.4,0.3-3,1.7-3.4l15.7-5.4c1.4-0.5,3,0.3,3.4,1.7
			c0.5,1.4-0.3,3-1.7,3.4l-15.7,5.4C311.9,271.1,311.6,271.1,311.3,271.1z"/>
		<path fill="#046937" d="M318.6,276.4c-0.6,0-1.2-0.2-1.7-0.6c-1.2-0.9-1.4-2.6-0.5-3.8l7.6-9.7l-2.1-12.6
			c-0.3-1.5,0.7-2.9,2.2-3.1c1.5-0.3,2.9,0.7,3.1,2.2l2.3,13.7c0.1,0.8-0.1,1.5-0.5,2.1l-8.3,10.7
			C320.2,276.1,319.4,276.4,318.6,276.4z"/>
		<circle fill="#FFFFFF" cx="337.1" cy="288.2" r="2.2"/>
		<circle fill="#FFFFFF" cx="343.6" cy="290.3" r="2.2"/>
		<circle fill="#FFFFFF" cx="339.2" cy="294.7" r="2.2"/>
		<circle fill="#FFFFFF" cx="341.4" cy="282.7" r="2.2"/>
	</g>
	<g>
		<circle fill="#EC2227" cx="371.1" cy="309" r="8.9"/>
		
			<ellipse transform="matrix(0.7923 -0.6101 0.6101 0.7923 -114.5077 288.3515)" fill="#FFFFFF" cx="366.3" cy="312.4" rx="1.7" ry="4.1"/>
		<circle fill="#EC2227" cx="385.7" cy="307.7" r="10.5"/>
		
			<ellipse transform="matrix(0.7923 -0.6101 0.6101 0.7923 -111.2422 297.3705)" fill="#FFFFFF" cx="381.2" cy="312.1" rx="2.1" ry="5.1"/>
		<g>
			<path fill="#754D25" d="M371.1,304.8c-0.7,0-1.4-0.5-1.5-1.3c-0.8-5.5,1.1-11.4,5.4-16.9c3.2-4.1,6.6-6.6,6.8-6.7
				c0.5-0.4,1.3-0.4,1.8,0c0.5,0.4,0.7,1.1,0.5,1.7c0,0.1-4.4,12.4,1.5,18.4c0.6,0.6,0.6,1.6,0,2.1c-0.6,0.6-1.6,0.6-2.1,0
				c-4.6-4.6-4.3-11.8-3.5-16.6c-3.6,3.7-8.4,10.1-7.3,17.4c0.1,0.8-0.5,1.6-1.3,1.7C371.3,304.8,371.2,304.8,371.1,304.8z"/>
		</g>
	</g>
	<g>
		<path fill="#F6EB16" d="M425.9,207.2c0,0-51.8,75,30.7,98c39.2,8,59.2-24.3,59.2-24.3s1.8-5-5.8-4c-7.6,1-23.7,12.1-52.8-7.3
			c-29-19.4-24.7-50.2-21.5-56.1C439.1,207.7,436.5,195.9,425.9,207.2z"/>
		<path fill="#603A17" d="M432.3,212.8c-0.3,0-0.6,0-0.9-0.1c-2.9-0.5-4.8-3.3-4.3-6.1c1-5.6,7-11.7,8.9-13.5c2.1-2,5.5-2,7.5,0.1
			c2,2.1,2,5.5-0.1,7.5l0,0c-2.7,2.6-5.5,6.4-5.8,7.7C437,211,434.8,212.8,432.3,212.8z"/>
		<path fill="none" d="M428.1,228.8c0,0-17.5,61.2,57.4,55.4"/>
	</g>
</g>
<g>
	<path fill="#8DC641" d="M365.5,423.4c0,0-15.3-45.4,33.2-26.4c13.5,0,18.3,10.8,17,15.9c0,0,14.9,0.9,17.3,15.3c0,0,26.4,0,11.4,47
		l14.8,17.5c0,0,2.3,12.8-12,9.4l-15-17.9c0,0-54.7,4.7-43.1-22.5c0,0-18.3-6.5-11.8-21.2C377.4,440.6,360.6,437.7,365.5,423.4z"/>
	<path fill="none" d="M448.9,490.4c-21-19.7-67.4-84.4-67.4-84.4"/>
	<path fill="none" d="M430.5,443.2"/>
	<path fill="none" d="M430.5,443.2c0,0-9.5,10.6-2.8,23.5c0,0-20.2-8.2-26.6,0"/>
	<path fill="none" d="M414.8,421.2c0,0-9.5,10.6-2.8,23.5c0,0-20.2-8.2-26.6,0"/>
	<path fill="none" d="M397,407.5c0,0-7,7.8-2,17.3c0,0-14.9-6.1-19.6,0"/>
</g>
<path fill="#079247" d="M242.8,468.1c-1.3,0-2.6-0.6-3.4-1.6l-25.6-31.8c-1.4-1.7-1-4.1,0.9-5.4c1.9-1.3,3.3-0.9,4.6,0.8l16.6,22.3
	v-20c0-2.1,2.4-3.8,4.8-3.8s4.8,1.7,4.8,3.8v31.8c0,1.7-0.4,3.1-2.1,3.7C242.9,468.1,243.2,468.1,242.8,468.1z"/>
<g>
	<path fill="#079247" d="M307.3,446.2c-6.4-18.9-20.6-31.6-31.9-28.5c-11.3,3.1-15.5,21.1-9,39.9c5.8,17.1,18.5,29.1,28.6,29
		l5.5,16.1c0.7,1.9,2.9,3,5,2.4c2.1-0.6,3.3-2.6,2.6-4.5l-5.7-16.6C310.4,477.9,312.8,462.4,307.3,446.2z"/>
	<path fill="#079247" d="M373.8,460.6c9.7-17.7,9.1-35.8-1.5-40.5c-10.6-4.7-27.2,5.7-36.9,23.4c-8.8,16.1-8.6,32.7-1.3,38.8
		l-8.2,15.1c-1,1.8-0.2,4,1.8,4.8s4.4,0.2,5.4-1.6l8.5-15.5C352,485.6,365.5,475.9,373.8,460.6z"/>
	<path fill="#079247" d="M342.5,447.6c1.5-19.7-6.6-36.2-18.3-37s-22.8,14.6-24.4,34.3c-1.4,17.9,5.7,33.2,15,36.4l-1.3,16.8
		c-0.2,2,1.5,3.7,3.7,3.9c2.2,0.1,4.1-1.4,4.3-3.4l1.3-17.3C332.7,478.3,341.2,464.6,342.5,447.6z"/>
	<path fill="none" d="M322.1,419.9c0,0,4.2,20.3-2,57.4"/>
	<path fill="none" d="M367.3,432c0,0-3,27.9-25.9,46"/>
	<path fill="none" d="M276.6,426c0,0,15.6,22.9,20.4,54.6"/>
</g>
<path fill="#F15C27" d="M243,460.9c0,0-16.6,12.9-5.6,27.3s34.6,33.7,60.8,33.7c20.5-3.9,1.2-40.4-16-54.6
	C264.7,450.6,252.2,454.8,243,460.9z"/>
<path fill="#3DB54A" d="M242.8,468.1c-0.5,0-1-0.1-1.5-0.3L204.1,455c-2.2-0.8-3.3-3-2.5-5c0.8-2,3.3-3,5.5-2.2l37.1,12.8
	c2.2,0.8,3.3,3,2.5,5C246.1,467.2,244.5,468.1,242.8,468.1z"/>
<path fill="none" d="M278.4,463.8c0,0-9.8,17.4-22.2,21.5"/>
<g>
	<path fill="#C59C6D" d="M386.6,464.8L386.6,464.8c-34.3-9.9-43.9-2.4-43.9-2.4s-46,24.1-10.9,51.5c0.1,0.1,0.2,0.1,0.2,0.2
		c3.7,3.5,8.1,6.1,12.9,7.8c17.1,7.8,35.6,7.7,49.4,5.7c7.5,0.6,15.2-1.1,21.8-5.2c0,0,17.8-6.3,18.1-30.6
		C425,454.3,386.6,464.8,386.6,464.8z"/>
	<path fill="#603A17" d="M402,475.8c1.4,1.8,0.6,4.5-1.8,6c-2.4,1.5-5.5,1.2-6.9-0.6c-1.4-1.8-0.6-4.5,1.8-6
		C397.5,473.7,400.6,474,402,475.8z"/>
	<path fill="#603A17" d="M417,477.2c1.4,1.8,0.6,4.5-1.8,6c-2.4,1.5-5.5,1.2-6.9-0.6c-1.4-1.8-0.6-4.5,1.8-6
		C412.5,475.1,415.6,475.4,417,477.2z"/>
	<path fill="#603A17" d="M407.2,485.2c1.4,1.8,0.6,4.5-1.8,6c-2.4,1.5-5.5,1.2-6.9-0.6c-1.4-1.8-0.6-4.5,1.8-6
		S405.8,483.3,407.2,485.2z"/>
</g>
<path fill="#F7EB24" d="M160.7,624.4c0,35.5,0,71,0,107.5c-4-4.5-7.6-8.3-10.8-12.3c-2.6-3.2-4.1-4.1-6.4,0.4c-3.1,6-7,11.7-11,18.3
	c-3.6-7.6-6.9-14.7-10.6-22.6c-2.7,5.3-5,9.8-7.7,15.1c-2.6-5.3-4.9-9.9-7.5-15.2c-3.5,7.6-6.8,14.7-10.4,22.6
	c-4-6.5-7.9-12.4-11.3-18.5c-1.9-3.3-3-3.7-5.5-0.6c-3.3,4.2-7.1,8-11.5,12.8c0-35.4,0-69.8,0-104.1c1.1-2.6,3.3-4.2,5.4-5.9
	c6.4-5,14-7.2,21.7-9.2c6.1-1.6,14.2-1.1,17.8-5.5c5.8-7.1,11-3.2,16.4-1.9C141.7,608.3,153.7,612.3,160.7,624.4z M105.8,670.3
	c-1.5,3.9-4.8,6.3-7.5,9.1c-2,2.1-4.7,5.1-7,4c-2.6-1.2-1.2-5.1-0.5-7.8c0.5-2.2-0.2-3-2.3-3c-4,0-7.9,0-11.9,0
	c-2.2,0-2.9,1.2-2.5,3c0.9,4.2,1.1,8.5,2.7,12.5c1.7,4.5,4.7,7.7,9.5,8.3c4.7,0.6,8.2-1.8,10.5-5.9c1.3-2.2,2.6-4.4,3.6-6.7
	c2.3-5.1,5.1-9.9,9-13.9c3.8-1.7,7.8,0.2,12.3-0.2c-5.7-3-12-3.3-16.6-0.7C103.6,669.9,105.6,669.8,105.8,670.3z M131.4,643
	c2.1-1.2,3.2-2.1,4.5-2.5c5-1.4,4.6-4.6,3.1-8.3c-0.4-1-0.9-2.1-1.4-3c-3.4-5.3-8-5.4-10.9,0.3c-4.4,8.6-4.3,17.4-0.2,26.1
	c1.2,2.5,3.1,4.9,6.2,4.4c3.7-0.6,5-3.9,6.5-7c1.5-2.9-0.8-4-2.2-5.5C135.2,646.1,133.4,644.7,131.4,643z M103.7,636.1
	c-0.7-3.6-1.7-7.1-4.5-9.7c-2.6-2.3-5.2-2-7.5,0.5c-6,6.3-6,24.5,0.1,30.7c2.6,2.7,5.2,2.6,7.8,0.1c4.1-4,4.1-7.3,0.1-11.3
	c-4.2-4.2-4.1-4.1,1.3-7C102.2,638.7,104.2,638.4,103.7,636.1z"/>
<path fill="#F27667" d="M291.1,647.9c-1,27.5-0.5,55.1-0.8,84.1c-4.5-5-8.2-8.9-11.6-13c-1.8-2.2-2.7-1.8-4,0.4
	c-3.5,6-7.2,11.9-11.3,18.6c-3.5-7.3-6.7-14.1-10.3-21.5c-2.6,5-4.8,9.5-7.4,14.6c-2.5-5-4.8-9.6-7.3-14.7
	c-3.4,7.4-6.5,14.1-10,21.6c-4.5-7.3-8.8-14.2-13.2-21.3c-4.4,4.8-8.6,9.4-13.6,14.9c0-24,0-47.1,0-70.1c1.6-1.4,0.8-3.3,0.7-4.9
	c-0.3-9.2-1.6-18.4,0.1-27.5c0.4-2.5,0.4-5.2,3.7-5.9c13.4-2.9,25.9-8.6,38.7-13.2c4.8-1.8,8.9-3.8,9.9-9.4c0.7,1,1.3,2.1,2.1,3.1
	C268.2,618.4,279.6,633.1,291.1,647.9z M229.3,650.9c2.9-1.5,4.2-2.5,5.6-3c4.1-1.3,4.4-3.9,2.8-7.3c-0.6-1.3-1.1-2.7-1.8-3.9
	c-3.3-5.1-7.8-5.2-10.7,0.1c-4.7,8.5-4.5,17.3-0.7,26.1c1.2,2.7,3,5.2,6.4,4.9c3.6-0.4,4.9-3.7,6.4-6.4c1.8-3.1-0.5-4.7-2.4-6.3
	C233.4,653.6,231.6,652.6,229.3,650.9z M250.1,650.1c0.1,5,0.8,9.7,3.3,13.9c3.1,5.2,7.4,5.2,10.8,0.3c2.8-4,2.2-6.9-1.5-10.1
	c-4.2-3.6-4.1-4.1,0.9-6.3c3.5-1.5,4.1-3.5,2.7-6.6c-0.8-1.7-1.4-3.6-2.4-5.1c-3-4.3-6.9-4.3-10,0
	C250.9,640.5,250.4,645.4,250.1,650.1z M244.5,691.7c4.5-0.5,9.3-1.2,13.6-3.9c3.3-2.1,3.8-3.7,0.7-6.8c-3.8-3.8-7.7-5.4-12.8-3.3
	c-0.9,0.4-1.8,0.8-2.7,0.3c-6.6-3.3-11,0.1-15.4,4.6c-1.7,1.8-1.3,2.3,0.3,3.5C232.9,690,238.4,691.3,244.5,691.7z"/>
<path fill="#2EA8DF" d="M427.6,644.7c-0.3,30,0.4,60-0.9,90.4c-4.1-3.1-6.7-7.1-10-10.5c-2-2-3.1-2.2-4.9,0.1
	c-2.4,3-5.3,5.7-7.8,8.8c-1.7,2.1-2.7,1.5-3.9-0.4c-2.3-3.5-4.7-6.8-7.6-10.9c-2.4,4.7-4.5,8.7-6.9,13.3c-2.3-4.6-4.4-8.6-6.8-13.3
	c-2.6,3.8-5.1,7-7.1,10.5c-1.7,2.9-3,2.5-4.8,0.2c-2.4-2.9-5.1-5.5-7.5-8.4c-1.6-1.9-2.6-1.9-4.2,0c-3.1,3.6-6.4,7.1-10.6,10.3
	c0-29.3,0-58.6,0-87.9c16.9-7.7,34.3-13.2,53.2-10.6c9.6,1.3,19.3,2.5,28.1,7C426.5,643.9,427,644.3,427.6,644.7z M370,670.8
	c1.4-1.9,5-1.1,5.3-3.6c0.3-2.6-1.3-4.9-3.5-6.5c-2-1.4-3.9-1.1-5.8,0.3c-5,3.8-5,15.3-0.1,19.1c2.9,2.2,5.3,1.3,7.4-1.2
	c2.3-2.6,1.5-4.4-1.3-5.9C371.3,672.5,370.2,672,370,670.8z M401.4,671c0.9-0.5,1.5-1,2.2-1.2c3.1-0.9,4.7-2.2,2.8-5.7
	c-2.1-3.7-5-5.1-7.9-3.4c-5.6,3.3-5.7,16.3-0.2,19.8c3.1,1.9,5.3,0.5,7.3-1.9c2.4-2.8,0.4-4.1-1.7-5.5
	C403,672.6,402.3,671.8,401.4,671z"/>
<path fill="#EB267A" d="M568.6,658.1c0,24.4,0,48.9,0,74.5c-4-4-7.4-7.2-10.6-10.6c-1.7-1.8-2.9-2.1-4.6,0c-2.1,2.4-4.7,4.3-6.6,6.8
	c-2.8,3.7-4.6,2.7-6.8-0.6c-1.8-2.8-4-5.2-6.4-8.3c-2.4,4.2-4.6,7.9-7,12.2c-2.3-4.2-4.3-7.9-6.7-12.2c-2.7,3.6-5.3,6.8-7.6,10.2
	c-1.4,2.1-2.4,2-4,0.2c-2.5-2.8-5.4-5.2-7.9-8c-1.9-2.2-3.2-1.9-4.9,0.1c-2.9,3.5-6,6.9-9.7,9.9c-1.6-24.5-0.4-48.4-0.6-72.3
	c6.6-5.4,12.6-11.6,18.4-17.8c2.3-2.4,3.9-2.4,6.7-1.2c11.6,4.7,23.4,7,35.1,0.8c3.2-1.7,4.5-1.3,6.8,1.3
	C557.2,648.6,561.3,655.1,568.6,658.1z M532.4,703.1c-7.6,4.5-15,3-22.3-1c6.2,8.4,16.4,9,22.9,1.6c0.4-0.5,1.2-1,0.7-1.6
	C533.4,701.7,532.6,702.4,532.4,703.1z M508.3,680.1c1.8-0.7,3.5-1.4,5.3-2c1.1-0.4,1.8-0.8,1.8-2.2c-0.2-4.5-5.9-8.5-10-7.1
	c-3.9,1.4-6.4,6.2-6.3,11.9c0.1,5.4,2.9,10,6.8,11.1c3.8,1.1,6.3-1,8.2-4c2.2-3.5-1.5-3.8-2.9-5.2
	C510.1,681.9,508.8,681.6,508.3,680.1z M533.8,679c2.1-0.8,3.7-1.3,5.4-2c0.9-0.4,2.4-0.5,2.2-1.9c-0.4-2.6-1.6-4.8-3.7-6.5
	c-2-1.6-4.3-2.2-6.7-0.9c-4.2,2.2-5.7,5.9-5.9,10.3c-0.2,4.9,0.8,9.3,5.4,12c3.2,1.8,7,0.4,9.3-3c2.7-4-1.5-4.2-3.1-5.8
	C535.9,680.4,535,679.9,533.8,679z"/>
<path fill="#EB2728" d="M425.9,643.5c-8.8-4.6-18.5-5.7-28.1-7c-18.9-2.6-36.3,2.9-53.2,10.6c-3.1-6.5-1.4-13.2-0.3-19.7
	c2.5-15,14-20.6,26.9-24.4c2.8-0.8,5.8-1.2,8.7-1.8c3.9,0,7.8,0,11.7,0c3.8,0.8,7.6,1.6,11.3,2.6c7,1.7,13.1,5.1,17.7,10.8
	c1.2,2.2,2.7,4.4,3.4,6.7C426.4,628.4,429.5,635.7,425.9,643.5z"/>
<path fill="#775026" d="M160.7,624.4c-7-12.1-19-16.1-31.5-19.1c-5.3-1.3-10.6-5.2-16.4,1.9c-3.6,4.4-11.7,3.9-17.8,5.5
	c-7.7,2-15.3,4.2-21.7,9.2c-2.1,1.7-4.3,3.3-5.4,5.9c-1.2,0.6-1.2,2.5-2.8,2.9c-2.2-23.1,7.4-48.5,33.5-52.8
	c13-2.2,26.3-1.9,39.1,1.6c16.4,4.5,25.6,18.2,24.4,35.1C161.9,617.9,162.3,621.3,160.7,624.4z"/>
<path fill="#F7EB24" d="M568.6,658.1c-7.3-3-11.5-9.5-16.3-15.1c-2.2-2.7-3.6-3-6.8-1.3c-11.7,6.2-23.6,4-35.1-0.8
	c-2.8-1.2-4.4-1.2-6.7,1.2c-5.8,6.2-11.8,12.4-18.4,17.8c-2-7.1-1.6-14.3-1.5-21.5c2.6,0.8,5.3,0.8,6.6-1.8
	c2.5-5.1,6.4-8.6,11.3-11.4c3.7-2,3.4-4.4-0.1-6.7c-1.3-0.8-2.6-1.3-4.2-1.4c-0.1-0.2-0.3-0.4-0.4-0.6c9.1-7.6,19.8-10,31.3-9.9
	c8.2,0.1,16,1.5,22.9,6.4l0,0c-3.5-0.2-6.8,0.9-7.6,4.3c-0.8,3.4,2.9,4.4,5.3,5.7c2.8,1.4,4.9,3.6,6.4,6c4.3,7.1,5.5,7.4,11.8,2.3
	C569,640.1,570.4,649,568.6,658.1z"/>
<path fill="#F7DE4D" d="M254.6,600.5c-1,5.6-5.1,7.7-9.9,9.4c-12.8,4.7-25.3,10.3-38.7,13.2c-3.3,0.7-3.3,3.4-3.7,5.9
	c-1.6,9.2-0.4,18.4-0.1,27.5c0.1,1.6,0.9,3.5-0.7,4.9c-7.2-11.5-11-24.2-13.1-37.5c-1.6-10.3,2-19.1,8.8-26.7
	c11.8-13.2,27.3-19.9,44.1-23.7c5.1-1.2,9.7,0.2,13.5,3.9C256.5,585.2,255.6,592.8,254.6,600.5z"/>
<path fill="#FFCD0E" d="M254.6,600.5c1-7.6,1.9-15.2,0.3-22.9c27.7-1.1,43.5,15.8,48.4,40.5c0.8,4-0.1,7.9-2,11.5
	c-3.3,6.1-7.8,11.6-10.2,18.3c-11.5-14.8-22.9-29.5-34.3-44.3C256,602.6,255.3,601.5,254.6,600.5z"/>
<path fill="#F7EB24" d="M551.4,613c1.5-2.5,1.3-5.7,3.2-8.1c5.9-7.6,18.5-8.2,25.1-1.1c6.7,7.2,3,18.3-7.2,20.9
	c-2.3,0.6-4.7,0.6-7.1,0.9C558.1,624.2,553.8,619.7,551.4,613L551.4,613z"/>
<path fill="#F7EB24" d="M483.3,629.4c-6.1,0.4-11.7-0.5-15.8-5.7c-3.5-4.4-3.7-10.1-0.2-14.5c4.3-5.3,10-7.1,16.5-5.7
	c6.1,1.3,10.7,4.7,11.7,11.4c0.2,1.1,0.5,1.7,1.6,1.6c0.1,0.2,0.3,0.4,0.4,0.6c-1.1,0.5-1.9,1.2-2.3,2.5
	C493.5,625.4,489,628.2,483.3,629.4z"/>
<path fill="#C12A2F" d="M425.9,643.5c3.6-7.8,0.5-15-1.8-22.3c-0.8-2.4-2.3-4.5-3.4-6.7c12.1-5.4,20.8-0.2,26.2,8.4
	c3.8,6.1,2.1,11.7-4.3,14.8c-5,2.4-10,4.7-15,7C427,644.3,426.5,643.9,425.9,643.5z"/>
<path fill="#BA589B" d="M483.3,629.4c5.7-1.2,10.2-4,12-9.9c0.4-1.3,1.2-2,2.3-2.5c1.5,0,2.9,0.5,4.2,1.4c3.5,2.3,3.8,4.7,0.1,6.7
	c-5,2.8-8.8,6.2-11.3,11.4c-1.3,2.6-4,2.7-6.6,1.8C479.1,634.2,479,633.5,483.3,629.4z"/>
<path fill="#BA589B" d="M551.4,613c2.4,6.7,6.8,11.2,13.9,12.5c1.5,1.6,3,3.2,2,5.7c-6.3,5.1-7.5,4.8-11.8-2.3
	c-1.5-2.5-3.6-4.7-6.4-6c-2.5-1.2-6.2-2.2-5.3-5.7C544.6,613.9,547.9,612.8,551.4,613z"/>
<path fill="#C12A2F" d="M391.7,601.1c-3.9,0-7.8,0-11.7,0c0-4.2,3-4.8,6.1-4.8C389.1,596.3,391.8,597.1,391.7,601.1z"/>
<path fill="#FFCD0E" d="M109.3,670c-3.9,4.1-6.6,8.9-9,13.9c-1.1,2.3-2.4,4.5-3.6,6.7c-2.3,4.1-5.8,6.5-10.5,5.9
	c-4.8-0.6-7.8-3.8-9.5-8.3c-1.5-4-1.7-8.3-2.7-12.5c-0.4-1.8,0.4-3.1,2.5-3c4,0.1,7.9,0,11.9,0c2.1,0,2.8,0.7,2.3,3
	c-0.6,2.7-2,6.5,0.5,7.8c2.3,1.1,5-1.9,7-4c2.7-2.9,6-5.3,7.5-9.1C107,670.2,108.2,670.1,109.3,670z"/>
<path fill="#2D2761" d="M131.4,643c2.1,1.7,3.9,3.1,5.4,4.6c1.5,1.4,3.7,2.5,2.2,5.5c-1.5,3-2.8,6.4-6.5,7c-3,0.5-5-1.9-6.2-4.4
	c-4.1-8.7-4.2-17.5,0.2-26.1c2.9-5.7,7.6-5.6,10.9-0.3c0.6,0.9,1,2,1.4,3c1.6,3.7,2,6.9-3.1,8.3C134.6,640.9,133.4,641.8,131.4,643z
	"/>
<path fill="#2D2761" d="M103.7,636.1c0.5,2.3-1.5,2.5-2.8,3.2c-5.4,2.9-5.4,2.9-1.3,7c4.1,4.1,4.1,7.3-0.1,11.3
	c-2.6,2.5-5.2,2.6-7.8-0.1c-6.1-6.2-6.1-24.4-0.1-30.7c2.4-2.5,5-2.8,7.5-0.5C102,629,103,632.5,103.7,636.1z"/>
<path fill="#413E3F" d="M109.3,670c-1.2,0.1-2.4,0.2-3.6,0.3c-0.2-0.5-2.2-0.4-0.7-1.2c4.6-2.6,10.8-2.3,16.6,0.7
	C117.2,670.2,113.2,668.3,109.3,670z"/>
<path fill="#2D2761" d="M229.3,650.9c2.4,1.7,4.2,2.8,5.7,4.1c1.8,1.6,4.2,3.2,2.4,6.3c-1.6,2.8-2.8,6-6.4,6.4
	c-3.4,0.4-5.2-2.2-6.4-4.9c-3.9-8.8-4-17.6,0.7-26.1c2.9-5.3,7.4-5.2,10.7-0.1c0.8,1.2,1.2,2.6,1.8,3.9c1.6,3.4,1.3,6-2.8,7.3
	C233.4,648.4,232.1,649.3,229.3,650.9z"/>
<path fill="#2D2761" d="M250.1,650.1c0.3-4.7,0.8-9.6,3.8-13.8c3-4.3,7-4.3,10,0c1.1,1.5,1.7,3.4,2.4,5.1c1.4,3.1,0.8,5.1-2.7,6.6
	c-5.1,2.1-5.2,2.7-0.9,6.3c3.7,3.1,4.4,6,1.5,10.1c-3.4,4.9-7.7,4.9-10.8-0.3C250.9,659.9,250.2,655.2,250.1,650.1z"/>
<path fill="#EB2728" d="M244.5,691.7c-6.2-0.4-11.6-1.7-16.3-5.5c-1.5-1.2-2-1.7-0.3-3.5c4.4-4.5,8.8-7.9,15.4-4.6
	c1,0.5,1.8,0,2.7-0.3c5.1-2.1,9-0.5,12.8,3.3c3.1,3.1,2.6,4.7-0.7,6.8C253.9,690.6,249.1,691.2,244.5,691.7z M233.6,683.6
	c5,2.3,15.5,2.2,19.3,0C246.4,683.6,240.6,683.6,233.6,683.6z"/>
<path fill="#2D2761" d="M370,670.8c0.2,1.2,1.2,1.7,2.1,2.1c2.8,1.5,3.6,3.3,1.3,5.9c-2.2,2.5-4.5,3.4-7.4,1.2
	c-5-3.7-4.9-15.2,0.1-19.1c1.9-1.4,3.9-1.7,5.8-0.3c2.2,1.6,3.8,3.9,3.5,6.5C375,669.7,371.4,668.9,370,670.8z"/>
<path fill="#2D2761" d="M401.4,671c0.9,0.8,1.6,1.6,2.4,2.2c2.1,1.4,4.1,2.7,1.7,5.5c-2,2.4-4.2,3.8-7.3,1.9
	c-5.6-3.5-5.4-16.5,0.2-19.8c3-1.7,5.8-0.4,7.9,3.4c1.9,3.5,0.3,4.8-2.8,5.7C402.9,670,402.3,670.5,401.4,671z"/>
<path fill="#2D2761" d="M508.3,680.1c0.5,1.6,1.8,1.8,2.7,2.6c1.5,1.4,5.1,1.7,2.9,5.2c-1.9,3-4.3,5.1-8.2,4
	c-3.9-1.1-6.7-5.7-6.8-11.1c-0.1-5.7,2.4-10.5,6.3-11.9c4.1-1.5,9.9,2.6,10,7.1c0.1,1.4-0.7,1.8-1.8,2.2
	C511.8,678.7,510.1,679.4,508.3,680.1z"/>
<path fill="#2D2761" d="M533.8,679c1.2,0.9,2.1,1.5,2.8,2.2c1.6,1.6,5.8,1.8,3.1,5.8c-2.3,3.4-6.1,4.9-9.3,3
	c-4.6-2.6-5.6-7.1-5.4-12c0.2-4.5,1.7-8.2,5.9-10.3c2.4-1.3,4.7-0.7,6.7,0.9c2.1,1.6,3.3,3.9,3.7,6.5c0.2,1.3-1.2,1.5-2.2,1.9
	C537.5,677.6,535.9,678.2,533.8,679z"/>
<path fill="#232020" d="M533,703.7c-6.5,7.3-16.7,6.8-22.9-1.6c7.3,4,14.7,5.5,22.3,1C532.6,703.3,532.8,703.5,533,703.7z"/>
<path fill="#232020" d="M532.4,703.1c0.2-0.7,1.1-1.3,1.3-1c0.5,0.6-0.3,1.1-0.7,1.6C532.8,703.5,532.6,703.3,532.4,703.1z"/>
<path fill="#C12A2F" d="M233.6,683.6c7,0,12.8,0,19.3,0C249.2,685.8,238.6,685.9,233.6,683.6z"/>
<text transform="matrix(1 0 0 1 268.291 405.9446)" font-family="'ProximaNovaSoft-Bold'" font-size="149.6403px">+</text>
</svg>
