<?xml version="1.0" encoding="utf-8"?>
<!-- Generator: Adobe Illustrator 19.2.1, SVG Export Plug-In . SVG Version: 6.00 Build 0)  -->
<!DOCTYPE svg PUBLIC "-//W3C//DTD SVG 1.1//EN" "http://www.w3.org/Graphics/SVG/1.1/DTD/svg11.dtd">
<svg version="1.1" id="Layer_1" xmlns="http://www.w3.org/2000/svg" xmlns:xlink="http://www.w3.org/1999/xlink" x="0px" y="0px"
	 viewBox="0 0 612 869.1" enable-background="new 0 0 612 869.1" xml:space="preserve">
<path fill="#F37567" d="M466,385.9l-0.3,2.6l-46.5,367c0,0-18.2,62-114.7,62.6c-0.3,0-0.5,0-0.8,0c-0.3,0-0.5,0-0.8,0
	c-96.5-0.6-114.7-62.6-114.7-62.6l-46.6-367.5l-0.3-2c0.5,0.2,1,0.4,1.5,0.6c9.1,4.6,22.3,9.6,41.7,13.8c3.4,0.8,6.9,1.6,10.4,2.3
	c52.3,10.9,108.5,10.1,108.7,10.1c0.2,0,53,0.7,103.8-9.1c5.1-1,10.2-2.1,15.2-3.3c19.4-4.2,32.7-9.2,41.7-13.8
	C465.1,386.3,465.5,386.1,466,385.9z"/>
<path fill="#E6E7E8" d="M446.1,285.5v43.1c0,16.5-63.7,29.8-142.2,29.8c-78.5,0-142.2-13.3-142.2-29.8v-43.1c0,2.5,1.5,5,4.4,7.4
	c6.7,5.5,20.7,10.4,39.6,14.2c1.1,0.2,2.3,0.5,3.5,0.7c1.1,0.2,2.2,0.4,3.3,0.6c0.2,0,0.5,0.1,0.7,0.1c0.8,0.1,1.6,0.3,2.5,0.4
	c1.1,0.2,2.2,0.4,3.4,0.6c1.4,0.2,2.8,0.4,4.2,0.6c3.8,0.6,7.7,1.1,11.8,1.5c3.7,0.4,7.5,0.8,11.4,1.2c1.8,0.2,3.6,0.3,5.4,0.5
	c0.5,0,1,0.1,1.5,0.1c1.6,0.1,3.2,0.3,4.8,0.4c1.6,0.1,3.1,0.2,4.7,0.3c1.3,0.1,2.7,0.2,4,0.2c1.3,0.1,2.6,0.2,3.9,0.2
	c4.3,0.2,8.7,0.4,13.1,0.5c2.2,0.1,4.4,0.1,6.6,0.2c0.7,0,1.4,0,2.1,0c0.7,0,1.4,0,2.1,0c1.2,0,2.4,0,3.5,0c1.9,0,3.8,0,5.7,0
	c1.9,0,3.8,0,5.7,0c1.2,0,2.4,0,3.5,0c0.7,0,1.4,0,2.1,0c0.7,0,1.4,0,2.1,0c2.2,0,4.4-0.1,6.6-0.2c4.4-0.1,8.7-0.3,13-0.5
	c1.5-0.1,3-0.2,4.5-0.3c0.9,0,1.8-0.1,2.7-0.2c1.8-0.1,3.5-0.2,5.3-0.3h0c2-0.1,3.9-0.3,5.9-0.5h0.2c2-0.2,3.9-0.3,5.9-0.5
	c0.9-0.1,1.7-0.1,2.5-0.2c0.4,0,0.8-0.1,1.3-0.1c1.1-0.1,2.2-0.2,3.2-0.3c1.5-0.2,3-0.3,4.4-0.5c1.9-0.2,3.7-0.5,5.5-0.7
	c0.1,0,0.2,0,0.3,0c1.7-0.2,3.3-0.4,4.9-0.7c1.4-0.2,2.8-0.4,4.2-0.6c1.2-0.2,2.4-0.4,3.6-0.6c2.5-0.4,5-0.8,7.4-1.3
	c1.2-0.2,2.4-0.5,3.5-0.7c16.2-3.3,28.8-7.3,36.3-11.8C443.4,292.2,446.1,288.9,446.1,285.5z"/>
<path fill="#D1D3D4" d="M446.1,285.5c0,3.4-2.7,6.7-7.8,9.7c-7.5,4.5-20,8.6-36.3,11.8c-1.2,0.2-2.3,0.5-3.5,0.7
	c-2.4,0.4-4.8,0.9-7.4,1.3c-1.2,0.2-2.4,0.4-3.6,0.6c-1.4,0.2-2.8,0.4-4.2,0.6c-1.6,0.2-3.3,0.5-4.9,0.7c-0.1,0-0.2,0-0.3,0
	c-1.8,0.2-3.6,0.5-5.5,0.7c-1.5,0.2-2.9,0.3-4.4,0.5c-1.1,0.1-2.2,0.2-3.2,0.3c-0.4,0-0.8,0.1-1.3,0.1c-0.8,0.1-1.7,0.2-2.5,0.2
	c-1.9,0.2-3.9,0.4-5.9,0.5h-0.2c-2,0.2-3.9,0.3-5.9,0.5h0c-1.8,0.1-3.5,0.3-5.3,0.3c-0.9,0.1-1.8,0.1-2.7,0.2
	c-1.5,0.1-3,0.2-4.5,0.3c-4.3,0.2-8.6,0.4-13,0.5c-2.2,0.1-4.4,0.1-6.6,0.2c-0.7,0-1.4,0-2.1,0c-0.7,0-1.4,0-2.1,0
	c-1.2,0-2.4,0-3.5,0c-1.9,0-3.8,0-5.7,0c-1.9,0-3.8,0-5.7,0c-1.2,0-2.4,0-3.5,0c-0.7,0-1.4,0-2.1,0c-0.7,0-1.4,0-2.1,0
	c-2.2,0-4.4-0.1-6.6-0.2c-4.4-0.1-8.8-0.3-13.1-0.5c-1.3-0.1-2.6-0.1-3.9-0.2c-1.3-0.1-2.7-0.2-4-0.2c-1.6-0.1-3.1-0.2-4.7-0.3
	c-1.6-0.1-3.2-0.2-4.8-0.4c-0.5,0-1-0.1-1.5-0.1c-1.8-0.1-3.6-0.3-5.4-0.5c-3.9-0.4-7.7-0.8-11.4-1.2c-4.1-0.5-8-1-11.8-1.5
	c-1.4-0.2-2.8-0.4-4.2-0.6c-1.2-0.2-2.3-0.4-3.4-0.6c-0.8-0.1-1.7-0.3-2.5-0.4c-0.3,0-0.5-0.1-0.7-0.1c-1.1-0.2-2.2-0.4-3.3-0.6
	c-1.2-0.2-2.3-0.4-3.5-0.7c-19-3.8-33-8.7-39.6-14.2c-2.9-2.3-4.4-4.8-4.4-7.4c0-16.5,63.7-29.8,142.2-29.8
	C382.4,255.7,446.1,269,446.1,285.5z"/>
<polygon fill="#ED2224" points="507.3,90 517.3,115.8 420.2,159 388.8,291 356.7,291 388.8,155.2 411.6,130.7 "/>
<path fill="#FFFFFF" d="M281,593.7h-60c-3.7,0-6.7-3-6.7-6.7v-60c0-3.7,3-6.7,6.7-6.7h60c3.7,0,6.7,3,6.7,6.7v60
	C287.7,590.7,284.7,593.7,281,593.7z"/>
<path fill="#FFFFFF" d="M388.5,592.6h-60c-3.7,0-6.7-3-6.7-6.7v-60c0-3.7,3-6.7,6.7-6.7h60c3.7,0,6.7,3,6.7,6.7v60
	C395.2,589.6,392.2,592.6,388.5,592.6z"/>
<path fill="#FFFFFF" d="M387.8,506.7h-60c-3.7,0-6.7-3-6.7-6.7v-60c0-3.7,3-6.7,6.7-6.7h60c3.7,0,6.7,3,6.7,6.7v60
	C394.5,503.6,391.5,506.7,387.8,506.7z"/>
<path fill="#FFFFFF" d="M388.8,765.3h-60c-3.7,0-6.7-3-6.7-6.7v-60c0-3.7,3-6.7,6.7-6.7h60c3.7,0,6.7,3,6.7,6.7v60
	C395.6,762.2,392.5,765.3,388.8,765.3z"/>
<path fill="#FFFFFF" d="M388.1,679.3h-60c-3.7,0-6.7-3-6.7-6.7v-60c0-3.7,3-6.7,6.7-6.7h60c3.7,0,6.7,3,6.7,6.7v60
	C394.9,676.2,391.8,679.3,388.1,679.3z"/>
<path fill="#FFFFFF" d="M281.3,506.7h-60c-3.7,0-6.7-3-6.7-6.7v-60c0-3.7,3-6.7,6.7-6.7h60c3.7,0,6.7,3,6.7,6.7v60
	C288.1,503.6,285,506.7,281.3,506.7z"/>
<path fill="#FFFFFF" d="M281.1,766.3h-60c-3.7,0-6.7-3-6.7-6.7v-60c0-3.7,3-6.7,6.7-6.7h60c3.7,0,6.7,3,6.7,6.7v60
	C287.9,763.3,284.9,766.3,281.1,766.3z"/>
<path fill="#FFFFFF" d="M280.5,679.3h-60c-3.7,0-6.7-3-6.7-6.7v-60c0-3.7,3-6.7,6.7-6.7h60c3.7,0,6.7,3,6.7,6.7v60
	C287.2,676.2,284.2,679.3,280.5,679.3z"/>
<g>
	<g>
		<path fill="#C1282D" d="M354.7,455.7c0,0-23.2-6.9-20.2,15.6c3,22.5,20.2,20.6,22.1,19c1.9-1.5,14.6,11.3,23-9.8
			S374,442.2,354.7,455.7z"/>
		<g>
			<path fill="#603A17" d="M355.2,459.8c-0.7,0-1.4-0.4-1.7-1.2c-1.8-4.1,0.9-11.9,1.2-12.8c0.4-1,1.4-1.5,2.4-1.2
				c1,0.4,1.5,1.4,1.2,2.4c-1.1,3-2.2,8.1-1.3,10c0.4,1,0,2.1-1,2.5C355.7,459.8,355.5,459.8,355.2,459.8z"/>
		</g>
	</g>
	<ellipse transform="matrix(0.9791 -0.2032 0.2032 0.9791 -88.8141 79.1406)" fill="#FFFFFF" cx="341" cy="472.1" rx="2.4" ry="7"/>
</g>
<g>
	<path fill="#C59C6D" d="M372.3,547.2L372.3,547.2c-10.9-14.1-17.1-13.4-17.1-13.4s-26.2-2.1-20.4,20c0,0,0,0.1,0,0.1
		c0.4,2.6,1.4,5,2.8,7.1c4.5,8.3,12.1,13.5,18.3,16.5c2.9,2.4,6.5,3.8,10.5,3.8c0,0,9.2,2.2,16.9-8.6
		C391.2,553.2,372.3,547.2,372.3,547.2z"/>
	<ellipse fill="#603A17" cx="372.5" cy="556.4" rx="2.6" ry="2.2"/>
	<ellipse fill="#603A17" cx="378.2" cy="561.3" rx="2.6" ry="2.2"/>
	<ellipse fill="#603A17" cx="371.7" cy="562.1" rx="2.6" ry="2.2"/>
</g>
<path fill="#046937" d="M243.5,719.5c-0.4,0.1-0.9,0.1-1.3-0.2c-7.9-4.4-8.2-12-7.3-15.5c0.3-0.9,1.2-1.5,2.2-1.3
	c0.9,0.3,1.5,1.2,1.3,2.2c-0.1,0.3-1.8,7.3,5.6,11.4c0.9,0.5,1.2,1.6,0.7,2.4C244.4,719.1,243.9,719.4,243.5,719.5z"/>
<path fill="#673090" d="M277.5,727.2c-1.3-5.3-6.5-8.7-11.8-7.8c0.8-2.2,1-4.6,0.4-7c-1.5-6.4-7.9-10.3-14.3-8.8
	c-6.3,1.5-10.2,7.9-8.8,14.2c-2.5-1.4-5.6-1.9-8.6-1.2c-6.4,1.5-10.3,7.9-8.8,14.3c1.3,5.5,6.3,9.2,11.8,9.1c0,0.5,0.1,1,0.2,1.4
	c1.4,5.7,7.1,9.3,12.9,7.9c1.4-0.3,2.7-0.9,3.8-1.7c0,0.2,0.1,0.4,0.1,0.6c1.3,5.6,7,9.1,12.6,7.7c5.6-1.3,9.1-7,7.7-12.6
	c-0.4-1.7-1.2-3.2-2.3-4.5C276.4,736.5,278.6,731.8,277.5,727.2z M249.1,728.3c0-0.9-0.1-1.9-0.3-2.8c2.5,1.4,5.5,1.9,8.6,1.2
	c-0.5,1.7-0.6,3.6-0.1,5.4c0.4,1.7,1.2,3.2,2.3,4.5c-0.3,0.2-0.6,0.4-0.9,0.6c0-0.2-0.1-0.5-0.1-0.7
	C257.4,731.8,253.5,728.7,249.1,728.3z"/>
<ellipse transform="matrix(0.5233 -0.8522 0.8522 0.5233 -512.0322 546.4778)" fill="#FFFFFF" cx="232.4" cy="730.9" rx="2.3" ry="4.6"/>
<g>
	<path fill="#ED2224" d="M365.2,629.2c0,0-26.5-10.8-29.9,8c-3,16.5,8.2,25.8,10,27.4s19.2,10.4,33.4-9.4
		C378.7,655.1,390.9,640.3,365.2,629.2z"/>
	<path fill="#046937" d="M364.9,640.2c-0.6-0.3-1.1-0.8-1.3-1.4l-3.8-9.4c-0.3-0.9-0.1-1.8,0.7-2.2c0.7-0.5,1.8-0.4,2.7,0.1
		l12.5,7.5c1.2,0.7,1.6,2,1,3s-2.1,1.1-3.2,0.4l-6.9-4.2l1.6,3.9c0.5,1.2-0.2,2.3-1.4,2.5C366.1,640.6,365.5,640.5,364.9,640.2z"/>
	<path fill="#046937" d="M346.5,628c-0.9-0.5-1.5-1.4-1.5-2.3c0.1-1.1,1.2-1.9,2.5-1.6l14.6,2.8c1.3,0.3,2.3,1.4,2.3,2.5
		c-0.1,1.1-1.2,1.9-2.5,1.6l-14.6-2.8C347,628.2,346.7,628.1,346.5,628z"/>
	<path fill="#046937" d="M350.8,634.6c-0.5-0.2-0.9-0.6-1.2-1.1c-0.7-1.1-0.3-2.3,0.9-2.7l9.4-3.5l2.4-9.3c0.3-1.1,1.6-1.6,2.9-1.2
		c1.3,0.4,2.1,1.7,1.8,2.8l-2.7,10.2c-0.1,0.6-0.6,1-1.1,1.2l-10.4,3.8C352.2,635,351.4,634.9,350.8,634.6z"/>
	
		<ellipse transform="matrix(0.4442 -0.8959 0.8959 0.4442 -381.2088 693.9277)" fill="#FFFFFF" cx="368.7" cy="654.2" rx="1.6" ry="2"/>
	
		<ellipse transform="matrix(0.4442 -0.8959 0.8959 0.4442 -383.3732 698.3311)" fill="#FFFFFF" cx="371.1" cy="658.2" rx="1.6" ry="2"/>
	
		<ellipse transform="matrix(0.4442 -0.8959 0.8959 0.4442 -378.1526 698.883)" fill="#FFFFFF" cx="374.2" cy="654.2" rx="1.6" ry="2"/>
</g>
<g>
	<path fill="#8DC641" d="M389.3,720.6c-0.3,16.4-13.6,29.5-30,29.5c-16.6,0-30-13.5-30-30.1c0-2,0.2-3.9,0.6-5.8l3,0.3
		c0,0.1,0,0.3,0,0.4c0,16.7,11.8,30.1,26.5,30.1c13,0,23.9-10.8,26.1-24.9L389.3,720.6z"/>
	<path fill="#FBB03C" d="M385.4,720.2c-2.2,14.1-13,24.9-26.1,24.9c-14.6,0-26.5-13.5-26.5-30.1c0-0.1,0-0.3,0-0.4L385.4,720.2z"/>
	<line fill="none" x1="381.2" y1="722.4" x2="373.1" y2="722"/>
	<line fill="none" x1="369.7" y1="721.4" x2="347.5" y2="719.7"/>
</g>
<g>
	<path fill="#F15C27" d="M239.4,546.7c0,0-9.2,7.9-3.1,16.7c6.1,8.8,19.2,20.6,33.8,20.6c11.4-2.4,0.7-24.7-8.9-33.3
		C251.5,540.5,244.5,543,239.4,546.7z"/>
	<path fill="#079247" d="M241,551.8c-0.6,0-1.2-0.3-1.6-0.8l-11.8-16.2c-0.6-0.9-0.4-2.1,0.4-2.7c0.9-0.6,3.3-0.4,4,0.4l9.5,11.4
		v-10.2c0-1.1,0.4-2,1.5-2c1.1,0,1.5,0.9,1.5,2v16.2c0,0.9-1.3,1.6-2.1,1.9C242.2,551.8,241.2,551.8,241,551.8z"/>
	<path fill="#3DB54A" d="M241,551.8c-0.2,0-0.5,0-0.7-0.1l-17.1-6.5c-1-0.4-1.5-1.5-1.1-2.5c0.4-1,1.5-1.5,2.5-1.1l17.1,6.5
		c1,0.4,1.5,1.5,1.1,2.5C242.5,551.3,241.8,551.8,241,551.8z"/>
	<path fill="none" d="M258.7,548.3c0,0-4.5,8.9-10.3,11"/>
</g>
<path fill="#F6EB16" d="M235,446.7c0,0-25.2,36.4,14.9,47.6c19,3.9,28.8-11.8,28.8-11.8s0.9-2.5-2.8-2c-3.7,0.5-11.5,5.9-25.6-3.6
	c-14.1-9.4-12-24.4-10.4-27.2C241.4,447,240.2,441.2,235,446.7z"/>
<path fill="#603A17" d="M238.1,449.4c-0.1,0-0.3,0-0.5,0c-1.4-0.2-2.3-1.6-2.1-3c0.5-2.7,3.4-5.7,4.3-6.6c1-1,2.7-1,3.6,0.1
	c1,1,1,2.7-0.1,3.6l0,0c-1.3,1.3-2.7,3.1-2.8,3.7C240.4,448.6,239.3,449.4,238.1,449.4z"/>
<path fill="none" d="M236.1,457.2c0,0-8.5,29.7,27.9,26.9"/>
<ellipse transform="matrix(0.8083 -0.5888 0.5888 0.8083 -329.903 268.1887)" fill="#F6EB16" cx="246.9" cy="640.7" rx="10.2" ry="31.5"/>
<ellipse transform="matrix(0.8083 -0.5888 0.5888 0.8083 -342.5757 285.6706)" fill="#046937" cx="267.4" cy="668.9" rx="3.2" ry="3.2"/>
<path fill="#3DB54A" d="M253.7,650c0,0-4.8-20.5,5.9-25.9c3.1-2.1-3.6,7,1.5,15c5.1,8,12.6,24.5,8.4,27.3
	c-4.2,2.8-6.2,8.8-28.4-12.1c-7.3-0.4-8.9,4.5-9.6,5.7c-2.5,2.3-4.8-2.8-1.5-11.4C231.7,644.3,236.7,635.8,253.7,650z"/>
<ellipse transform="matrix(0.8083 -0.5888 0.5888 0.8083 -322.4016 263.9106)" fill="#FFFFFF" cx="244.1" cy="627.1" rx="2" ry="2.6"/>
<path fill="#E6E7E8" d="M483.7,372.1c0,6.2-6.5,12.1-18,17.4l0.3-2.6c-0.5,0.2-1,0.4-1.5,0.6c-9.1,4.6-22.3,9.6-41.7,13.8
	c-5,1.2-10.1,2.3-15.2,3.3c-29.2,4.6-64.8,7.2-103.3,7.2c-41.1,0-79-3.1-109.2-8.2c-3.5-0.7-6.9-1.5-10.4-2.3
	c-19.4-4.2-32.7-9.2-41.7-13.8c-0.5-0.2-1-0.4-1.5-0.6l0.3,2c-10.8-5.1-16.9-10.8-16.9-16.8l-0.9-34.2c2,3.3,7.5,7.9,21.6,13.4
	c0.9,0.4,1.8,0.7,2.8,1.1c31.1,11.8,88.8,19.7,154.9,19.7c66.7,0,124.9-8.1,155.8-20.1c10.2-3.9,17.4-8.3,21-13v0
	c1.7-2.2,2.6-4.4,2.6-6.7l0.9,39.1L483.7,372.1z"/>
<path fill="#D1D3D4" d="M483.6,337.1c0,1-0.2,1.9-0.7,2.8v0.1c-4.1,9.4-27.6,17.7-62.9,23.5c-0.1,0-0.1,0-0.2,0
	c-31.3,5.1-71.8,8.2-116.1,8.2c-47.7,0-91-3.6-123.2-9.4c-0.1,0-0.2,0-0.3-0.1c-0.1,0-0.2,0-0.3,0c-31.6-5.8-52.3-13.8-55.5-22.6
	c-0.3-0.8-0.5-1.6-0.5-2.5c0-8,14-15.3,37.6-21.2v12.7c0,16.5,63.7,29.8,142.2,29.8c78.5,0,142.2-13.3,142.2-29.8V316
	c20.2,5,33.3,11.2,36.6,17.8c0,0,0,0,0,0.1c0,0,0,0,0,0C483.3,335,483.6,336,483.6,337.1z"/>
<text transform="matrix(1 0 0 1 75.9403 69.9863)" fill="#ED2224" font-family="'ProximaNovaSoft-Bold'" font-size="45px">WHAT MAKES A CUP?</text>
<g>
	<rect x="171.8" y="95.2" fill="none" width="136.1" height="170.6"/>
	<text transform="matrix(1 0 0 1 171.835 105.958)"><tspan x="0" y="0" fill="#010101" font-family="'ProximaNovaSoft-Regular'" font-size="16px">32x Grapes</tspan><tspan x="0" y="19.2" fill="#010101" font-family="'ProximaNovaSoft-Regular'" font-size="16px">8x Strawberries</tspan><tspan x="0" y="38.4" fill="#010101" font-family="'ProximaNovaSoft-Regular'" font-size="16px">1x Cantaloupe</tspan><tspan x="0" y="57.6" fill="#010101" font-family="'ProximaNovaSoft-Regular'" font-size="16px">12x Baby Carrots</tspan><tspan x="0" y="76.8" fill="#010101" font-family="'ProximaNovaSoft-Regular'" font-size="16px">1x Apple</tspan><tspan x="0" y="96" fill="#010101" font-family="'ProximaNovaSoft-Regular'" font-size="16px">1x Banana</tspan><tspan x="0" y="115.2" fill="#010101" font-family="'ProximaNovaSoft-Regular'" font-size="16px">1x Potato</tspan><tspan x="0" y="134.4" fill="#010101" font-family="'ProximaNovaSoft-Regular'" font-size="16px">1x Corn Cob</tspan></text>
</g>
</svg>
