<?xml version="1.0" encoding="utf-8"?>
<!-- Generator: Adobe Illustrator 19.2.1, SVG Export Plug-In . SVG Version: 6.00 Build 0)  -->
<!DOCTYPE svg PUBLIC "-//W3C//DTD SVG 1.1//EN" "http://www.w3.org/Graphics/SVG/1.1/DTD/svg11.dtd">
<svg version="1.1" id="Layer_1" xmlns="http://www.w3.org/2000/svg" xmlns:xlink="http://www.w3.org/1999/xlink" x="0px" y="0px"
	 viewBox="0 0 612 564" enable-background="new 0 0 612 564" xml:space="preserve">
<g>
	<path fill="#BDCCD4" d="M574.9,109H74.7c-5.6,0-10.1,5.3-10.1,11s4.5,11,10.1,11h485.8v120h-392c-5.6,0-10.1,3.8-10.1,9.5
		s4.5,9.5,10.1,9.5h392v180h-158v-54.3c0-5.7-1.6-7.7-7.1-7.7H163.4c-5.6,0-10.1,4.3-10.1,10s4.5,10,10.1,10h221.1v51.7
		c0,5.7,5.3,11.3,10.9,11.3h179.5c5.6,0,9.6-5.6,9.6-11.3V118.8C584.5,113.1,580.4,109,574.9,109z"/>
	<path fill="#BDCCD4" d="M321.8,450H70.5V339h405v43.2c0,5.7,4.9,10.3,10.5,10.3s10.5-4.6,10.5-10.3v-54.7c0-5.7-1.8-9.5-7.3-9.5
		H70.5V207h415.6c5.6,0,10.1-4.8,10.1-10.5s-4.5-10.5-10.1-10.5H62.6c-5.6,0-10.1,2.5-10.1,8.2v265.5c0,5.7,4.5,11.3,10.1,11.3
		h259.2c5.6,0,10.1-4.8,10.1-10.5S327.3,450,321.8,450z"/>
</g>
<ellipse fill="#FBB03C" cx="79.7" cy="158.1" rx="9.1" ry="9.3"/>
<ellipse fill="#FBB03C" cx="43.7" cy="158.1" rx="9.1" ry="9.3"/>
<ellipse fill="#FBB03C" cx="111" cy="158.1" rx="9.1" ry="9.3"/>
<ellipse fill="#FBB03C" cx="143.3" cy="158.1" rx="9.1" ry="9.3"/>
<ellipse fill="#FBB03C" cx="305.6" cy="158.1" rx="9.1" ry="9.3"/>
<ellipse fill="#FBB03C" cx="337.9" cy="158.1" rx="9.1" ry="9.3"/>
<ellipse fill="#FBB03C" cx="420.6" cy="158.1" rx="9.1" ry="9.3"/>
<ellipse fill="#FBB03C" cx="456.9" cy="158.1" rx="9.1" ry="9.3"/>
<ellipse fill="#FBB03C" cx="531.2" cy="223.9" rx="9.1" ry="9.3"/>
<ellipse fill="#FBB03C" cx="483.1" cy="224.2" rx="9.1" ry="9.3"/>
<ellipse fill="#FBB03C" cx="305.6" cy="226.3" rx="9.1" ry="9.3"/>
<ellipse fill="#FBB03C" cx="267.3" cy="226.3" rx="9.1" ry="9.3"/>
<ellipse fill="#FBB03C" cx="222.9" cy="226.3" rx="9.1" ry="9.3"/>
<ellipse fill="#FBB03C" cx="114" cy="294.4" rx="9.1" ry="9.3"/>
<ellipse fill="#FBB03C" cx="152.3" cy="294.4" rx="9.1" ry="9.3"/>
<ellipse fill="#FBB03C" cx="186.6" cy="294.4" rx="9.1" ry="9.3"/>
<ellipse fill="#FBB03C" cx="222.9" cy="294.4" rx="9.1" ry="9.3"/>
<ellipse fill="#FBB03C" cx="401.4" cy="294.4" rx="9.1" ry="9.3"/>
<ellipse fill="#FBB03C" cx="437.7" cy="294.4" rx="9.1" ry="9.3"/>
<ellipse fill="#FBB03C" cx="474" cy="294.4" rx="9.1" ry="9.3"/>
<ellipse fill="#FBB03C" cx="533.5" cy="372.9" rx="9.1" ry="9.3"/>
<ellipse fill="#FBB03C" cx="401.4" cy="363.6" rx="9.1" ry="9.3"/>
<ellipse fill="#FBB03C" cx="359.1" cy="363.6" rx="9.1" ry="9.3"/>
<ellipse fill="#FBB03C" cx="314.7" cy="363.6" rx="9.1" ry="9.3"/>
<ellipse fill="#FBB03C" cx="267.3" cy="363.6" rx="9.1" ry="9.3"/>
<ellipse fill="#FBB03C" cx="120.1" cy="427.7" rx="9.1" ry="9.3"/>
<ellipse fill="#FBB03C" cx="155.4" cy="427.7" rx="9.1" ry="9.3"/>
<ellipse fill="#FBB03C" cx="186.6" cy="427.7" rx="9.1" ry="9.3"/>
<ellipse fill="#FBB03C" cx="360" cy="450" rx="9.1" ry="9.3"/>
<ellipse fill="#FBB03C" cx="360" cy="480" rx="9.1" ry="9.3"/>
<ellipse fill="#FBB03C" cx="360" cy="510" rx="9.1" ry="9.3"/>
<ellipse fill="#FBB03C" cx="360" cy="540" rx="9.1" ry="9.3"/>
<ellipse fill="#FBB03C" cx="197.7" cy="160.2" rx="9.1" ry="9.3"/>
<path fill="#FFFFFF" stroke="#010101" stroke-miterlimit="10" d="M232.9,130.7c-8.9-9.5-17.9-14.1-27.9-14.1v-6.8
	c0-6.7-4.1-12.2-10.7-12.2c-3.6,0-6.2,1.7-8.4,4.3c-2.3-2.8-5.2-4.3-8.6-4.3c-2.5,0-4.7,0.8-6.8,2.3c-4.3,3.2-5.8,8.7-4.3,13.6
	c-3.7,1-6.7,3.7-8.1,7.4c-1.1,3.1-1,6.4,0.3,9.4c1.3,3,3.7,5.3,6.6,6.4l12.3,4.8c-1.7,7.3-0.3,14.7,4.1,21.2
	c9.2,13.7,32.3,36.9,60.2,36.9l1,0l0.9-0.2c7-1.5,11.5-6.3,13.4-13.3C261.4,169.5,245.8,142.8,232.9,130.7z"/>
<path fill="#F15C27" d="M193.7,130.9c0,0-14.4,12.6-4.9,26.8c9.5,14.2,30.1,33,53,33c17.8-3.8,1-39.6-13.9-53.4
	C212.6,120.8,201.7,124.9,193.7,130.9z"/>
<path fill="#3DB54A" stroke="#010101" stroke-miterlimit="10" d="M196.2,139c-1,0-1.9-0.5-2.5-1.3l-18.5-26c-1-1.4-0.7-3.4,0.7-4.4
	c1.4-1,3.2-0.7,4.2,0.7l12.9,18.2v-16.4c0-1.7,1.3-3.1,3-3.1s3,1.4,3,3.1v26c0,1.4-0.7,2.6-2,3C196.7,138.9,196.5,139,196.2,139z"/>
<path fill="#3DB54A" stroke="#010101" stroke-miterlimit="10" d="M196.2,139c-0.4,0-0.7-0.1-1.1-0.2l-26.8-10.5
	c-1.6-0.6-2.4-2.4-1.8-4.1c0.6-1.6,2.4-2.4,4-1.8l26.8,10.5c1.6,0.6,2.4,2.4,1.8,4.1C198.6,138.2,197.4,139,196.2,139z"/>
<path fill="none" stroke="#010101" stroke-linecap="round" stroke-miterlimit="10" d="M223.9,133.3c0,0-7.1,14.2-16.1,17.6"/>
<g>
	
		<text transform="matrix(0.9763 0 0 1 255.4976 161.6338)" fill="#010101" font-family="'ProximaNovaSoft-Regular'" font-size="27.456px">x3</text>
</g>
<g>
	<path fill="#FFFFFF" stroke="#010101" stroke-miterlimit="10" d="M583.3,278.7c-1.3-1.4-3.4-3.1-6.6-4.1c-0.3-6.2-2-13.4-7.9-17.2
		c-0.1-0.1-0.2-0.1-0.3-0.2l-0.6-2.3c-0.4-1.7-2.2-7.6-7.5-10.1c-3.2-1.5-6.8-1.4-10.1,0.4c-1,0.5-2,1.2-3,2.1
		c-3-1.8-7.3-2.8-11.5-0.7c-4.3,2.2-6.5,6.6-6.5,13.1c-1.3,0.2-2.5,0.6-3.8,1.3c-2.3,1.2-4.2,3-6,5.7l-0.6-0.1
		c-1.1-0.2-5-0.8-8.8,1.1c-2.2,1.2-9.2,5.9-5.2,18c0.2,0.6,0.4,1.4,0.5,2.1c-2.6,4.7-3.6,11,1.8,18.4c-1.7,2.5-2.9,5.5-3,8.9
		c-0.3,7.5,4.5,14.3,14.1,20.2l0.4,0.2l0.4,0.2c9.9,4.8,17.9,3.2,22.3,1.5l1.2,1.3c2,3.1,5.7,6.8,6.2,7.3c2.7,2.6,8.9,8.8,15.6,5.3
		c2.2-1.1,3.8-3.1,4.6-5.6c0.8-2.5,0.6-5-0.4-8.2c0.6-2.7,0.8-5.3,0.7-7.2l0.6-6.4c1.7-0.2,3.2-2,5-2h0c4.7-3,8.4-6.6,10.4-13.1
		C588.1,298.9,590.4,286.4,583.3,278.7z"/>
	<path fill="#3DB54A" stroke="#010101" stroke-miterlimit="10" d="M567.8,283.1c0,0,2.5-14.5-3.5-18.4c-6-3.9-4.5-7.7-4.5-7.7
		s-2.1-8.8-8.2-1.9c-4.1,5.4-8.2-0.3-8.2-0.3s-6.3-4.3-5.5,6.9c0,0,0.4,6.9-1.2,8.5c-1.7,1.6-5.7,5.3,2,18.6c0,0-17,3-1.6,23.7
		c8.4,9.3,16.3,7.1,18.1,5.2l-0.1,10.1c0.5,2.7,0.7,12.2,2.8,11.8s3.6-7,3.1-9.7l2-16.2c0.1,0.6,0.8,0.9,0.8,0.9s9.6,5,13.8-8.4
		C581.6,292.7,581,279.6,567.8,283.1z"/>
	<g>
		<path fill="#046937" d="M549.2,263.1c0,0,0.2,1,0.5,2.8c0.3,1.8,0.7,4.3,1.2,7.4c0.5,3.1,1.1,6.6,1.6,10.5c0.6,3.8,1.2,7.9,1.8,12
			c0.6,4.1,1.1,8.2,1.6,12c0.5,3.8,0.9,7.4,1.3,10.5c0.4,3.1,0.6,5.6,0.9,7.4c0.2,1.8,0.3,2.8,0.3,2.8s-0.2-1-0.5-2.8
			c-0.3-1.8-0.7-4.3-1.2-7.4c-0.5-3.1-1.1-6.6-1.6-10.5c-0.6-3.8-1.2-7.9-1.8-12c-0.6-4.1-1.1-8.2-1.6-12c-0.5-3.8-0.9-7.4-1.3-10.5
			c-0.4-3.1-0.6-5.6-0.9-7.4C549.3,264.1,549.2,263.1,549.2,263.1z"/>
	</g>
	<g>
		<path fill="#046937" d="M559.4,270.4c-0.5,0.9-1,1.7-1.6,2.6c-0.5,0.8-1.1,1.7-1.7,2.5c-1.1,1.7-2.3,3.3-3.5,4.9l-0.2,0.3
			l-0.4-0.2c-1.6-0.7-3.3-1.4-4.9-2.2c-1.6-0.8-3.2-1.6-4.8-2.4c1.7,0.5,3.4,1.1,5.1,1.8c1.7,0.6,3.3,1.3,5,2l-0.6,0.2
			c1.2-1.6,2.4-3.2,3.6-4.8c0.6-0.8,1.2-1.6,1.9-2.4C558.1,271.9,558.7,271.1,559.4,270.4z"/>
	</g>
	<g>
		<path fill="#046937" d="M541.2,300c1.3,0.2,2.6,0.4,3.9,0.5c1.3,0.2,2.6,0.4,3.9,0.6c2.6,0.4,5.2,0.9,7.7,1.4l-0.4,0.1
			c2.4-1.5,4.9-3,7.3-4.4l3.7-2.1c1.3-0.7,2.5-1.4,3.8-2c-1.2,0.8-2.3,1.6-3.5,2.5l-3.6,2.4c-2.4,1.6-4.8,3.1-7.2,4.6l-0.2,0.1
			l-0.2,0c-2.6-0.5-5.1-1.1-7.7-1.7c-1.3-0.3-2.6-0.6-3.8-0.9C543.7,300.6,542.4,300.3,541.2,300z"/>
	</g>
	<path fill="#3DB54A" stroke="#010101" stroke-miterlimit="10" d="M549,291c0,0-0.4-13.6-7.5-14.9c-7.1-1.3-6.4-5.2-6.4-5.2
		s-4.1-7-9.1,1.3c-3.2,6.2-8.7,2.7-8.7,2.7s-7.5-1.6-4.3,8c0,0,1.9,5.9,0.5,7.9s-4.9,6.7,5.9,15.6c0,0-17.3,8.7,3.3,21.4
		c10.8,5.2,18.7,0.4,20.2-1.9l6.5,7.2c1.1,2.2,9.2,11.2,11.3,10.1c2.1-1.1-3.5-11.4-4.6-13.6l-5.7-10.2c0.2,0.5,0.9,0.6,0.9,0.6
		s11.1,1,12.7-12.3C565.5,294.6,562.1,283.2,549,291z"/>
	<g>
		<path fill="#046937" d="M525.2,280.1c0,0,0.5,0.8,1.3,2.2c0.8,1.4,1.9,3.4,3.3,5.7c1.3,2.4,2.9,5.2,4.5,8.2c1.6,3,3.3,6.2,5.1,9.4
			c1.7,3.2,3.4,6.5,5,9.5c1.6,3,3,5.9,4.2,8.3c1.2,2.4,2.2,4.5,2.9,5.9c0.7,1.4,1.1,2.3,1.1,2.3s-0.5-0.8-1.3-2.2
			c-0.8-1.4-1.9-3.4-3.3-5.7c-1.3-2.4-2.9-5.2-4.5-8.2c-1.6-3-3.3-6.2-5.1-9.4c-1.7-3.2-3.4-6.5-5-9.5c-1.6-3-3-5.9-4.2-8.3
			c-1.2-2.4-2.2-4.5-2.9-5.9C525.6,280.9,525.2,280.1,525.2,280.1z"/>
	</g>
	<g>
		<path fill="#046937" d="M537.5,282.8c-0.3,1-0.8,1.9-1.1,2.9c-0.4,1-0.8,1.9-1.2,2.8c-0.8,1.9-1.7,3.7-2.6,5.6l-0.1,0.3l-0.3,0
			c-3.7-0.1-7.5-0.2-11.2-0.7c3.7-0.3,7.5-0.4,11.2-0.3l-0.5,0.3c0.9-1.9,1.8-3.7,2.8-5.5c0.5-0.9,1-1.8,1.5-2.7
			C536.4,284.6,536.9,283.7,537.5,282.8z"/>
	</g>
	<g>
		<path fill="#046937" d="M524.4,315.4c1.4-0.3,2.8-0.6,4.2-0.9c1.4-0.3,2.8-0.5,4.2-0.8c2.8-0.6,5.6-1,8.4-1.5l-0.3,0.1l3.4-3.3
			c1.1-1.1,2.3-2.2,3.4-3.2l3.5-3.2c1.2-1,2.3-2.1,3.5-3.1c-1,1.2-2.1,2.3-3.2,3.4l-3.3,3.4c-1.1,1.1-2.2,2.2-3.3,3.3l-3.4,3.3
			l-0.1,0.1l-0.2,0c-2.8,0.4-5.6,0.9-8.5,1.3c-1.4,0.2-2.8,0.4-4.2,0.6C527.2,315.1,525.8,315.3,524.4,315.4z"/>
	</g>
</g>
<g>
	<path fill="#FFFFFF" stroke="#010101" stroke-linecap="round" stroke-linejoin="round" stroke-miterlimit="10" d="M312,332.3
		c-2.6,1-5.5,1-8.8,0.1l-2.4-0.7l-8.3-11.2c-7.5,0.2-21.8-0.6-28.1-9c-1.7-2.3-3.3-5.8-3-10.5c-2.1-1.7-4.4-4.2-5.8-7.5
		c-0.8-2-1.3-4.1-1.3-6.2c-1.8-1.2-3.6-2.9-4.9-5.2c-1.4-2.3-2.7-6.1-1.7-11.1c-2.2-9.2-2.3-23.6,9.4-27.9c5.2-1.9,11.8-1.2,20,2.2
		c5,0.4,9.4,2.7,12.4,6.6c1.4,1.8,2.4,3.9,3.1,6c3.7,1.7,7.6,4.9,9.7,10.2c2.3,1.1,4.7,2.8,6.7,5.5c4.9,6.7,5.7,17.3,2.3,31.3
		l8,10.6l0.3,1.8C320.3,323,318.3,330,312,332.3z"/>
	<path fill="#8DC641" stroke="#010101" stroke-linecap="round" stroke-linejoin="round" stroke-miterlimit="10" d="M255.2,270.9
		c0,0-9.3-31.3,20.2-18.2c8.2,0,11.1,7.4,10.4,11c0,0,9.1,0.6,10.5,10.6c0,0,16.1,0,7,32.4l9,12.1c0,0,1.4,8.8-7.3,6.5l-9.1-12.3
		c0,0-33.3,3.2-26.3-15.5c0,0-11.1-4.5-7.2-14.6C262.4,282.8,252.2,280.8,255.2,270.9z"/>
	<g>
		<path fill="#FAED24" d="M306,317.1c0,0-0.8-0.8-2.1-2.2c-0.7-0.7-1.4-1.6-2.3-2.6c-0.9-1-1.9-2.2-2.9-3.5
			c-1.1-1.3-2.2-2.7-3.3-4.3c-1.2-1.5-2.4-3.1-3.6-4.8c-1.2-1.7-2.5-3.5-3.8-5.2c-1.3-1.8-2.5-3.6-3.8-5.5c-2.5-3.7-5-7.4-7.3-10.9
			c-2.3-3.5-4.4-6.8-6.2-9.6c-1.8-2.8-3.2-5.2-4.2-6.9c-1-1.7-1.6-2.6-1.6-2.6s2.5,3.7,6.3,9.2c1.9,2.8,4.1,6,6.4,9.5
			c2.3,3.5,4.8,7.1,7.4,10.8c1.3,1.8,2.5,3.7,3.8,5.5c1.3,1.8,2.5,3.6,3.7,5.3c2.4,3.4,4.6,6.6,6.7,9.3c1,1.3,1.9,2.6,2.7,3.6
			c0.8,1.1,1.5,2,2.2,2.8C305.3,316.3,306,317.1,306,317.1z"/>
	</g>
	<path fill="none" stroke="#FAED24" stroke-miterlimit="10" d="M294.8,284.6"/>
	<g>
		<path fill="#FAED24" d="M294.8,284.6c-0.4,0.6-0.7,1.2-1,1.9c-0.3,0.6-0.6,1.3-0.8,2l-0.3,1l-0.2,1c-0.1,0.3-0.1,0.7-0.2,1
			c-0.1,0.3-0.1,0.7-0.1,1c0,0.3-0.1,0.7-0.1,1c0,0.3,0,0.7,0,1l0.1,1c0,0.3,0.1,0.7,0.2,1c0.1,0.3,0.1,0.7,0.2,1l0.3,1
			c0.1,0.3,0.2,0.7,0.4,1l0.4,1l0,0c0.1,0.3,0,0.5-0.3,0.7c-0.1,0.1-0.3,0-0.4,0c-1.3-0.6-2.6-1.1-4-1.5c-1.4-0.4-2.7-0.8-4.1-1
			c-1.4-0.2-2.8-0.3-4.2,0c-0.3,0.1-0.7,0.1-1,0.3c-0.3,0.1-0.7,0.2-1,0.4c-0.3,0.2-0.6,0.4-0.9,0.6c-0.3,0.2-0.5,0.5-0.8,0.8
			c0.2-0.3,0.4-0.6,0.7-0.9c0.3-0.3,0.5-0.5,0.8-0.7c0.3-0.2,0.6-0.4,1-0.5c0.3-0.2,0.7-0.3,1-0.4c1.4-0.4,2.9-0.4,4.4-0.3
			c1.5,0.1,2.9,0.5,4.3,0.8c1.4,0.4,2.8,0.9,4.1,1.5l-0.7,0.7l-0.4-1c-0.1-0.3-0.3-0.7-0.4-1l-0.3-1.1c-0.1-0.4-0.1-0.7-0.2-1.1
			c0-0.4-0.1-0.7-0.1-1.1l-0.1-1.1c0-0.7,0-1.5,0.2-2.2c0.1-0.4,0.1-0.7,0.2-1.1c0.1-0.4,0.2-0.7,0.3-1.1l0.3-1l0.4-1
			C293.1,286.9,293.8,285.7,294.8,284.6z"/>
	</g>
	<g>
		<path fill="#FAED24" d="M285.2,269.5c-0.4,0.6-0.7,1.2-1,1.9c-0.3,0.6-0.6,1.3-0.8,2l-0.3,1l-0.2,1c-0.1,0.3-0.1,0.7-0.2,1
			c-0.1,0.3-0.1,0.7-0.1,1c0,0.3-0.1,0.7-0.1,1c0,0.3,0,0.7,0,1l0.1,1c0,0.3,0.1,0.7,0.2,1c0.1,0.3,0.1,0.7,0.2,1l0.3,1
			c0.1,0.3,0.2,0.7,0.4,1l0.4,1l0,0c0.1,0.3,0,0.5-0.3,0.7c-0.1,0.1-0.3,0-0.4,0c-1.3-0.6-2.6-1.1-4-1.5c-1.4-0.4-2.7-0.8-4.1-1
			c-1.4-0.2-2.8-0.3-4.2,0c-0.3,0.1-0.7,0.1-1,0.3c-0.3,0.1-0.7,0.2-1,0.4c-0.3,0.2-0.6,0.4-0.9,0.6c-0.3,0.2-0.5,0.5-0.8,0.8
			c0.2-0.3,0.4-0.6,0.7-0.9c0.3-0.3,0.5-0.5,0.8-0.7c0.3-0.2,0.6-0.4,1-0.5c0.3-0.2,0.7-0.3,1-0.4c1.4-0.4,2.9-0.4,4.4-0.3
			c1.5,0.1,2.9,0.5,4.3,0.8c1.4,0.4,2.8,0.9,4.1,1.5l-0.7,0.7l-0.4-1c-0.1-0.3-0.3-0.7-0.4-1l-0.3-1.1c-0.1-0.4-0.1-0.7-0.2-1.1
			c0-0.4-0.1-0.7-0.1-1.1l-0.1-1.1c0-0.7,0-1.5,0.2-2.2c0.1-0.4,0.1-0.7,0.2-1.1c0.1-0.4,0.2-0.7,0.3-1.1l0.3-1l0.4-1
			C283.5,271.8,284.2,270.5,285.2,269.5z"/>
	</g>
	<g>
		<path fill="#FAED24" d="M274.3,260c-0.5,0.9-1,1.9-1.3,2.9c-0.2,0.5-0.3,1-0.4,1.5c-0.1,0.5-0.2,1-0.2,1.5c-0.1,0.5,0,1,0,1.5
			c0.1,0.5,0.1,1,0.2,1.5c0.1,0.2,0.1,0.5,0.2,0.7l0.2,0.7c0.1,0.5,0.4,0.9,0.5,1.4l0,0c0.1,0.3,0,0.5-0.3,0.6c-0.1,0-0.3,0-0.4,0
			c-0.9-0.4-1.9-0.8-2.9-1.1c-0.5-0.2-1-0.3-1.5-0.4c-0.3-0.1-0.5-0.1-0.8-0.2c-0.3-0.1-0.5-0.1-0.8-0.1l-0.8-0.1l-0.8,0
			c-0.3,0-0.5,0-0.8,0c-0.3,0-0.5,0-0.8,0.1c-0.3,0-0.5,0.1-0.7,0.2c-0.2,0.1-0.5,0.1-0.7,0.3c-0.2,0.1-0.5,0.2-0.7,0.4l-0.6,0.5
			l0.5-0.7c0.2-0.2,0.4-0.4,0.6-0.5c0.2-0.2,0.5-0.3,0.7-0.4c0.2-0.1,0.5-0.2,0.8-0.3c0.3-0.1,0.5-0.2,0.8-0.2
			c0.3,0,0.5-0.1,0.8-0.1l0.8,0l0.8,0c1.1,0.1,2.2,0.3,3.2,0.6c1,0.3,2.1,0.7,3.1,1.1l-0.7,0.7c-0.2-0.5-0.4-1-0.6-1.5l-0.2-0.8
			c-0.1-0.3-0.1-0.5-0.1-0.8c-0.1-0.5-0.1-1.1-0.1-1.6c0-0.5,0-1.1,0.1-1.6c0.1-0.5,0.2-1.1,0.3-1.6c0.2-0.5,0.3-1,0.5-1.5
			C273.1,261.7,273.6,260.8,274.3,260z"/>
	</g>
</g>
<g>
	
		<text transform="matrix(0.9763 0 0 1 320.0039 300.1221)" fill="#010101" font-family="'ProximaNovaSoft-Regular'" font-size="27.456px">x1.5</text>
</g>
<g>
	<path fill="#F6EB16" stroke="#010101" stroke-miterlimit="10" d="M489.8,433.3c0.8,3.7-1.5,7.3-5.1,8.1c-3.6,0.8-7.1-1.6-7.9-5.2
		c-0.8-3.7,1.5-7.3,5.1-8.1C485.5,427.3,489,429.6,489.8,433.3z"/>
	<path fill="#FFFFFF" stroke="#010101" stroke-miterlimit="10" d="M487,388.8c-9.8-9.9-23.4-14-36.6-11.1c-4,0.9-7.7,2.4-11.2,4.4
		c-2.2-0.5-4.5-0.6-6.7-0.1c-8.2,1.8-13.4,10.1-11.6,18.4c0.3,1.3,0.7,2.6,1.3,3.8c-4.3,14.2-0.3,30.2,10.5,41.1
		c9.8,9.9,23.5,12.2,36.6,11.2c0,0,0,0,0,0c5.1,0,9.8-3.3,13.9-6.3c1.1,0,2.2-0.1,3.3-0.3c8.2-1.8,13.4-10,11.6-18.4
		c-0.1-0.6-0.3-1.3-0.5-1.9C501.5,415.7,497.9,399.9,487,388.8z"/>
	<path fill="#F6EB16" stroke="#010101" stroke-miterlimit="10" d="M481,395c-11.5-11.6-29.1-12.6-41-3c-1.5-1.4-3.6-2-5.8-1.5
		c-3.6,0.8-5.9,4.4-5.1,8.1c0.4,1.7,1.3,3.1,2.6,4.1c-5.4,11.7-3,26.4,6.8,36.4c12.4,12.5,31.9,12.7,43.6,0.6
		C493.9,427.4,493.4,407.5,481,395z"/>
	<g>
		<path fill="#FFFFFF" d="M447.6,394.5c0,0,0.7-0.3,2-0.6c1.3-0.3,3.1-0.7,5.3-0.9c1.1-0.1,2.3-0.1,3.6-0.1c1.3,0,2.6,0.1,4,0.4
			c1.4,0.2,2.8,0.6,4.2,1c1.4,0.4,2.8,1.1,4.1,1.8c1.3,0.8,2.6,1.6,3.6,2.7c0.6,0.5,1.1,1,1.6,1.5c0.5,0.5,0.9,1.1,1.4,1.6
			c0.9,1.1,1.6,2.3,2.2,3.4c0.3,0.6,0.6,1.1,0.8,1.7c0.2,0.6,0.5,1.1,0.7,1.6c0.4,1.1,0.7,2,0.9,2.9c0.2,0.9,0.4,1.6,0.5,2.3
			c0.2,1.3,0.4,2,0.4,2s-0.2-0.7-0.5-2c-0.1-0.6-0.4-1.4-0.7-2.2c-0.3-0.9-0.7-1.8-1.1-2.8c-0.2-0.5-0.5-1-0.7-1.6
			c-0.3-0.5-0.5-1.1-0.9-1.6c-0.6-1.1-1.4-2.2-2.2-3.3c-0.4-0.5-0.9-1.1-1.4-1.6c-0.5-0.5-1-1-1.5-1.5c-1.1-1-2.3-1.7-3.5-2.5
			c-1.3-0.7-2.6-1.3-3.9-1.8c-1.3-0.5-2.7-0.8-4.1-1.1c-2.7-0.5-5.3-0.6-7.5-0.6c-2.2,0.1-4,0.3-5.3,0.5
			C448.3,394.4,447.6,394.5,447.6,394.5z"/>
	</g>
</g>
<g>
	<path fill="#FFFFFF" stroke="#010101" stroke-miterlimit="10" d="M408.9,181.5c0.5-4.2-1.4-7.8-3-10c-0.9-4.6-3.5-7-5.2-8
		c-2.5-1.6-5.2-1.8-7.5-1.5c-0.9-1.5-2-2.7-2.9-3.6c-1.3-3.2-3.2-5-4.8-6c-3.6-2.2-7.6-1.8-10.9-0.4c-2.5-0.4-4.5,0.2-5.7,0.7
		c-3.6,1.6-5.5,5-6.4,7.6c-4.4,4.2-5.3,8.5-5.2,11.5c0.1,2,0.6,3.7,1.3,5.2l-25.7,51.3l8.3,4.4l16.1,12.9l35.8-47.1
		c3.7-0.8,6.7-2.3,9.1-4.7c1.7-1.7,2.7-3.6,3.4-5.4C408,185.9,408.7,183.2,408.9,181.5z"/>
	<path fill="#046937" stroke="#010101" stroke-miterlimit="10" d="M368.1,177.4c0,0-8.5-5.6,0.7-12.8c0,0,1.5-7.8,6.5-4.5
		c0,0,7-5.7,8.8,2.6c0,0,7.3,4.7,1.8,9.4c0,0,1.5,7.6-10.6,9.7L368.1,177.4z"/>
	<polygon fill="#8DC641" stroke="#010101" stroke-miterlimit="10" points="352.9,230.5 342.6,225.1 367.9,174.5 378.2,180 	"/>
	
		<line fill="none" stroke="#D9E028" stroke-linecap="round" stroke-linejoin="round" stroke-miterlimit="10" x1="347.6" y1="223.8" x2="369.8" y2="178"/>
	
		<line fill="none" stroke="#D9E028" stroke-linecap="round" stroke-linejoin="round" stroke-miterlimit="10" x1="351.1" y1="226" x2="373.5" y2="180.3"/>
	<path fill="#046937" stroke="#010101" stroke-miterlimit="10" d="M380.6,185.9c0,0-7.4-7.2,3.1-12.4c0,0,2.9-7.4,7.2-3.1
		c0,0,7.9-4.2,8.1,4.2c0,0,6.3,6,0,9.6c0,0,0.1,7.7-12.1,7.5L380.6,185.9z"/>
	<polygon fill="#8DC641" stroke="#010101" stroke-miterlimit="10" points="356,235.2 346.9,227.9 381,183 390.1,190.3 	"/>
	
		<line fill="none" stroke="#D9E028" stroke-linecap="round" stroke-linejoin="round" stroke-miterlimit="10" x1="352" y1="227.6" x2="382.2" y2="186.8"/>
	
		<line fill="none" stroke="#D9E028" stroke-linecap="round" stroke-linejoin="round" stroke-miterlimit="10" x1="355.1" y1="230.4" x2="385.4" y2="189.8"/>
</g>
<g>
	
		<text transform="matrix(0.9763 0 0 1 380.6797 235.543)" fill="#010101" font-family="'ProximaNovaSoft-Regular'" font-size="27.456px">x2.5</text>
</g>
<g>
	
		<text transform="matrix(0.9763 0 0 1 506.0332 427.9199)" fill="#010101" font-family="'ProximaNovaSoft-Regular'" font-size="27.456px">x3</text>
</g>
<g>
	<path fill="#FFFFFF" stroke="#010101" stroke-miterlimit="10" d="M152.5,190.7c-3.2-7.8-8.7-12.7-15.1-13.4c-2.2-0.2-4.4,0-6.6,0.8
		c-4.1,1.4-7.9,4.6-10.9,9.1c-5.3-4.7-11.4-6.6-17.2-4.8c-0.2,0.1-0.4,0.1-0.5,0.2c-6.1,2.1-10.2,7.9-11.9,15.5
		c-4.7-1.7-9.4-2-13.4-0.6c-1.6,0.6-3.1,1.4-4.5,2.4c-9.7,7.7-8.3,25.1,3.3,40.4c8,10.5,18.5,16.8,27.4,16.8l4.7,6.2
		c2.6,3.5,7.1,4.9,11.2,3.5c1.1-0.4,2.1-0.9,2.9-1.6c1.2-0.9,2.1-2.1,2.7-3.3c0.4-0.1,0.8-0.2,1.2-0.3l0.4-0.1
		c1.2-0.4,2.3-1.1,3.2-1.8c0,0,0,0,0,0c1.4,0.1,2.9,0,4.2-0.5c3.7-1.3,6.4-4.7,6.8-8.8l0.8-8.5c7.3-5.1,12.6-15.8,13.8-28.5
		C156,205.1,155.1,197.1,152.5,190.7z"/>
	<path fill="#079247" stroke="#010101" stroke-miterlimit="10" d="M103.6,218.2c-8.7-11.5-20.5-17-26.6-12.2
		c-6.1,4.8-4.1,18.1,4.6,29.6c7.9,10.4,18.6,15.7,24.7,13.3l7.4,9.8c0.9,1.2,2.5,1.4,3.6,0.5c1.1-0.9,1.3-2.6,0.5-3.7l-7.6-10.1
		C113.5,239.3,111.1,228.1,103.6,218.2z"/>
	<path fill="#079247" stroke="#010101" stroke-miterlimit="10" d="M147.8,212.6c1.4-14.4-3.5-26.8-11.1-27.6
		c-7.6-0.8-15.1,10.3-16.5,24.7c-1.3,13.1,3,24.5,9,27l-1.2,12.3c-0.1,1.5,0.9,2.8,2.3,2.9c1.4,0.1,2.7-0.9,2.8-2.4l1.2-12.7
		C140.8,234.9,146.6,225,147.8,212.6z"/>
	<path fill="#079247" stroke="#010101" stroke-miterlimit="10" d="M125.4,211c-4-13.9-13.1-23.4-20.5-21.2
		c-7.3,2.2-10.2,15.4-6.2,29.3c3.7,12.6,11.8,21.5,18.4,21.5l3.4,11.9c0.4,1.4,1.9,2.2,3.2,1.8c1.4-0.4,2.2-1.9,1.8-3.3l-3.5-12.2
		C127.2,234.3,128.9,222.9,125.4,211z"/>
	<g>
		<path fill="#010101" d="M106,196.6c0,0,0.4,0.6,0.9,1.6c0.6,1,1.4,2.5,2.2,4.3c0.8,1.8,1.8,3.9,2.7,6.2c0.9,2.3,1.8,4.8,2.6,7.3
			c0.4,1.3,0.8,2.5,1.1,3.8c0.4,1.3,0.7,2.5,1,3.7c0.6,2.4,1.1,4.7,1.5,6.6c0.4,1.9,0.7,3.6,0.9,4.7c0.2,1.1,0.3,1.8,0.3,1.8
			s-0.2-0.6-0.5-1.8c-0.3-1.1-0.7-2.7-1.2-4.6c-0.3-1-0.5-2-0.8-3.1c-0.3-1.1-0.6-2.2-1-3.4c-0.3-1.2-0.7-2.4-1.1-3.7
			c-0.4-1.3-0.8-2.5-1.2-3.8c-0.8-2.5-1.6-5-2.5-7.3c-0.4-1.2-0.8-2.3-1.2-3.3c-0.4-1.1-0.8-2.1-1.2-3c-0.8-1.8-1.4-3.4-1.9-4.4
			C106.3,197.2,106,196.6,106,196.6z"/>
	</g>
	<g>
		<path fill="#010101" d="M136.5,194.4c0,0,0.2,0.6,0.4,1.6c0.2,1,0.6,2.5,0.8,4.3c0.1,0.9,0.3,1.9,0.4,2.9c0.1,1,0.2,2.1,0.2,3.3
			c0,1.1,0.1,2.3,0,3.5c-0.1,1.2-0.1,2.4-0.2,3.6l-0.2,1.8c-0.1,0.6-0.2,1.2-0.3,1.8c-0.2,1.2-0.4,2.3-0.7,3.5
			c-0.1,0.6-0.2,1.1-0.4,1.6c-0.2,0.5-0.3,1-0.5,1.5c-0.2,0.5-0.3,1-0.5,1.4c-0.2,0.5-0.4,0.9-0.5,1.3c-0.3,0.8-0.7,1.6-1,2.3
			c-0.3,0.7-0.7,1.2-0.9,1.7c-0.5,0.9-0.8,1.5-0.8,1.5s0.2-0.6,0.6-1.5c0.2-0.5,0.5-1.1,0.7-1.8c0.2-0.7,0.5-1.5,0.8-2.3
			c0.1-0.4,0.3-0.9,0.4-1.3c0.1-0.5,0.3-1,0.4-1.5c0.3-1,0.5-2,0.8-3.2c0.1-0.6,0.2-1.1,0.3-1.7c0.1-0.6,0.2-1.2,0.3-1.7
			c0.1-0.6,0.2-1.2,0.3-1.8l0.2-1.8c0.2-1.2,0.2-2.4,0.3-3.6c0.1-1.2,0.1-2.3,0.1-3.5c0-1.1,0-2.2-0.1-3.2c0-1-0.1-2-0.2-2.9
			c-0.2-1.8-0.3-3.3-0.5-4.3C136.7,195,136.5,194.4,136.5,194.4z"/>
	</g>
	<g>
		<path fill="#010101" d="M79.9,211.5c0,0,0.5,0.4,1.4,1.1c0.9,0.7,2.2,1.8,3.6,3.1c0.7,0.7,1.5,1.4,2.3,2.2
			c0.8,0.8,1.7,1.6,2.5,2.6c1.7,1.8,3.4,3.8,5.1,5.9c0.8,1,1.6,2.1,2.4,3.1c0.8,1,1.5,2.1,2.2,3.1c0.7,1,1.3,2.1,1.9,3
			c0.6,1,1.1,1.9,1.6,2.8c0.5,0.9,1,1.6,1.3,2.4c0.4,0.7,0.7,1.3,0.9,1.9c0.5,1,0.8,1.6,0.8,1.6s-0.4-0.6-1-1.5
			c-0.3-0.5-0.7-1.1-1.1-1.8c-0.4-0.7-0.9-1.4-1.5-2.3c-0.5-0.8-1.1-1.7-1.8-2.7c-0.7-0.9-1.3-1.9-2-2.9c-0.7-1-1.5-2-2.3-3.1
			c-0.8-1-1.6-2.1-2.4-3.1c-0.8-1-1.6-2.1-2.5-3c-0.8-1-1.7-2-2.5-2.9c-1.6-1.8-3.2-3.6-4.6-5c-1.4-1.4-2.5-2.6-3.4-3.4
			C80.3,212,79.9,211.5,79.9,211.5z"/>
	</g>
</g>
<g>
	
		<text transform="matrix(0.9763 0 0 1 154.5063 236.6416)" fill="#010101" font-family="'ProximaNovaSoft-Regular'" font-size="27.456px">x3</text>
</g>
<g>
	<path fill="#FFFFFF" stroke="#010101" stroke-miterlimit="10" d="M128.6,403.5c12.1-7.3,17-22.4,12.3-35.4c4.7-0.3,9.8-2.3,14-4.8
		c10.7-6.2,15.8-14.5,13.1-21c9.9-12.7,10.4-22.8,7.4-27.9c-0.5-0.9-1.2-1.7-1.9-2.4c-2.3-2.1-7.5-5.1-16.8-0.6
		c-5.2,2.5-10.8,6.9-15.8,12.4c0,0-0.1,0.1-0.1,0.1c-0.3-0.7-0.6-1.4-1-2c-1.8-3.1-4.4-5-7.4-5.3c-2.5-0.3-7.4,0.2-11.2,7.3
		c-2,3.6-3.4,8.4-4,13.6c-0.5,4.2-0.4,8.1,0.2,11.5c-6.1-0.8-12.5,0.4-18.2,3.9c-13.6,8.3-18.1,26.4-10,40.3
		c0.1,0.2,0.2,0.3,0.3,0.5c-1.8,3.4-2,7.3-0.2,10.4c0.3,0.6,0.7,1.1,1.1,1.5c3.5,3.8,9.3,3.8,13.9,0.3
		C112.2,408.7,121,408.1,128.6,403.5z"/>
	<path fill="#673090" stroke="#010101" stroke-miterlimit="10" d="M125.5,398.1c10.7-6.5,14.3-20.8,7.9-31.8
		c-6.4-11-20.3-14.6-31-8.1c-10.7,6.5-14.3,20.8-7.9,31.8c0.7,1.2,1.5,2.4,2.4,3.4c-0.3,0.3-0.6,0.6-0.9,1c-1.9,2.5-1.9,5.7,0,7.1
		c1.9,1.5,4.9,0.6,6.7-1.8c0.3-0.3,0.5-0.7,0.6-1C110.1,402.3,118.5,402.4,125.5,398.1z"/>
	<path fill="#079247" stroke="#010101" stroke-miterlimit="10" d="M128.2,364.9l1-9.8c3.2-1,6.3-7.3,7.3-15.3c1-9-1-16.6-4.7-17.1
		s-7.4,6.5-8.5,15.5c-1,8.7,0.9,16.2,4.4,17l-1,9.6c0,0.3,0.2,0.6,0.4,0.8c0.1,0,0.1,0.1,0.2,0.1
		C127.8,365.6,128.2,365.3,128.2,364.9z"/>
	<path fill="#079247" stroke="#010101" stroke-miterlimit="10" d="M127.9,365.7l8-4.8c2.6,2,9.2,0.8,15.9-3
		c7.5-4.3,12.1-10.4,10.3-13.6c-1.7-3.2-9.2-2.2-16.7,2.1c-7.3,4.2-11.8,10.1-10.5,13.3l-7.9,4.7c-0.3,0.2-0.4,0.5-0.3,0.8
		c0,0.1,0,0.1,0.1,0.2C127.2,365.8,127.6,365.9,127.9,365.7z"/>
	<path fill="#079247" stroke="#010101" stroke-miterlimit="10" d="M128.2,365.3l9.7-11.2c4.8,1.7,14.2-3.3,22.3-12.3
		c9.1-10.1,13.2-21.5,9.1-25.3c-4.1-3.9-14.8,1.2-23.9,11.4c-8.9,9.9-12.9,20.8-9.4,25l-9.5,10.9c-0.3,0.4-0.4,0.9-0.1,1.4
		c0.1,0.1,0.1,0.2,0.2,0.3C127.1,365.8,127.8,365.8,128.2,365.3z"/>
	<g>
		<line fill="#079247" x1="163.4" y1="323.3" x2="139.6" y2="350.7"/>
		<path fill="#010101" d="M163.4,323.3c0,0-0.3,0.5-0.9,1.2c-0.6,0.8-1.5,1.9-2.5,3.2c-1.1,1.3-2.3,2.9-3.7,4.5
			c-1.4,1.6-2.8,3.3-4.3,5.1c-1.5,1.7-3,3.4-4.4,5c-1.4,1.6-2.8,3-3.9,4.3c-1.1,1.3-2.1,2.3-2.8,3c-0.7,0.7-1.1,1.1-1.1,1.1
			s0.3-0.5,0.9-1.2c0.6-0.8,1.5-1.9,2.5-3.2c1.1-1.3,2.3-2.9,3.7-4.5c1.4-1.6,2.8-3.3,4.3-5.1c1.5-1.7,3-3.4,4.4-5
			c1.4-1.6,2.8-3,3.9-4.3c1.1-1.3,2.1-2.3,2.8-3C163,323.7,163.4,323.3,163.4,323.3z"/>
	</g>
	<g>
		<path fill="#010101" d="M155.5,350.6c0,0-0.7,0.6-1.7,1.3c-1.1,0.7-2.6,1.6-4.1,2.4c-1.6,0.7-3.2,1.4-4.5,1.7
			c-1.3,0.3-2.1,0.4-2.1,0.4s0.2-0.1,0.5-0.3c0.3-0.2,0.8-0.4,1.4-0.7c1.2-0.6,2.7-1.3,4.2-2.1c1.5-0.7,3.1-1.5,4.3-2
			C154.6,350.9,155.5,350.6,155.5,350.6z"/>
	</g>
	<g>
		<path fill="#010101" d="M130.7,330.9c0,0-0.1,0.3-0.2,0.8c-0.1,0.5-0.3,1.3-0.5,2.2c-0.4,1.8-0.9,4.2-1.2,6.6
			c-0.1,0.6-0.2,1.2-0.2,1.8c0,0.6-0.1,1.2-0.1,1.8c0,0.6-0.1,1.1-0.1,1.6c0,0.5,0,1,0,1.5c0,0.5,0,0.9,0.1,1.3c0,0.4,0.1,0.7,0.1,1
			c0.1,0.5,0.1,0.9,0.1,0.9s-0.1-0.3-0.3-0.8c-0.2-0.5-0.4-1.3-0.6-2.2c-0.1-0.5-0.1-1-0.2-1.5c-0.1-0.5-0.1-1.1-0.1-1.7
			c0-1.2,0.1-2.4,0.2-3.7c0.2-1.2,0.4-2.5,0.7-3.6c0.3-1.1,0.6-2.2,0.9-3.1c0.3-0.9,0.6-1.6,0.9-2.1
			C130.5,331.2,130.7,330.9,130.7,330.9z"/>
	</g>
</g>
<g>
	
		<text transform="matrix(0.9763 0 0 1 171.833 372.5479)" fill="#010101" font-family="'ProximaNovaSoft-Regular'" font-size="27.456px">x1/5</text>
</g>
<g>
	<path fill="#FFFFFF" stroke="#010101" stroke-miterlimit="10" d="M550.9,119c-0.6-0.3-1.2-0.7-1.8-1c-0.6-3.3-2.3-6.8-6.4-8.2
		c-4.5-1.4-7.7,0.9-9.9,3.4c-6.8-0.5-12,0.8-12.6,1c0,0-0.1,0-0.1,0c-15.1,2.1-27.4,10.9-31.4,24.2c-6.1,20,9,42.7,33.8,50.7
		c24.7,7.9,49.8-1.9,55.9-22C583.8,148.9,571.8,128.5,550.9,119z"/>
	<path fill="#EE2D2F" stroke="#010101" stroke-miterlimit="10" d="M570.6,164.7c-4.8,15.7-25.3,23.2-45.9,16.6
		c-20.5-6.6-33.3-24.6-28.5-40.4c4.8-15.7,25.3-23.2,45.9-16.6C562.7,130.9,575.4,149,570.6,164.7z"/>
	<path fill="#046937" stroke="#010101" stroke-miterlimit="10" d="M557,133.2c-0.3-0.2-6.5-6-15.6-9.7c0-1.1,0-5.5-1.2-5.8
		c-1.1-0.4-3,3.4-3.6,4.4c-7.7-1.7-14.2,0-14.5,0.1c-1.4,0.4-2.2,1.8-1.8,3.2c0.4,1.4,1.8,2.3,3.2,1.9c0,0,2.5-0.7,6-0.7l-3.3,1.6
		c-1.3,0.6-1.8,2.2-1.2,3.5c0.3,0.7,0.9,1.2,1.6,1.4c0.6,0.2,0.8,0,1.5-0.3l5.2-2.9l-1.4,4.5c-0.4,1.4,0.5,2.9,1.9,3.4
		c1.4,0.4,3-0.3,3.4-1.7l1.6-5.1l4.7,6.9c0.3,0.5,1,0.9,1.5,1.1c0.7,0.2,1.6,0.2,2.3-0.3c1.2-0.8,1.5-2.5,0.7-3.7l-2.5-3.8
		c4.9,2.8,8,5.7,8,5.7c0.3,0.3,0.6,0.5,1,0.6c0.9,0.3,2,0,2.7-0.7C558.1,135.9,558,134.2,557,133.2z"/>
	<path fill="#FFFFFF" d="M565,154c1.7,5.5,0.8,10.7-2,11.6c-2.9,1-6.6-2.7-8.4-8.1s-0.8-10.7,2-11.6
		C559.5,144.9,563.3,148.6,565,154z"/>
</g>
<g>
	<path fill="#FFFFFF" stroke="#010101" stroke-miterlimit="10" d="M264.3,402l-5.2-1.7l-0.1-0.4c1-4.5,2-12.8-2.9-17.2
		c-1.7-1.5-5.4-3.6-11.3-1.5l-20.8,7.2l-0.2,0c-2.9,1.2-6.5,4.1-7.3,8.7c-0.5,3.4,0.7,6.4,2.5,8.9l-0.2,0.1l6,7.2l-2.2,3.6
		l11.6,53.3l10.5,4.7l36.5-12.7l4.5-9.9L264.3,402z"/>
	<path fill="#818181" stroke="#010101" stroke-miterlimit="10" d="M230.4,407.2l21.6-7.5c0,0,4.1-15.6-5.2-12.4
		c-9.3,3.2-20.7,7.2-20.7,7.2S217.5,398,230.4,407.2z"/>
	<polygon fill="#CDCCCC" stroke="#010101" stroke-miterlimit="10" points="233,412.1 229.9,417.7 240.3,465.4 245.3,467.7 
		276.1,457 278.1,452.5 259,407.4 252.7,405.3 252.1,401.2 230.3,408.8 	"/>
	<path fill="#FFFFFF" stroke="#010101" stroke-miterlimit="10" d="M237.8,393.7c0.2,0.7-0.2,1.4-0.8,1.6c-0.7,0.2-1.4-0.1-1.6-0.8
		s0.2-1.4,0.8-1.6C236.8,392.7,237.6,393,237.8,393.7z"/>
	<path fill="#FFFFFF" stroke="#010101" stroke-miterlimit="10" d="M235.3,396.1c0.2,0.7-0.2,1.4-0.8,1.6s-1.4-0.1-1.6-0.8
		s0.2-1.4,0.8-1.6S235.1,395.5,235.3,396.1z"/>
	<path fill="#FFFFFF" stroke="#010101" stroke-miterlimit="10" d="M231.3,395.9c0.2,0.7-0.2,1.4-0.8,1.6c-0.7,0.2-1.4-0.1-1.6-0.8
		c-0.2-0.7,0.2-1.4,0.8-1.6C230.4,394.9,231.1,395.2,231.3,395.9z"/>
	<path fill="#FFFFFF" stroke="#010101" stroke-miterlimit="10" d="M228.3,398.5c0.2,0.7-0.2,1.4-0.8,1.6c-0.7,0.2-1.4-0.1-1.6-0.8
		c-0.2-0.7,0.2-1.4,0.8-1.6C227.4,397.5,228.1,397.9,228.3,398.5z"/>
	<polygon fill="#FFFFFF" stroke="#010101" stroke-miterlimit="10" points="235.9,427.6 258.8,419.6 272.7,451.1 272.3,454.3 
		246.6,463.3 244.4,461.9 	"/>
</g>
<g>
	
		<text transform="matrix(0.9763 0 0 1 277.9268 434.751)" fill="#010101" font-family="'ProximaNovaSoft-Regular'" font-size="27.456px">x1 tsp</text>
</g>
<rect x="45.8" y="25.2" fill="none" width="520.4" height="36.3"/>
<text transform="matrix(1 0 0 1 50.4757 49.3872)" fill="#EE2D2F" font-family="'ProximaNovaSoft-Bold'" font-size="36px">SAME RECIPE BUT HEALTHIER</text>
</svg>
